<?xml version="1.0" standalone="no"?>
<!DOCTYPE svg PUBLIC "-//W3C//DTD SVG 1.1//EN" "http://www.w3.org/Graphics/SVG/1.1/DTD/svg11.dtd" >
<svg xmlns="http://www.w3.org/2000/svg" xmlns:xlink="http://www.w3.org/1999/xlink" version="1.1">
<metadata>
Created by FontForge 20200427 at Wed Feb 25 23:04:08 2015
 By www
Copyright (c) 2012 by ARS Type-Angus R. Shamal. All rights reserved.
</metadata>
<defs>
<font id="SQMarket-Regular" horiz-adv-x="576" >
  <font-face 
    font-family="SQ Market Regular"
    font-weight="400"
    font-stretch="normal"
    units-per-em="1000"
    panose-1="2 0 0 0 0 0 0 0 0 0"
    ascent="800"
    descent="-200"
    x-height="519"
    cap-height="714"
    bbox="-162 -200 3036 1000"
    underline-thickness="50"
    underline-position="-100"
    unicode-range="U+0002-FEFF"
  />
<missing-glyph horiz-adv-x="574" 
d="M40 714h494v-714h-494v714zM88 684l416 -628v628h-416zM70 30h415l-415 628v-628z" />
    <glyph glyph-name="fi" unicode="fi" horiz-adv-x="564" 
d="M309 644q-6 3 -19.5 6.5t-33.5 3.5q-23 0 -42 -10t-19 -42v-83h119v-73h-119v-446h-84v446h-87v73h87v89q0 37 13 59.5t32.5 35.5t43.5 17.5t46 4.5q23 0 42 -3t33 -8zM402 624v90h84v-90h-84zM402 0v519h84v-519h-84z" />
    <glyph glyph-name="fl" unicode="fl" horiz-adv-x="566" 
d="M309 644q-6 3 -19.5 6.5t-33.5 3.5q-23 0 -42 -10t-19 -42v-83h119v-73h-119v-446h-84v446h-87v73h87v89q0 37 13 59.5t32.5 35.5t43.5 17.5t46 4.5q23 0 42 -3t33 -8zM404 0v714h84v-714h-84z" />
    <glyph glyph-name="r_f" unicode="rf" horiz-adv-x="707" 
d="M340 446q-32 0 -63.5 -6t-57.5 -25t-42 -54t-16 -93v-268h-84v519h84v-76q9 16 24 31t34 26.5t41.5 18.5t46.5 7q25 0 33 -5v-75zM677 644q-6 3 -19.5 6.5t-33.5 3.5q-24 0 -42.5 -10t-18.5 -42v-83h119v-73h-119v-446h-84v446h-87v73h87v89q0 37 13 59.5t32.5 35.5
t43.5 17.5t46 4.5q23 0 42 -3t33 -8z" />
    <glyph glyph-name="r_t" unicode="rt" horiz-adv-x="737" 
d="M340 446q-32 0 -63.5 -6t-57.5 -25t-42 -54t-16 -93v-268h-84v519h84v-76q9 16 24 31t34 26.5t41.5 18.5t46.5 7q25 0 33 -5v-75zM719 11q-16 -11 -40.5 -16.5t-52.5 -5.5q-65 0 -102 34.5t-37 113.5v309h-97v73h97v195h84v-195h137v-73h-137v-297q0 -46 18 -65t51 -19
q18 0 33.5 4.5t24.5 11.5z" />
    <glyph glyph-name="uniFDFC" unicode="&#xfdfc;" horiz-adv-x="934" arabic-form="isolated" 
d="M179 -13q-47 0 -80.5 15.5t-54.5 38.5t-31 51t-10 53l74 31q0 -53 28 -84t76 -31q22 0 41 7t33.5 22.5t23 39.5t8.5 57v527h85v-512q0 -53 -14.5 -93t-40 -67t-61 -41t-77.5 -14zM450 80h60v-80h-60v80zM569 80h60v-80h-60v80zM671 -184q-30 0 -57.5 6t-44.5 16v72
q17 -11 41.5 -18t53.5 -7q75 0 122.5 48t47.5 140q0 33 -6.5 57.5t-19.5 44.5v100q20 -14 38.5 -34.5t32.5 -47t22.5 -59t8.5 -69.5q0 -56 -17.5 -102t-49.5 -78.5t-76 -50.5t-96 -18zM630 175q-94 0 -137 49t-43 142v348h85v-360q0 -55 19.5 -81.5t70.5 -26.5h46v45
q0 49 -41 76l29 47q12 -6 26.5 -17.5t27.5 -28t21.5 -37t8.5 -45.5v-111h-113z" />
    <glyph glyph-name=".notdef" horiz-adv-x="574" 
d="M40 714h494v-714h-494v714zM88 684l416 -628v628h-416zM70 30h415l-415 628v-628z" />
    <glyph glyph-name=".null" horiz-adv-x="0" 
 />
    <glyph glyph-name="nonmarkingreturn" unicode="&#xd;" horiz-adv-x="61" 
 />
    <glyph glyph-name="NULL" horiz-adv-x="0" 
 />
    <glyph glyph-name="NULL" horiz-adv-x="0" 
 />
    <glyph glyph-name="uni0002" horiz-adv-x="270" 
 />
    <glyph glyph-name="space" unicode=" " horiz-adv-x="270" 
 />
    <glyph glyph-name="exclam" unicode="!" horiz-adv-x="260" 
d="M153 211h-45l-24 350v153h92v-153zM78 0v105h104v-105h-104z" />
    <glyph glyph-name="quotedbl" unicode="&#x22;" horiz-adv-x="390" 
d="M75 447v267h70v-267h-70zM244 447v267h70v-267h-70z" />
    <glyph glyph-name="numbersign" unicode="#" 
d="M448 456l-34 -198h121v-55h-130l-36 -203h-58l36 203h-170l-36 -203h-59l36 203h-79v55h88l34 198h-122v54h131l35 204h59l-35 -204h169l36 204h58l-35 -204h78v-54h-87zM220 456l-34 -198h170l34 198h-170z" />
    <glyph glyph-name="dollar" unicode="$" 
d="M264 -60v50q-75 6 -133 39.5t-93 88.5l71 45q30 -50 71.5 -71t83.5 -26v261q-35 9 -71.5 22.5t-66 36t-48.5 56t-19 82.5q0 45 16.5 80t44 60t65 38.5t79.5 16.5v46h54v-48q60 -5 110.5 -33t85.5 -76l-63 -45q-50 63 -133 77v-238q37 -11 74.5 -25.5t67.5 -37.5t49 -57.5
t19 -84.5q0 -42 -14.5 -78.5t-41.5 -64t-66 -45t-88 -20.5v-49h-54zM445 192q0 27 -8.5 45.5t-25 32.5t-40 24t-53.5 19v-248q60 5 93.5 38.5t33.5 88.5zM144 530q0 -26 10 -44.5t26.5 -31.5t38.5 -22t45 -16v226q-50 -3 -85 -31.5t-35 -80.5z" />
    <glyph glyph-name="percent" unicode="%" horiz-adv-x="777" 
d="M362 564q0 -35 -11.5 -65t-32 -52t-49 -34.5t-63.5 -12.5t-63.5 12.5t-49 34.5t-32 52t-11.5 65q0 34 11.5 63.5t32 51.5t49 34.5t63.5 12.5t63.5 -12.5t49 -34.5t32 -51.5t11.5 -63.5zM193 0h-67l459 714h67zM728 152q0 -35 -11.5 -65t-32 -52t-49 -34.5t-63.5 -12.5
t-63.5 12.5t-49.5 34.5t-32.5 52t-11.5 65q0 34 11.5 64t32.5 51.5t49.5 34t63.5 12.5t63.5 -12.5t49 -34t32 -51.5t11.5 -64zM302 564q0 44 -26 73t-70 29q-45 0 -71 -29t-26 -73q0 -45 26 -75t71 -30t70.5 30t25.5 75zM668 152q0 44 -26 73.5t-70 29.5t-70 -29.5
t-26 -73.5t26 -74t70 -30q45 0 70.5 30t25.5 74z" />
    <glyph glyph-name="ampersand" unicode="&#x26;" horiz-adv-x="660" 
d="M483 70q-57 -48 -111 -65.5t-105 -17.5q-55 0 -96 16t-68.5 43.5t-41 63.5t-13.5 76q0 37 10 65.5t30 53t50 48.5t71 51q-34 41 -55 78.5t-21 86.5q0 37 13 66.5t35.5 49.5t52.5 31t65 11t63.5 -11t49 -30t32 -45t11.5 -57q0 -57 -38 -102t-98 -88l175 -210q20 23 34 45
t22 41l65 -35q-11 -23 -29.5 -51t-43.5 -57l107 -127h-108zM277 63q84 0 160 64l-183 222q-28 -19 -49.5 -36.5t-36.5 -35.5t-23 -38.5t-8 -46.5q0 -27 8.5 -50.5t26 -41t43.5 -27.5t62 -10zM215 571q0 -32 15 -60t44 -63q27 18 46 33.5t31 30.5t17.5 30.5t5.5 34.5
q0 35 -20 57t-56 22q-34 0 -58.5 -20.5t-24.5 -64.5z" />
    <glyph glyph-name="quotesingle" unicode="'" horiz-adv-x="221" 
d="M75 447v267h70v-267h-70z" />
    <glyph glyph-name="parenleft" unicode="(" horiz-adv-x="290" 
d="M272 761q-82 -97 -117 -204t-35 -224t35 -224t117 -204l-54 -43q-93 106 -134 226t-41 245q0 124 41 244t134 227z" />
    <glyph glyph-name="parenright" unicode=")" horiz-adv-x="290" 
d="M72 804q93 -107 133.5 -227t40.5 -244q0 -125 -40.5 -245t-133.5 -226l-54 43q81 97 116 204t35 224t-35 224t-116 204z" />
    <glyph glyph-name="asterisk" unicode="*" horiz-adv-x="359" 
d="M192 550q5 -21 8 -36t4.5 -28.5t2 -26.5t0.5 -29h-56q0 16 0.5 29t2.5 26.5t4.5 28.5t7.5 36q-15 -15 -27 -25t-22.5 -18t-21.5 -15t-25 -15l-27 48q14 8 25.5 14t23.5 11.5t26.5 10.5t34.5 11q-20 6 -34.5 11t-26.5 10.5t-23.5 11.5t-25.5 14l27 48q14 -8 25 -15
t21.5 -15t22.5 -18t27 -25q-5 21 -7.5 36t-4.5 28.5t-2.5 26.5t-0.5 29h56q0 -16 -0.5 -29t-2 -26.5t-4.5 -28.5t-8 -36q15 15 27 25t22.5 18t21.5 15t25 15l28 -48q-14 -8 -25.5 -14t-24 -11.5t-27 -10.5t-35.5 -11q21 -6 35.5 -11t27 -10.5t24 -11.5t25.5 -14l-28 -48
q-14 8 -25 15t-21.5 15t-22.5 18t-27 25z" />
    <glyph glyph-name="plus" unicode="+" 
d="M325 222v-222h-75v222h-222v74h222v223h75v-223h222v-74h-222z" />
    <glyph glyph-name="comma" unicode="," horiz-adv-x="250" 
d="M177 25q0 -50 -20.5 -88.5t-58.5 -72.5l-31 31q28 24 42 51t14 52v2h-52v105h106v-80z" />
    <glyph glyph-name="hyphen" unicode="-" horiz-adv-x="387" 
d="M62 222v74h263v-74h-263z" />
    <glyph glyph-name="period" unicode="." horiz-adv-x="250" 
d="M72 0v105h105v-105h-105z" />
    <glyph glyph-name="slash" unicode="/" horiz-adv-x="350" 
d="M101 0h-69l220 714h69z" />
    <glyph glyph-name="zero" unicode="0" 
d="M531 357q0 -70 -12 -136.5t-40.5 -118.5t-75 -83.5t-114.5 -31.5q-69 0 -116 31.5t-75.5 83.5t-40.5 118.5t-12 136.5t12 136.5t40.5 118.5t75.5 83.5t116 31.5q68 0 114.5 -31.5t75 -83.5t40.5 -118.5t12 -136.5zM437 357q0 60 -7.5 113t-25 92.5t-45.5 62.5t-70 23
t-71 -23t-47 -62.5t-25.5 -92.5t-7.5 -113t7.5 -113t25.5 -92.5t47 -62.5t71 -23t70 23t45.5 62.5t25 92.5t7.5 113z" />
    <glyph glyph-name="one" unicode="1" horiz-adv-x="441" 
d="M46 577l197 137h75v-714h-90v604l-138 -94z" />
    <glyph glyph-name="two" unicode="2" 
d="M48 0v12q0 39 16.5 75t45.5 72t67.5 72.5t83.5 74.5q34 30 62.5 55t48.5 49.5t31 50t11 57.5q0 62 -39 93t-97 31q-57 0 -98.5 -26.5t-67.5 -73.5l-73 47q39 63 100 100.5t143 37.5q50 0 92 -14.5t72.5 -41t47.5 -64.5t17 -85q0 -66 -30.5 -114.5t-76.5 -89.5
q-29 -26 -66.5 -55.5t-73.5 -60t-66 -60.5t-45 -58h374v-84h-479z" />
    <glyph glyph-name="three" unicode="3" 
d="M195 389l187 241h-324v84h439v-62l-165 -209q42 -2 78 -17.5t62.5 -43.5t41.5 -66t15 -84q0 -45 -15.5 -89t-47.5 -78.5t-81.5 -56t-117.5 -21.5q-86 0 -144 34.5t-94 97.5l76 46q25 -48 67.5 -71t93.5 -23q35 0 65.5 10.5t53 30.5t35.5 49t13 66q0 31 -9 57t-26 45
t-41 29.5t-54 10.5q-23 0 -38 -6t-27 -15z" />
    <glyph glyph-name="four" unicode="4" 
d="M441 170v-170h-90v170h-321v77l312 467h99v-463h99v-81h-99zM352 251v349l-235 -349h235z" />
    <glyph glyph-name="five" unicode="5" 
d="M276 -13q-85 0 -143.5 34.5t-92.5 97.5l78 45q24 -48 66 -70.5t91 -22.5q33 0 62 9.5t50.5 29t34 48.5t12.5 68q0 74 -42.5 114t-115.5 40q-49 0 -87 -18t-65 -51l-54 27l23 376h397v-84h-322l-15 -215q31 24 69.5 34.5t75.5 10.5q50 0 92.5 -17t73 -47t48 -72.5
t17.5 -93.5q0 -45 -14.5 -89t-45.5 -78t-78.5 -55t-114.5 -21z" />
    <glyph glyph-name="six" unicode="6" 
d="M466 608q-30 21 -62 29.5t-63 8.5q-56 0 -94.5 -21.5t-63.5 -58t-36 -85.5t-11 -103q25 40 71.5 65t106.5 25q47 0 88.5 -16.5t72 -47t48 -73.5t17.5 -97q0 -52 -17 -97t-48.5 -78.5t-76.5 -52.5t-100 -19q-118 0 -185 90t-67 263q0 84 16.5 154.5t51.5 121.5
q39 58 96 84.5t128 26.5q52 0 93.5 -13t70.5 -34zM150 238q0 -34 10 -64.5t29 -54t47.5 -37t65.5 -13.5q67 0 105.5 44t38.5 116q0 33 -9 62t-27 51t-46 34.5t-66 12.5q-67 0 -107.5 -40t-40.5 -111z" />
    <glyph glyph-name="seven" unicode="7" 
d="M534 642l-331 -642h-98l328 630h-389v84h490v-72z" />
    <glyph glyph-name="eight" unicode="8" 
d="M288 68q74 0 112 37.5t38 102.5q0 60 -35.5 96.5t-114.5 36.5t-115 -38t-36 -98q0 -64 39 -100.5t112 -36.5zM288 419q24 0 47.5 5.5t41.5 18.5t29.5 34.5t11.5 53.5q0 31 -11 53t-29 35.5t-41.5 20t-48.5 6.5t-48.5 -6.5t-41.5 -20t-29 -35.5t-11 -53q0 -32 11 -53.5
t29.5 -34.5t42 -18.5t47.5 -5.5zM288 -13q-57 0 -102.5 16t-77 44.5t-48.5 67.5t-17 84q0 58 29.5 108t95.5 78q-48 22 -75.5 62.5t-27.5 95.5q0 43 17.5 77t47.5 58t70.5 36.5t87.5 12.5t87.5 -12.5t70.5 -36.5t47 -58t17 -77q0 -55 -27.5 -95.5t-75.5 -62.5
q67 -28 96.5 -78t29.5 -107q0 -46 -17 -85t-48.5 -67.5t-77 -44.5t-102.5 -16z" />
    <glyph glyph-name="nine" unicode="9" 
d="M112 107q28 -21 60 -30t66 -9q55 0 93 21.5t62 59t35 87t11 105.5q-23 -41 -70 -68t-110 -27q-47 0 -88 16.5t-71 47t-47 73.5t-17 96q0 52 17 97.5t48.5 79t76 52.5t100.5 19q118 0 185 -90.5t67 -267.5q0 -81 -16 -150.5t-51 -121.5q-42 -60 -100 -85t-123 -25
q-54 0 -97.5 13.5t-71.5 32.5zM426 479q0 34 -10 64.5t-29 53t-47.5 35.5t-64.5 13q-69 0 -107 -45.5t-38 -115.5q0 -34 9 -63t27.5 -50.5t46 -33.5t64.5 -12q69 0 109 42t40 112z" />
    <glyph glyph-name="colon" unicode=":" horiz-adv-x="294" 
d="M95 0v105h105v-105h-105zM95 414v105h105v-105h-105z" />
    <glyph glyph-name="semicolon" unicode=";" horiz-adv-x="294" 
d="M200 26q0 -50 -20.5 -88.5t-58.5 -73.5l-31 32q28 24 42 51t14 51v2h-52v105h106v-79zM94 414v105h106v-105h-106z" />
    <glyph glyph-name="less" unicode="&#x3c;" 
d="M398 -12l-272 272l272 273l52 -51l-221 -222l221 -221z" />
    <glyph glyph-name="equal" unicode="=" 
d="M30 320v74h515v-74h-515zM30 125v73h515v-73h-515z" />
    <glyph glyph-name="greater" unicode="&#x3e;" 
d="M176 -12l-50 51l221 221l-221 222l50 51l274 -273z" />
    <glyph glyph-name="question" unicode="?" horiz-adv-x="493" 
d="M449 539q0 -44 -14.5 -75t-37 -55t-48 -43.5t-48 -40t-37 -44.5t-14.5 -57v-22h-86v14q0 44 14.5 76.5t35.5 58t46.5 46.5t46.5 42t35.5 45t14.5 56q0 45 -30.5 75.5t-92.5 30.5q-46 0 -83.5 -18.5t-71.5 -51.5l-49 63q42 38 94 63t117 25q45 0 83.5 -13t66 -37.5
t43 -59.5t15.5 -78zM156 0v105h105v-105h-105z" />
    <glyph glyph-name="at" unicode="@" horiz-adv-x="841" 
d="M535 223q-25 -36 -59.5 -53t-75.5 -17q-39 0 -70.5 15t-53.5 41t-34 62t-12 77t12 76t34.5 61t54 41t71.5 15q34 0 63.5 -12.5t54.5 -42.5v47h72v-261q0 -27 12.5 -45t45.5 -18q48 0 71 39.5t23 102.5q0 67 -23 125t-64.5 101t-100 68t-129.5 25q-72 0 -130.5 -25.5
t-100.5 -69.5t-65 -102.5t-23 -123.5q0 -66 23 -124t65 -101.5t100.5 -68.5t129.5 -25q42 0 82.5 10t75.5 31l28 -50q-42 -23 -88.5 -35.5t-100.5 -12.5q-83 0 -153 29t-120.5 80t-78.5 119.5t-28 147.5q0 78 28 147t78.5 120.5t121 81t154.5 29.5q85 0 155 -29.5t120 -80
t77.5 -117.5t27.5 -142q0 -93 -43 -147.5t-115 -54.5q-32 0 -63.5 14t-48.5 53zM520 348q0 27 -7 50t-21 40.5t-34 27.5t-47 10q-26 0 -46 -10t-33 -27.5t-19.5 -40.5t-6.5 -50q0 -54 26.5 -91.5t79.5 -37.5q27 0 47 10t33.5 27.5t20.5 41t7 50.5z" />
    <glyph glyph-name="A" unicode="A" horiz-adv-x="678" 
d="M565 0l-75 205h-307l-76 -205h-96l276 714h105l276 -714h-103zM339 627l-127 -341h248z" />
    <glyph glyph-name="B" unicode="B" horiz-adv-x="684" 
d="M630 206q0 -43 -14.5 -80.5t-44 -65.5t-74.5 -44t-105 -16h-304v714h283q111 0 170.5 -45.5t59.5 -126.5q0 -55 -25 -93.5t-66 -61.5q60 -25 90 -72t30 -109zM510 528q0 54 -35 78.5t-106 24.5h-191v-215h201q66 0 98.5 30.5t32.5 81.5zM536 211q0 54 -33 89.5t-102 35.5
h-223v-253h211q71 0 109 33.5t38 94.5z" />
    <glyph glyph-name="C" unicode="C" horiz-adv-x="693" 
d="M585 537q-33 51 -83.5 78.5t-116.5 27.5q-56 0 -101 -20.5t-76.5 -58t-48.5 -90.5t-17 -117q0 -65 17 -117.5t49.5 -90t78 -58t102.5 -20.5q66 0 114 27.5t85 79.5l72 -50q-49 -69 -116 -105t-155 -36q-78 0 -141 27.5t-107.5 76.5t-69 117t-24.5 149q0 80 24 148
t68.5 117.5t106.5 77t139 27.5q88 0 156.5 -36.5t114.5 -103.5z" />
    <glyph glyph-name="D" unicode="D" horiz-adv-x="742" 
d="M357 84q59 0 104 19.5t75.5 55.5t46 86t15.5 112t-15.5 112.5t-46 86t-75.5 55t-104 19.5h-179v-546h179zM88 0v714h269q81 0 143.5 -27t105 -74.5t65 -113t22.5 -142.5t-22.5 -142t-65 -113t-105 -75t-143.5 -27h-269z" />
    <glyph glyph-name="E" unicode="E" horiz-adv-x="633" 
d="M88 0v714h482v-84h-392v-214h349v-80h-349v-252h402v-84h-492z" />
    <glyph glyph-name="F" unicode="F" horiz-adv-x="598" 
d="M178 630v-214h348v-80h-348v-336h-90v714h480v-84h-390z" />
    <glyph glyph-name="G" unicode="G" horiz-adv-x="748" 
d="M389 643q-58 0 -103.5 -21t-77.5 -58.5t-49 -90t-17 -115.5q0 -65 17 -117.5t48.5 -90.5t77 -58.5t101.5 -20.5q47 0 87.5 15t71 43.5t48.5 70.5t21 95h-190v81h280q5 -22 5 -50q0 -69 -21.5 -130.5t-63 -108t-101.5 -73.5t-137 -27t-140 28t-107 78t-68 117.5t-24 147.5
t24.5 148t69 117t108 76.5t141.5 27.5q91 0 158.5 -37.5t112.5 -101.5l-74 -49q-32 50 -82 77t-116 27z" />
    <glyph glyph-name="H" unicode="H" horiz-adv-x="747" 
d="M569 0v336h-391v-336h-90v714h90v-295h391v295h90v-714h-90z" />
    <glyph glyph-name="I" unicode="I" horiz-adv-x="266" 
d="M88 0v714h90v-714h-90z" />
    <glyph glyph-name="J" unicode="J" horiz-adv-x="495" 
d="M324 714h90v-473q0 -52 -7.5 -94t-30.5 -74q-29 -45 -74.5 -65.5t-101.5 -20.5q-61 0 -110.5 25.5t-78.5 75.5l71 48q23 -38 55 -52.5t64 -14.5q68 0 95.5 42t27.5 111v492z" />
    <glyph glyph-name="K" unicode="K" horiz-adv-x="663" 
d="M549 0l-243 351l-128 -148v-203h-90v714h90v-391l344 391h113l-266 -296l294 -418h-114z" />
    <glyph glyph-name="L" unicode="L" horiz-adv-x="566" 
d="M88 0v714h90v-630h375v-84h-465z" />
    <glyph glyph-name="M" unicode="M" horiz-adv-x="889" 
d="M712 0v603l-230 -603h-75l-231 604v-604h-88v714h135l222 -591l225 591h131v-714h-89z" />
    <glyph glyph-name="N" unicode="N" horiz-adv-x="742" 
d="M555 0l-378 590v-590h-89v714h111l367 -570v570h88v-714h-99z" />
    <glyph glyph-name="O" unicode="O" horiz-adv-x="772" 
d="M726 357q0 -79 -24 -146.5t-68.5 -117t-107 -78t-140.5 -28.5t-140.5 28.5t-107 78t-68.5 117t-24 146.5t24 147t68.5 117.5t107 77.5t140.5 28t140.5 -28t107 -77.5t68.5 -117.5t24 -147zM631 357q0 63 -17 115t-48.5 89.5t-77 58.5t-102.5 21t-102.5 -21t-77 -58.5
t-48 -89.5t-16.5 -115t16.5 -115.5t48 -90t77 -58t102.5 -20.5t102.5 20.5t77 58t48.5 90t17 115.5z" />
    <glyph glyph-name="P" unicode="P" horiz-adv-x="639" 
d="M367 374q77 0 113.5 34.5t36.5 93.5q0 58 -36.5 93t-113.5 35h-189v-256h189zM178 290v-290h-90v714h278q60 0 105.5 -15.5t76.5 -43t47 -66.5t16 -87t-16 -87t-47 -66.5t-76.5 -43t-105.5 -15.5h-188z" />
    <glyph glyph-name="Q" unicode="Q" horiz-adv-x="772" 
d="M726 357q0 -89 -30 -162t-84 -124l53 -65l-61 -52l-58 72q-69 -39 -160 -39q-78 0 -140.5 28.5t-107 78t-68.5 117t-24 146.5t24 147t68.5 117.5t107 77.5t140.5 28t140.5 -28t107 -77.5t68.5 -117.5t24 -147zM631 357q0 63 -17 115.5t-48.5 90t-77 58t-102.5 20.5
t-102.5 -20.5t-77 -58t-48 -90t-16.5 -115.5t16.5 -115.5t48 -90t77 -58t102.5 -20.5q59 0 103 22l-83 104l61 49l86 -109q38 38 58 93.5t20 124.5z" />
    <glyph glyph-name="R" unicode="R" horiz-adv-x="668" 
d="M529 0l-153 294h-198v-294h-90v714h304q53 0 95.5 -14.5t72.5 -41t46.5 -64.5t16.5 -85q0 -76 -39.5 -127t-113.5 -74l162 -308h-103zM529 502q0 59 -38 93.5t-102 34.5h-211v-256h209q67 0 104.5 35.5t37.5 92.5z" />
    <glyph glyph-name="S" unicode="S" horiz-adv-x="610" 
d="M296 645q-31 0 -58 -7t-47.5 -21t-32.5 -34.5t-12 -47.5q0 -36 23 -58t61 -36q28 -11 63.5 -20t73 -20t73 -26t63.5 -38t45 -55.5t17 -78.5q0 -47 -18 -86.5t-51.5 -68t-82 -45t-108.5 -16.5q-90 0 -160 36t-111 100l73 51q18 -30 42 -50t51 -32t55 -17.5t55 -5.5
q75 0 119.5 34.5t44.5 92.5q0 30 -12.5 50.5t-35.5 34.5t-55 23.5t-70 19.5q-44 10 -88 23.5t-79 36.5t-57 57.5t-22 87.5q0 49 20 86t53.5 62t78 37.5t93.5 12.5q77 0 141 -30t108 -88l-69 -51q-32 41 -79 64t-105 23z" />
    <glyph glyph-name="T" unicode="T" horiz-adv-x="621" 
d="M355 630v-630h-90v630h-241v84h572v-84h-241z" />
    <glyph glyph-name="U" unicode="U" horiz-adv-x="712" 
d="M631 259q0 -62 -21 -112.5t-57.5 -86t-87 -54.5t-110.5 -19t-110.5 19t-87 54.5t-57 86t-20.5 112.5v455h90v-455q0 -85 49 -135.5t136 -50.5q43 0 77.5 13.5t58.5 37.5t37 58.5t13 76.5v455h90v-455z" />
    <glyph glyph-name="V" unicode="V" horiz-adv-x="631" 
d="M620 714l-255 -714h-99l-256 714h99l206 -610l211 610h94z" />
    <glyph glyph-name="W" unicode="W" horiz-adv-x="953" 
d="M741 0h-95l-170 578l-170 -578h-96l-185 714h96l142 -578l172 578h84l172 -580l142 580h95z" />
    <glyph glyph-name="X" unicode="X" horiz-adv-x="650" 
d="M532 0l-208 303l-209 -303h-109l262 371l-242 343h110l189 -274l190 274h109l-242 -343l261 -371h-111z" />
    <glyph glyph-name="Y" unicode="Y" horiz-adv-x="613" 
d="M353 298v-298h-92v298l-255 416h107l196 -328l194 328h105z" />
    <glyph glyph-name="Z" unicode="Z" horiz-adv-x="621" 
d="M40 0v81l412 549h-396v84h513v-79l-413 -551h422v-84h-538z" />
    <glyph glyph-name="bracketleft" unicode="[" horiz-adv-x="283" 
d="M77 -134v934h194v-69h-116v-796h116v-69h-194z" />
    <glyph glyph-name="backslash" unicode="\" horiz-adv-x="350" 
d="M250 0l-220 714h69l220 -714h-69z" />
    <glyph glyph-name="bracketright" unicode="]" horiz-adv-x="284" 
d="M12 -134v69h117v796h-117v69h195v-934h-195z" />
    <glyph glyph-name="asciicircum" unicode="^" 
d="M501 433l-212 214l-215 -214l-51 52l229 229h71l229 -229z" />
    <glyph glyph-name="underscore" unicode="_" horiz-adv-x="581" 
d="M-8 -125v50h597v-50h-597z" />
    <glyph glyph-name="grave" unicode="`" horiz-adv-x="324" 
d="M209 594h-71l-108 140l64 37z" />
    <glyph glyph-name="a" unicode="a" horiz-adv-x="537" 
d="M382 0v64q-54 -76 -160 -76q-82 0 -131 41.5t-49 116.5q0 46 18 74.5t44 45.5t56.5 24.5t55.5 11.5q29 4 58.5 8.5t53 13t38 23t14.5 38.5q0 20 -10 33.5t-26 22t-36 12t-40 3.5q-39 0 -84 -13t-80 -41l-38 64q40 29 93.5 47t113.5 18q85 0 138 -39t53 -119v-373h-82z
M380 281q-27 -20 -67.5 -28t-79.5 -15q-23 -4 -42 -9.5t-33 -15t-22 -24.5t-8 -38q0 -24 8.5 -41t23 -27.5t34 -15.5t41.5 -5q28 0 54 8t46 25t32.5 44t12.5 65v77z" />
    <glyph glyph-name="b" unicode="b" horiz-adv-x="617" 
d="M161 714v-276q32 49 79 71t98 22q54 0 97.5 -20.5t74 -57t47 -86t16.5 -107.5t-16.5 -107.5t-47.5 -86t-74 -57.5t-97 -21q-52 0 -98.5 22.5t-78.5 70.5v-81h-84v714h84zM161 259q0 -41 10.5 -76t31.5 -61t51.5 -41t70.5 -15t69.5 15t49.5 41t30 61t10 76q0 40 -10 75.5
t-29.5 62t-49.5 42t-70 15.5t-70.5 -15.5t-51.5 -42t-31.5 -62t-10.5 -75.5z" />
    <glyph glyph-name="c" unicode="c" horiz-adv-x="531" 
d="M434 380q-23 35 -57 54.5t-79 19.5q-38 0 -68.5 -14.5t-52 -40t-33 -61.5t-11.5 -78q0 -43 11.5 -78.5t33 -61t52 -40t68.5 -14.5q48 0 82 20.5t57 53.5l62 -47q-33 -47 -85 -76t-121 -29q-57 0 -103 20.5t-78.5 57t-50 86.5t-17.5 108t17.5 107.5t50 86t78.5 57
t103 20.5q70 0 121 -29.5t83 -77.5z" />
    <glyph glyph-name="d" unicode="d" horiz-adv-x="617" 
d="M456 0v81q-32 -49 -79 -71t-99 -22q-54 0 -97.5 20.5t-73.5 57t-46.5 86t-16.5 107.5t16.5 107.5t47 86t73.5 57.5t97 21q53 0 99.5 -22.5t78.5 -70.5v276h84v-714h-84zM456 260q0 40 -10.5 75.5t-31.5 62t-52 41.5t-71 15q-39 0 -69 -15t-49.5 -41.5t-29.5 -62
t-10 -75.5t10 -75.5t29.5 -61.5t49 -41.5t69.5 -15.5t71 15.5t52 41.5t31.5 61.5t10.5 75.5z" />
    <glyph glyph-name="e" unicode="e" horiz-adv-x="570" 
d="M442 311q-2 38 -15 65.5t-34 45.5t-47.5 27t-55.5 9q-67 0 -108.5 -41t-46.5 -106h307zM44 258q0 58 17 107.5t48.5 86.5t77.5 58t104 21q55 0 99 -18.5t75 -51.5t47.5 -78t16.5 -98q0 -12 -0.5 -22t-1.5 -18h-394q1 -85 48.5 -132t121.5 -47q44 0 82 17.5t66 52.5
l57 -52q-37 -45 -89 -70.5t-121 -25.5q-60 0 -107.5 20.5t-80 56.5t-49.5 85.5t-17 107.5z" />
    <glyph glyph-name="f" unicode="f" horiz-adv-x="339" 
d="M309 644q-6 3 -19.5 6.5t-33.5 3.5q-23 0 -42 -10t-19 -42v-83h119v-73h-119v-446h-84v446h-87v73h87v89q0 37 13 59.5t32.5 35.5t43.5 17.5t46 4.5q23 0 42 -3t33 -8z" />
    <glyph glyph-name="g" unicode="g" horiz-adv-x="618" 
d="M457 113q-13 -23 -32.5 -40.5t-43.5 -29t-51 -17.5t-54 -6q-51 0 -93 19t-72.5 53t-47.5 80.5t-17 101.5q0 56 17.5 103t48.5 81.5t74 53.5t93 19q55 0 103.5 -23.5t74.5 -69.5v81h85v-446q0 -48 -10.5 -91.5t-42.5 -81.5q-38 -45 -91 -64.5t-116 -19.5q-60 0 -114 16
t-95 47l46 66q30 -25 72 -38.5t90 -13.5q85 0 130.5 42.5t45.5 122.5v55zM457 277q0 37 -10.5 69.5t-30.5 56.5t-51 38t-71 14q-41 0 -70.5 -14t-49.5 -38.5t-29.5 -57t-9.5 -68.5q0 -37 10 -70t29.5 -57.5t49.5 -39t70 -14.5t70.5 14t51 39t31 57.5t10.5 70.5z" />
    <glyph glyph-name="h" unicode="h" horiz-adv-x="583" 
d="M77 0v714h84v-273q28 41 72 65.5t101 24.5q81 0 129.5 -50.5t48.5 -144.5v-336h-84v317q0 27 -5 51.5t-18 43t-34.5 30t-55.5 11.5q-33 0 -61 -12t-49 -33.5t-32.5 -51.5t-11.5 -67v-289h-84z" />
    <glyph glyph-name="i" unicode="i" horiz-adv-x="238" 
d="M77 624v90h84v-90h-84zM77 0v519h84v-519h-84z" />
    <glyph glyph-name="j" unicode="j" horiz-adv-x="238" 
d="M77 625v89h84v-89h-84zM161 -45q0 -44 -12.5 -70.5t-31.5 -41.5t-42 -20t-44 -5q-17 0 -34.5 2.5t-31.5 8.5l15 69q5 -3 14.5 -6t25.5 -3q12 0 22 3t18 11t12.5 22.5t4.5 37.5v556h84v-564z" />
    <glyph glyph-name="k" unicode="k" horiz-adv-x="552" 
d="M415 519h106l-204 -213l230 -306h-106l-183 251l-97 -102v-149h-84v714h84v-466z" />
    <glyph glyph-name="l" unicode="l" horiz-adv-x="243" 
d="M79 0v714h84v-714h-84z" />
    <glyph glyph-name="m" unicode="m" horiz-adv-x="894" 
d="M408 0v322q0 26 -5 49.5t-17 41.5t-32.5 29t-51.5 11q-30 0 -56 -11.5t-45 -32t-29.5 -49.5t-10.5 -64v-296h-84v519h84v-75q26 40 67.5 63.5t94.5 23.5q54 0 93.5 -25.5t57.5 -73.5q26 41 72 70t105 29q78 0 124.5 -49t46.5 -140v-342h-84v322q0 26 -5 49.5t-17 41.5
t-32.5 29t-51.5 11q-30 0 -55.5 -11.5t-44.5 -32t-29.5 -49.5t-10.5 -64v-296h-84z" />
    <glyph glyph-name="n" unicode="n" horiz-adv-x="583" 
d="M77 0v519h84v-78q28 41 72 65.5t101 24.5q81 0 129.5 -50.5t48.5 -144.5v-336h-84v317q0 27 -5 51.5t-18 43t-34.5 30t-55.5 11.5q-33 0 -61 -12t-49 -33.5t-32.5 -51.5t-11.5 -67v-289h-84z" />
    <glyph glyph-name="o" unicode="o" horiz-adv-x="584" 
d="M540 259q0 -58 -17.5 -107.5t-49.5 -86t-78.5 -57t-103.5 -20.5t-102.5 20.5t-78 57t-49.5 86t-17 107.5q0 59 17 109t49.5 86t78 56.5t102.5 20.5t103.5 -20.5t78.5 -56.5t49.5 -86t17.5 -109zM450 259q0 42 -10.5 77.5t-31 62t-50 41.5t-67.5 15t-67 -15t-49.5 -41.5
t-31 -62t-10.5 -77.5q0 -41 10.5 -76.5t31 -62t49.5 -41.5t67 -15t67.5 15t50 41.5t31 62t10.5 76.5z" />
    <glyph glyph-name="p" unicode="p" horiz-adv-x="617" 
d="M161 519v-81q32 49 79 71t98 22q54 0 97.5 -20.5t74 -57t47 -86t16.5 -107.5t-16.5 -107.5t-47.5 -86t-74 -57.5t-97 -21q-52 0 -98.5 22.5t-78.5 70.5v-255h-84v693h84zM161 259q0 -41 10.5 -76t31.5 -61t51.5 -41t70.5 -15t69.5 15t49.5 41.5t30 61.5t10 75t-10 76
t-29.5 62t-49.5 41.5t-70 15.5t-70.5 -15.5t-51.5 -41.5t-31.5 -62t-10.5 -76z" />
    <glyph glyph-name="q" unicode="q" horiz-adv-x="617" 
d="M456 -174v255q-32 -49 -79 -71t-99 -22q-54 0 -97.5 20.5t-73.5 57t-46.5 86t-16.5 107.5t16.5 107.5t47 86t73.5 57.5t97 21q53 0 99.5 -22.5t78.5 -70.5v81h84v-693h-84zM456 260q0 40 -10.5 75.5t-31.5 62t-52 41.5t-71 15q-39 0 -69 -15t-49.5 -41.5t-29.5 -62
t-10 -75.5t10 -75.5t29.5 -61.5t49 -41.5t69.5 -15.5t71 15.5t52 41.5t31.5 61.5t10.5 75.5z" />
    <glyph glyph-name="r" unicode="r" horiz-adv-x="383" 
d="M362 434q-11 7 -28 10.5t-34 3.5q-28 0 -53 -11.5t-44 -34t-30.5 -56.5t-11.5 -79v-267h-84v519h84v-76q22 38 62.5 62t88.5 24q23 0 41.5 -5.5t28.5 -12.5z" />
    <glyph glyph-name="s" unicode="s" horiz-adv-x="495" 
d="M91 123q32 -33 71.5 -47t85.5 -14q54 0 87.5 20.5t33.5 64.5q0 19 -8 31.5t-25.5 21.5t-44.5 15.5t-65 14.5q-33 7 -64.5 16.5t-55.5 26.5t-39 42.5t-15 63.5q0 40 16 68.5t43 47t62 27.5t73 9q68 0 117 -23.5t81 -56.5l-51 -55q-24 27 -62.5 44.5t-87.5 17.5
q-21 0 -40.5 -4t-35.5 -12t-25.5 -22t-9.5 -33q0 -20 10.5 -33t27.5 -21.5t39 -14t46 -10.5q39 -8 74.5 -18t63 -27t43.5 -43.5t16 -66.5q0 -74 -54.5 -119.5t-151.5 -45.5q-66 0 -118 21.5t-89 58.5z" />
    <glyph glyph-name="t" unicode="t" horiz-adv-x="367" 
d="M349 11q-16 -11 -40.5 -16.5t-52.5 -5.5q-65 0 -102 34.5t-37 113.5v309h-97v73h97v195h84v-195h137v-73h-137v-297q0 -46 18 -65t51 -19q18 0 33.5 4.5t24.5 11.5z" />
    <glyph glyph-name="u" unicode="u" horiz-adv-x="582" 
d="M505 519v-519h-84v78q-27 -41 -71.5 -65.5t-101.5 -24.5q-81 0 -129.5 51t-48.5 144v336h85v-316q0 -27 5 -51.5t17.5 -43.5t34 -30t55.5 -11q33 0 61 11.5t49 33t32.5 51.5t11.5 67v289h84z" />
    <glyph glyph-name="v" unicode="v" horiz-adv-x="517" 
d="M304 0h-90l-201 519h95l152 -421l152 421h92z" />
    <glyph glyph-name="w" unicode="w" horiz-adv-x="762" 
d="M596 0h-93l-122 407l-123 -407h-93l-139 519h89l105 -410l123 410h80l122 -409l104 409h87z" />
    <glyph glyph-name="x" unicode="x" horiz-adv-x="520" 
d="M404 0l-144 213l-144 -213h-102l194 271l-178 248h103l130 -190l127 190h100l-176 -248l192 -271h-102z" />
    <glyph glyph-name="y" unicode="y" horiz-adv-x="518" 
d="M87 -103q16 -8 33 -8q15 0 27 5.5t23 18t22 34.5t24 55l-204 517h95l153 -412l152 412h92l-210 -532q-18 -47 -35 -79.5t-36 -53t-41.5 -29.5t-51.5 -9q-23 0 -38.5 3.5t-23.5 7.5z" />
    <glyph glyph-name="z" unicode="z" horiz-adv-x="494" 
d="M40 0v69l294 375h-282v75h391v-71l-291 -373h300v-75h-412z" />
    <glyph glyph-name="braceleft" unicode="{" horiz-adv-x="308" 
d="M262 -134q-64 0 -104 44t-40 127v162q0 44 -17.5 72.5t-61.5 28.5h-16v66h16q44 0 61.5 28.5t17.5 72.5v162q0 83 40 127t104 44h34v-67h-21q-45 0 -63 -28t-18 -73v-160q0 -108 -81 -139q81 -31 81 -139v-160q0 -45 18 -73t63 -28h21v-67h-34z" />
    <glyph glyph-name="bar" unicode="|" horiz-adv-x="218" 
d="M77 -48v810h64v-810h-64z" />
    <glyph glyph-name="braceright" unicode="}" horiz-adv-x="310" 
d="M271 300q-47 0 -65 -28.5t-18 -72.5v-162q0 -83 -42 -127t-110 -44h-24v67h13q48 0 67 28t19 73v160q0 55 21.5 89.5t62.5 49.5q-41 15 -62.5 49.5t-21.5 89.5v160q0 45 -19 73t-67 28h-13v67h24q68 0 110 -44t42 -127v-162q0 -44 18 -72.5t65 -28.5h17v-66h-17z" />
    <glyph glyph-name="asciitilde" unicode="~" 
d="M34 250q11 15 25.5 30.5t31.5 29t38 22t45 8.5q27 0 53 -9t63 -25q36 -16 61 -25t51 -9q31 0 57 14t49 35l34 -34q-11 -15 -25.5 -31t-31.5 -29.5t-38 -22t-46 -8.5q-27 0 -52.5 9t-62.5 25q-36 16 -61.5 24.5t-51.5 8.5q-30 0 -56.5 -14t-48.5 -35z" />
    <glyph glyph-name="uni00A0" unicode="&#xa0;" horiz-adv-x="270" 
 />
    <glyph glyph-name="exclamdown" unicode="&#xa1;" horiz-adv-x="254" 
d="M173 -22v-152h-92v152l24 335h45zM179 519v-105h-104v105h104z" />
    <glyph glyph-name="cent" unicode="&#xa2;" 
d="M448 379q-40 64 -110 74v-388q38 6 66 26.5t48 49.5l63 -48q-29 -42 -73.5 -70t-103.5 -34v-83h-54v84q-52 4 -93.5 26.5t-70.5 58.5t-44.5 83t-15.5 102q0 54 15.5 101.5t44.5 83t70.5 57.5t93.5 27v83h54v-82q59 -7 103 -35t73 -71zM147 260q0 -78 36 -130t101 -63v386
q-64 -11 -100.5 -63t-36.5 -130z" />
    <glyph glyph-name="sterling" unicode="&#xa3;" 
d="M524 0h-491v68q46 23 76 65t30 90q0 20 -5 42.5t-13 45.5h-88v65h65q-15 42 -22.5 71t-7.5 59q0 51 17 92t48 69.5t74 44t95 15.5q78 0 135 -33.5t97 -96.5l-75 -46q-23 41 -62 65.5t-93 24.5q-30 0 -56 -8.5t-45 -26t-30 -44t-11 -63.5q0 -29 7.5 -58t21.5 -65h216v-65
h-198q5 -14 8.5 -35.5t3.5 -43.5q0 -32 -6.5 -56t-15.5 -42t-19.5 -30.5t-18.5 -21.5h363v-82z" />
    <glyph glyph-name="currency" unicode="&#xa4;" 
d="M165 304q0 -26 9.5 -48.5t26 -39t39 -26t48.5 -9.5q25 0 47.5 9.5t39 26t26 39t9.5 48.5q0 25 -9.5 47.5t-26 39t-39 26t-47.5 9.5q-26 0 -48.5 -9.5t-39 -26t-26 -39t-9.5 -47.5zM99 304q0 29 8.5 55t22.5 49l-71 72l53 53l71 -73q44 32 105 32q59 0 103 -32l72 73
l52 -53l-71 -72q15 -23 23.5 -49t8.5 -55t-8.5 -55.5t-23.5 -48.5l71 -71l-52 -54l-72 72q-22 -15 -48 -23.5t-55 -8.5t-56 8.5t-49 23.5l-71 -72l-53 54l71 70q-14 23 -22.5 49.5t-8.5 55.5z" />
    <glyph glyph-name="yen" unicode="&#xa5;" 
d="M375 372h147v-54h-175l-15 -27v-67h190v-54h-190v-170h-90v170h-191v54h191v67l-16 27h-175v54h148l-174 343h104l161 -342l157 342h104z" />
    <glyph glyph-name="brokenbar" unicode="&#xa6;" horiz-adv-x="303" 
d="M121 448v314h59v-314h-59zM121 -60v314h59v-314h-59z" />
    <glyph glyph-name="section" unicode="&#xa7;" horiz-adv-x="525" 
d="M484 215q0 -55 -18 -102t-51 -81.5t-81 -54.5t-108 -20q-49 0 -93 14.5t-79 41.5l48 64q24 -21 55 -33t71 -12q98 0 145 76q-20 13 -42.5 26t-42.5 26q-41 25 -85.5 53.5t-81 65.5t-60 84t-23.5 109q0 54 18 100.5t52 81t81.5 54t107.5 19.5q51 0 94.5 -14t77.5 -42
l-49 -63q-23 21 -54 32.5t-70 11.5q-99 0 -146 -75q61 -39 121 -74.5t107.5 -76.5t76.5 -91.5t29 -119.5zM405 214q0 40 -13 71.5t-37.5 59.5t-60.5 54.5t-81 58.5l-88 60q-4 -11 -5 -21.5t-1 -17.5q0 -44 11.5 -76.5t35.5 -60t60 -54.5t85 -60l88 -60q4 17 5 27.5t1 18.5z
" />
    <glyph glyph-name="dieresis" unicode="&#xa8;" horiz-adv-x="354" 
d="M43 618v79h78v-79h-78zM234 618v79h77v-79h-77z" />
    <glyph glyph-name="copyright" unicode="&#xa9;" horiz-adv-x="832" 
d="M595 249q-29 -48 -75.5 -75t-103.5 -27q-43 0 -81 16.5t-66 45t-44.5 66.5t-16.5 82t16.5 82.5t44.5 67t66 45t81 16.5q56 0 102 -26.5t75 -74.5l-52 -35q-20 35 -53 54.5t-71 19.5q-30 0 -57 -12t-46.5 -32t-31 -47t-11.5 -58q0 -30 11.5 -57t31 -47.5t46.5 -32
t57 -11.5q39 0 72 20t53 54zM40 357q0 78 29.5 146.5t80.5 119.5t119.5 80.5t146.5 29.5t146.5 -29.5t119.5 -80.5t80.5 -119.5t29.5 -146.5t-29.5 -146.5t-80.5 -119.5t-119.5 -80.5t-146.5 -29.5t-146.5 29.5t-119.5 80.5t-80.5 119.5t-29.5 146.5zM90 357
q0 -68 25.5 -127t70 -103.5t103.5 -70t127 -25.5q67 0 126.5 25.5t104 70t70 103.5t25.5 127q0 67 -25.5 126.5t-70 104t-104 70t-126.5 25.5q-68 0 -127 -25.5t-103.5 -70t-70 -104t-25.5 -126.5z" />
    <glyph glyph-name="ordfeminine" unicode="&#xaa;" horiz-adv-x="400" 
d="M275 384v44q-22 -29 -51 -40t-59 -11q-54 0 -86.5 27t-32.5 78q0 36 16.5 55t42 28.5t54.5 13t54.5 7t42 11.5t16.5 27q0 25 -23.5 34.5t-52.5 9.5q-27 0 -54.5 -8.5t-50.5 -25.5l-31 45q31 22 66 33.5t74 11.5q58 0 96.5 -26t38.5 -81v-233h-60zM272 561
q-15 -14 -33.5 -18.5t-51.5 -8.5q-16 -2 -30 -4.5t-24.5 -8t-17 -14.5t-6.5 -24q0 -28 20 -39.5t47 -11.5q18 0 35.5 5t31 15t21.5 25.5t8 37.5v46z" />
    <glyph glyph-name="guillemotleft" unicode="&#xab;" horiz-adv-x="494" 
d="M50 301l149 205l52 -41l-129 -178l129 -178l-52 -40l-149 204v28zM244 301l149 205l51 -41l-129 -178l129 -178l-51 -40l-149 204v28z" />
    <glyph glyph-name="logicalnot" unicode="&#xac;" 
d="M448 67v200h-401v74h474v-274h-73z" />
    <glyph glyph-name="uni00AD" unicode="&#xad;" horiz-adv-x="382" 
d="M62 231v73h257v-73h-257z" />
    <glyph glyph-name="registered" unicode="&#xae;" horiz-adv-x="388" 
d="M346 573q0 -31 -12 -58.5t-32.5 -48t-48.5 -32.5t-59 -12q-32 0 -59.5 12t-48 32.5t-32.5 48t-12 58.5q0 32 12 60t32.5 48.5t48 32.5t59.5 12q31 0 59 -12t48.5 -32.5t32.5 -48.5t12 -60zM325 573q0 28 -10.5 52t-28 42t-41.5 28t-51 10t-51 -10t-42 -28t-28 -42
t-10 -52q0 -27 10 -50.5t28 -41.5t42 -28t51 -10t51 10t41.5 28t28 41.5t10.5 50.5zM269 491h-34l-35 62h-38v-62h-31v168h77q24 0 40 -14.5t16 -38.5q0 -18 -9.5 -30.5t-24.5 -17.5zM232 605q0 12 -7 19.5t-18 7.5h-45v-53h45q11 0 18 7.5t7 18.5z" />
    <glyph glyph-name="macron" unicode="&#xaf;" horiz-adv-x="347" 
d="M38 627v61h269v-61h-269z" />
    <glyph glyph-name="degree" unicode="&#xb0;" horiz-adv-x="377" 
d="M338 576q0 -31 -12 -58t-32 -47.5t-47 -32.5t-58 -12t-58.5 12t-47.5 32.5t-32 47.5t-12 58t12 58t32 47.5t47.5 32.5t58.5 12t58 -12t47 -32.5t32 -47.5t12 -58zM282 576q0 19 -7.5 35.5t-20.5 29.5t-29.5 20.5t-35.5 7.5t-36 -7.5t-29.5 -20.5t-20 -29.5t-7.5 -35.5
t7.5 -36t20 -29.5t29.5 -20t36 -7.5t35.5 7.5t29.5 20t20.5 29.5t7.5 36z" />
    <glyph glyph-name="plusminus" unicode="&#xb1;" 
d="M32 0v74h511v-74h-511zM325 341v-218h-75v218h-218v74h218v219h75v-219h218v-74h-218z" />
    <glyph glyph-name="twosuperior" unicode="&#xb2;" horiz-adv-x="452" 
d="M60 380v9q0 46 40 88.5t103 89.5q23 18 41.5 32.5t32 28t21 28t7.5 31.5q0 32 -24 49t-59 17q-38 0 -66.5 -18t-45.5 -50l-57 33q26 45 69.5 71.5t103.5 26.5q68 0 111.5 -34t43.5 -94q0 -41 -21 -69.5t-54 -54.5q-21 -17 -44.5 -32t-45.5 -29.5t-39.5 -28.5t-27.5 -29
h241v-65h-330z" />
    <glyph glyph-name="threesuperior" unicode="&#xb3;" horiz-adv-x="452" 
d="M166 612l122 132h-214v64h302v-46l-107 -115q56 -5 92.5 -39t36.5 -89q0 -27 -10.5 -53.5t-32 -47.5t-54 -33.5t-76.5 -12.5q-64 0 -105.5 26t-65.5 68l56 34q17 -29 46 -47t68 -18q44 0 72 22t28 61q0 34 -22.5 55t-60.5 21q-27 0 -43 -12z" />
    <glyph glyph-name="acute" unicode="&#xb4;" horiz-adv-x="324" 
d="M230 771l64 -37l-108 -140h-71z" />
    <glyph glyph-name="mu" unicode="&#xb5;" 
d="M45 -174v693h84v-311q0 -69 28.5 -106t88.5 -37q31 0 58 10.5t47 31.5t32 51.5t12 71.5v289h84v-404q0 -28 8 -42t29 -14q6 0 14 1.5t12 4.5l10 -64q-11 -5 -26 -7t-26 -2q-39 0 -67 21.5t-31 65.5q-31 -48 -73.5 -69.5t-84.5 -21.5q-41 0 -70.5 16t-44.5 40v-218h-84z
" />
    <glyph glyph-name="paragraph" unicode="&#xb6;" horiz-adv-x="552" 
d="M425 -91v752h-65v-752h-61v398h-60q-44 0 -81 14.5t-64.5 41t-43 64t-15.5 83.5q0 47 16 84.5t44 64t65 41t79 14.5h236v-805h-50z" />
    <glyph glyph-name="periodcentered" unicode="&#xb7;" horiz-adv-x="255" 
d="M190 259q0 -26 -18.5 -44t-43.5 -18q-26 0 -44.5 18t-18.5 44t18.5 44.5t44.5 18.5q25 0 43.5 -18.5t18.5 -44.5z" />
    <glyph glyph-name="cedilla" unicode="&#xb8;" horiz-adv-x="324" 
d="M141 -188q-21 0 -42.5 3.5t-32.5 7.5v51q14 -9 34 -11.5t31 -2.5q30 0 44 11.5t14 27.5q0 8 -3.5 13t-8.5 8h-47v53q7 5 19.5 7t23.5 2q16 0 31.5 -5t27.5 -15t19.5 -25t7.5 -34q0 -42 -32.5 -66.5t-85.5 -24.5z" />
    <glyph glyph-name="onesuperior" unicode="&#xb9;" horiz-adv-x="367" 
d="M59 724l137 84h59v-428h-70v345l-91 -53z" />
    <glyph glyph-name="ordmasculine" unicode="&#xba;" horiz-adv-x="419" 
d="M379 552q0 -37 -12 -69t-34 -55t-53.5 -36.5t-70.5 -13.5t-70.5 13.5t-53 36.5t-33.5 55t-12 69t12 69t33.5 55t53 36t70.5 13t70.5 -13t53.5 -36t34 -55t12 -69zM313 552q0 48 -27 81t-77 33q-49 0 -76.5 -33t-27.5 -81t27.5 -81.5t76.5 -33.5q50 0 77 33.5t27 81.5z
" />
    <glyph glyph-name="guillemotright" unicode="&#xbb;" horiz-adv-x="494" 
d="M444 273l-149 -204l-52 40l129 178l-129 178l52 41l149 -205v-28zM250 273l-148 -204l-52 40l129 178l-129 178l52 41l148 -205v-28z" />
    <glyph glyph-name="onequarter" unicode="&#xbc;" horiz-adv-x="1044" 
d="M59 630l137 84h59v-428h-70v345l-91 -53zM302 0h-64l482 714h64zM928 97v-97h-72v97h-214v56l209 275h77v-271h63v-60h-63zM858 157v187l-149 -187h149z" />
    <glyph glyph-name="onehalf" unicode="&#xbd;" horiz-adv-x="1084" 
d="M59 630l137 84h59v-428h-70v345l-91 -53zM302 0h-64l482 714h64zM692 0v9q0 46 40 88.5t103 89.5q23 18 41.5 32.5t32 28t21 28t7.5 31.5q0 32 -24 49t-59 17q-38 0 -66.5 -18t-45.5 -50l-57 33q26 45 69.5 71.5t103.5 26.5q68 0 111.5 -34t43.5 -94q0 -41 -21 -69.5
t-54 -54.5q-21 -17 -44.5 -32t-45.5 -29.5t-39.5 -28.5t-27.5 -29h241v-65h-330z" />
    <glyph glyph-name="threequarters" unicode="&#xbe;" horiz-adv-x="1106" 
d="M354 0h-64l482 714h64zM990 97v-97h-72v97h-214v56l209 275h77v-271h63v-60h-63zM920 157v187l-149 -187h149zM166 518l122 132h-214v64h302v-46l-107 -115q56 -5 92.5 -39t36.5 -89q0 -27 -10.5 -53.5t-32 -47.5t-54 -33.5t-76.5 -12.5q-64 0 -105.5 26t-65.5 68l56 34
q17 -29 46 -47t68 -18q44 0 72 22t28 61q0 34 -22.5 55t-60.5 21q-27 0 -43 -12z" />
    <glyph glyph-name="questiondown" unicode="&#xbf;" horiz-adv-x="494" 
d="M344 519v-112h-112v112h112zM53 4q0 43 15 74.5t37.5 55.5t49 44t49 40t37.5 44t15 56v19h82v-14q0 -44 -14.5 -76t-36 -57t-46.5 -45.5t-46.5 -41.5t-36 -45t-14.5 -55q0 -45 31 -75.5t93 -30.5q45 0 83 18.5t72 51.5l48 -63q-41 -38 -93.5 -63t-116.5 -25q-46 0 -84 13
t-65.5 37.5t-43 59t-15.5 78.5z" />
    <glyph glyph-name="Agrave" unicode="&#xc0;" horiz-adv-x="678" 
d="M565 0l-75 205h-307l-76 -205h-96l276 714h105l276 -714h-103zM339 627l-127 -341h248zM380 762h-71l-108 140l64 37z" />
    <glyph glyph-name="Aacute" unicode="&#xc1;" horiz-adv-x="678" 
d="M565 0l-75 205h-307l-76 -205h-96l276 714h105l276 -714h-103zM339 627l-127 -341h248zM406 939l64 -37l-108 -140h-71z" />
    <glyph glyph-name="Acircumflex" unicode="&#xc2;" horiz-adv-x="678" 
d="M565 0l-75 205h-307l-76 -205h-96l276 714h105l276 -714h-103zM339 627l-127 -341h248zM499 769h-70l-90 104l-88 -104h-71l122 169h75z" />
    <glyph glyph-name="Atilde" unicode="&#xc3;" horiz-adv-x="678" 
d="M565 0l-75 205h-307l-76 -205h-96l276 714h105l276 -714h-103zM339 627l-127 -341h248zM159 802q14 35 43 60.5t75 25.5q18 0 34.5 -5t39.5 -17q15 -8 29 -14.5t30 -6.5q25 0 39.5 14t22.5 29l51 -24q-13 -35 -42.5 -60t-74.5 -25q-17 0 -35 4.5t-41 17.5q-16 9 -29.5 15
t-28.5 6q-25 0 -40 -14.5t-22 -28.5z" />
    <glyph glyph-name="Adieresis" unicode="&#xc4;" horiz-adv-x="678" 
d="M565 0l-75 205h-307l-76 -205h-96l276 714h105l276 -714h-103zM339 627l-127 -341h248zM205 786v79h78v-79h-78zM396 786v79h77v-79h-77z" />
    <glyph glyph-name="Aring" unicode="&#xc5;" horiz-adv-x="678" 
d="M339 627l-127 -341h248zM290 764q0 -21 14.5 -35.5t35.5 -14.5q20 0 35 14.5t15 35.5t-15 35.5t-35 14.5q-21 0 -35.5 -14.5t-14.5 -35.5zM243 764q0 20 7.5 37.5t20.5 31t31 21t38 7.5t37.5 -7.5t30.5 -21t20.5 -31t7.5 -37.5q0 -23 -9.5 -41.5t-25.5 -31.5l267 -691
h-103l-75 205h-307l-76 -205h-96l267 691q-16 13 -25.5 31.5t-9.5 41.5z" />
    <glyph glyph-name="AE" unicode="&#xc6;" horiz-adv-x="937" 
d="M455 0v205h-249l-119 -205h-97l420 714h464v-84h-327v-213h286v-80h-286v-253h337v-84h-429zM455 635l-202 -349h202v349z" />
    <glyph glyph-name="Ccedilla" unicode="&#xc7;" horiz-adv-x="693" 
d="M585 537q-33 51 -83.5 78.5t-116.5 27.5q-56 0 -101 -20.5t-76.5 -58t-48.5 -90.5t-17 -117q0 -65 17 -117.5t49.5 -90t78 -58t102.5 -20.5q66 0 114 27.5t85 79.5l72 -50q-49 -69 -116 -105t-155 -36q-78 0 -141 27.5t-107.5 76.5t-69 117t-24.5 149q0 80 24 148
t68.5 117.5t106.5 77t139 27.5q88 0 156.5 -36.5t114.5 -103.5zM343 -188q-21 0 -42.5 3.5t-32.5 7.5v51q14 -9 34 -11.5t31 -2.5q30 0 44 11.5t14 27.5q0 8 -3.5 13t-8.5 8h-47v53q7 5 19.5 7t23.5 2q16 0 31.5 -5t27.5 -15t19.5 -25t7.5 -34q0 -42 -32.5 -66.5
t-85.5 -24.5z" />
    <glyph glyph-name="Egrave" unicode="&#xc8;" horiz-adv-x="633" 
d="M88 0v714h482v-84h-392v-214h349v-80h-349v-252h402v-84h-492zM393 762h-71l-108 140l64 37z" />
    <glyph glyph-name="Eacute" unicode="&#xc9;" horiz-adv-x="633" 
d="M88 0v714h482v-84h-392v-214h349v-80h-349v-252h402v-84h-492zM396 939l64 -37l-108 -140h-71z" />
    <glyph glyph-name="Ecircumflex" unicode="&#xca;" horiz-adv-x="633" 
d="M88 0v714h482v-84h-392v-214h349v-80h-349v-252h402v-84h-492zM485 771h-70l-90 104l-88 -104h-71l122 169h75z" />
    <glyph glyph-name="Edieresis" unicode="&#xcb;" horiz-adv-x="633" 
d="M88 0v714h482v-84h-392v-214h349v-80h-349v-252h402v-84h-492zM192 786v79h78v-79h-78zM383 786v79h77v-79h-77z" />
    <glyph glyph-name="Igrave" unicode="&#xcc;" horiz-adv-x="266" 
d="M88 0v714h90v-714h-90zM173 762h-71l-108 140l64 37z" />
    <glyph glyph-name="Iacute" unicode="&#xcd;" horiz-adv-x="266" 
d="M88 0v714h90v-714h-90zM208 935l64 -37l-108 -140h-71z" />
    <glyph glyph-name="Icircumflex" unicode="&#xce;" horiz-adv-x="266" 
d="M88 0v714h90v-714h-90zM293 762h-70l-90 104l-88 -104h-71l122 169h75z" />
    <glyph glyph-name="Idieresis" unicode="&#xcf;" horiz-adv-x="266" 
d="M88 0v714h90v-714h-90zM-1 786v79h78v-79h-78zM190 786v79h77v-79h-77z" />
    <glyph glyph-name="Eth" unicode="&#xd0;" horiz-adv-x="760" 
d="M712 357q0 -78 -21.5 -143.5t-63.5 -113t-104 -74t-143 -26.5h-275v329h-61v74h61v311h275q81 0 143 -26.5t104 -73.5t63.5 -113t21.5 -144zM615 357q0 131 -62 202t-174 71h-183v-227h197v-74h-197v-245h183q112 0 174 71t62 202z" />
    <glyph glyph-name="Ntilde" unicode="&#xd1;" horiz-adv-x="742" 
d="M555 0l-378 590v-590h-89v714h111l367 -570v570h88v-714h-99zM191 802q14 35 43 60.5t75 25.5q18 0 34.5 -5t39.5 -17q15 -8 29 -14.5t30 -6.5q25 0 39.5 14t22.5 29l51 -24q-13 -35 -42.5 -60t-74.5 -25q-17 0 -35 4.5t-41 17.5q-16 9 -29.5 15t-28.5 6q-25 0 -40 -14.5
t-22 -28.5z" />
    <glyph glyph-name="Ograve" unicode="&#xd2;" horiz-adv-x="772" 
d="M726 357q0 -79 -24 -146.5t-68.5 -117t-107 -78t-140.5 -28.5t-140.5 28.5t-107 78t-68.5 117t-24 146.5t24 147t68.5 117.5t107 77.5t140.5 28t140.5 -28t107 -77.5t68.5 -117.5t24 -147zM631 357q0 63 -17 115t-48.5 89.5t-77 58.5t-102.5 21t-102.5 -21t-77 -58.5
t-48 -89.5t-16.5 -115t16.5 -115.5t48 -90t77 -58t102.5 -20.5t102.5 20.5t77 58t48.5 90t17 115.5zM440 762h-71l-108 140l64 37z" />
    <glyph glyph-name="Oacute" unicode="&#xd3;" horiz-adv-x="772" 
d="M726 357q0 -79 -24 -146.5t-68.5 -117t-107 -78t-140.5 -28.5t-140.5 28.5t-107 78t-68.5 117t-24 146.5t24 147t68.5 117.5t107 77.5t140.5 28t140.5 -28t107 -77.5t68.5 -117.5t24 -147zM631 357q0 63 -17 115t-48.5 89.5t-77 58.5t-102.5 21t-102.5 -21t-77 -58.5
t-48 -89.5t-16.5 -115t16.5 -115.5t48 -90t77 -58t102.5 -20.5t102.5 20.5t77 58t48.5 90t17 115.5zM436 939l64 -37l-108 -140h-71z" />
    <glyph glyph-name="Ocircumflex" unicode="&#xd4;" horiz-adv-x="772" 
d="M726 357q0 -79 -24 -146.5t-68.5 -117t-107 -78t-140.5 -28.5t-140.5 28.5t-107 78t-68.5 117t-24 146.5t24 147t68.5 117.5t107 77.5t140.5 28t140.5 -28t107 -77.5t68.5 -117.5t24 -147zM631 357q0 63 -17 115t-48.5 89.5t-77 58.5t-102.5 21t-102.5 -21t-77 -58.5
t-48 -89.5t-16.5 -115t16.5 -115.5t48 -90t77 -58t102.5 -20.5t102.5 20.5t77 58t48.5 90t17 115.5zM546 771h-70l-90 104l-88 -104h-71l122 169h75z" />
    <glyph glyph-name="Otilde" unicode="&#xd5;" horiz-adv-x="772" 
d="M726 357q0 -79 -24 -146.5t-68.5 -117t-107 -78t-140.5 -28.5t-140.5 28.5t-107 78t-68.5 117t-24 146.5t24 147t68.5 117.5t107 77.5t140.5 28t140.5 -28t107 -77.5t68.5 -117.5t24 -147zM631 357q0 63 -17 115t-48.5 89.5t-77 58.5t-102.5 21t-102.5 -21t-77 -58.5
t-48 -89.5t-16.5 -115t16.5 -115.5t48 -90t77 -58t102.5 -20.5t102.5 20.5t77 58t48.5 90t17 115.5zM205 802q14 35 43 60.5t75 25.5q18 0 34.5 -5t39.5 -17q15 -8 29 -14.5t30 -6.5q25 0 39.5 14t22.5 29l51 -24q-13 -35 -42.5 -60t-74.5 -25q-17 0 -35 4.5t-41 17.5
q-16 9 -29.5 15t-28.5 6q-25 0 -40 -14.5t-22 -28.5z" />
    <glyph glyph-name="Odieresis" unicode="&#xd6;" horiz-adv-x="772" 
d="M726 357q0 -79 -24 -146.5t-68.5 -117t-107 -78t-140.5 -28.5t-140.5 28.5t-107 78t-68.5 117t-24 146.5t24 147t68.5 117.5t107 77.5t140.5 28t140.5 -28t107 -77.5t68.5 -117.5t24 -147zM631 357q0 63 -17 115t-48.5 89.5t-77 58.5t-102.5 21t-102.5 -21t-77 -58.5
t-48 -89.5t-16.5 -115t16.5 -115.5t48 -90t77 -58t102.5 -20.5t102.5 20.5t77 58t48.5 90t17 115.5zM252 786v79h78v-79h-78zM443 786v79h77v-79h-77z" />
    <glyph glyph-name="multiply" unicode="&#xd7;" 
d="M496 -3l-208 210l-209 -210l-53 54l210 208l-210 209l53 53l209 -210l208 210l53 -53l-209 -209l209 -208z" />
    <glyph glyph-name="Oslash" unicode="&#xd8;" horiz-adv-x="772" 
d="M117 22l38 53q-52 51 -80.5 123t-28.5 159q0 79 24 147t68.5 117.5t107 77.5t140.5 28q54 0 101 -14t86 -40l35 51l46 -32l-37 -54q53 -50 81 -122t28 -159q0 -79 -24 -146.5t-68.5 -117t-107 -78t-140.5 -28.5q-55 0 -102 14t-86 40l-35 -51zM631 357q0 64 -18 116
t-50 89l-314 -449q57 -40 137 -40q57 0 102.5 20.5t77 58t48.5 90t17 115.5zM142 357q0 -64 16.5 -116.5t48.5 -89.5l315 449q-28 20 -62 30.5t-74 10.5q-57 0 -102.5 -21t-77 -58.5t-48 -89.5t-16.5 -115z" />
    <glyph glyph-name="Ugrave" unicode="&#xd9;" horiz-adv-x="712" 
d="M631 259q0 -62 -21 -112.5t-57.5 -86t-87 -54.5t-110.5 -19t-110.5 19t-87 54.5t-57 86t-20.5 112.5v455h90v-455q0 -85 49 -135.5t136 -50.5q43 0 77.5 13.5t58.5 37.5t37 58.5t13 76.5v455h90v-455zM401 762h-71l-108 140l64 37z" />
    <glyph glyph-name="Uacute" unicode="&#xda;" horiz-adv-x="712" 
d="M631 259q0 -62 -21 -112.5t-57.5 -86t-87 -54.5t-110.5 -19t-110.5 19t-87 54.5t-57 86t-20.5 112.5v455h90v-455q0 -85 49 -135.5t136 -50.5q43 0 77.5 13.5t58.5 37.5t37 58.5t13 76.5v455h90v-455zM416 939l64 -37l-108 -140h-71z" />
    <glyph glyph-name="Ucircumflex" unicode="&#xdb;" horiz-adv-x="712" 
d="M631 259q0 -62 -21 -112.5t-57.5 -86t-87 -54.5t-110.5 -19t-110.5 19t-87 54.5t-57 86t-20.5 112.5v455h90v-455q0 -85 49 -135.5t136 -50.5q43 0 77.5 13.5t58.5 37.5t37 58.5t13 76.5v455h90v-455zM515 771h-70l-90 104l-88 -104h-71l122 169h75z" />
    <glyph glyph-name="Udieresis" unicode="&#xdc;" horiz-adv-x="712" 
d="M631 259q0 -62 -21 -112.5t-57.5 -86t-87 -54.5t-110.5 -19t-110.5 19t-87 54.5t-57 86t-20.5 112.5v455h90v-455q0 -85 49 -135.5t136 -50.5q43 0 77.5 13.5t58.5 37.5t37 58.5t13 76.5v455h90v-455zM221 786v79h78v-79h-78zM412 786v79h77v-79h-77z" />
    <glyph glyph-name="Yacute" unicode="&#xdd;" horiz-adv-x="613" 
d="M353 298v-298h-92v298l-255 416h107l196 -328l194 328h105zM371 939l64 -37l-108 -140h-71z" />
    <glyph glyph-name="Thorn" unicode="&#xde;" horiz-adv-x="639" 
d="M178 193v-193h-90v714h90v-97h188q60 0 105.5 -15.5t76.5 -43t47 -66.5t16 -87t-16 -87t-47 -66.5t-76.5 -43t-105.5 -15.5h-188zM367 277q77 0 113.5 34.5t36.5 93.5q0 58 -36.5 93t-113.5 35h-189v-256h189z" />
    <glyph glyph-name="germandbls" unicode="&#xdf;" horiz-adv-x="603" 
d="M555 206q0 -49 -16.5 -88.5t-46.5 -68t-72.5 -44t-93.5 -15.5q-31 0 -61 5.5t-49 15.5l24 73q16 -9 38.5 -14t45.5 -5q67 0 105 39.5t38 105.5q0 36 -12 61.5t-33.5 42t-51.5 24.5t-67 8h-52v73h54q27 0 51.5 7.5t43 22t29.5 36.5t11 52q0 31 -11.5 53t-30.5 35.5
t-43.5 20t-49.5 6.5q-62 0 -102 -35t-40 -103v-514h-84v514q0 49 16.5 88t46.5 66.5t72 42t92 14.5q45 0 84.5 -12t69.5 -34.5t47.5 -56.5t17.5 -77q0 -46 -23 -86.5t-76 -69.5q24 -8 47.5 -22.5t41.5 -36.5t29 -52.5t11 -71.5z" />
    <glyph glyph-name="agrave" unicode="&#xe0;" horiz-adv-x="537" 
d="M382 0v64q-54 -76 -160 -76q-82 0 -131 41.5t-49 116.5q0 46 18 74.5t44 45.5t56.5 24.5t55.5 11.5q29 4 58.5 8.5t53 13t38 23t14.5 38.5q0 20 -10 33.5t-26 22t-36 12t-40 3.5q-39 0 -84 -13t-80 -41l-38 64q40 29 93.5 47t113.5 18q85 0 138 -39t53 -119v-373h-82z
M380 281q-27 -20 -67.5 -28t-79.5 -15q-23 -4 -42 -9.5t-33 -15t-22 -24.5t-8 -38q0 -24 8.5 -41t23 -27.5t34 -15.5t41.5 -5q28 0 54 8t46 25t32.5 44t12.5 65v77zM309 594h-71l-108 140l64 37z" />
    <glyph glyph-name="aacute" unicode="&#xe1;" horiz-adv-x="537" 
d="M382 0v64q-54 -76 -160 -76q-82 0 -131 41.5t-49 116.5q0 46 18 74.5t44 45.5t56.5 24.5t55.5 11.5q29 4 58.5 8.5t53 13t38 23t14.5 38.5q0 20 -10 33.5t-26 22t-36 12t-40 3.5q-39 0 -84 -13t-80 -41l-38 64q40 29 93.5 47t113.5 18q85 0 138 -39t53 -119v-373h-82z
M380 281q-27 -20 -67.5 -28t-79.5 -15q-23 -4 -42 -9.5t-33 -15t-22 -24.5t-8 -38q0 -24 8.5 -41t23 -27.5t34 -15.5t41.5 -5q28 0 54 8t46 25t32.5 44t12.5 65v77zM319 771l64 -37l-108 -140h-71z" />
    <glyph glyph-name="acircumflex" unicode="&#xe2;" horiz-adv-x="537" 
d="M382 0v64q-54 -76 -160 -76q-82 0 -131 41.5t-49 116.5q0 46 18 74.5t44 45.5t56.5 24.5t55.5 11.5q29 4 58.5 8.5t53 13t38 23t14.5 38.5q0 20 -10 33.5t-26 22t-36 12t-40 3.5q-39 0 -84 -13t-80 -41l-38 64q40 29 93.5 47t113.5 18q85 0 138 -39t53 -119v-373h-82z
M380 281q-27 -20 -67.5 -28t-79.5 -15q-23 -4 -42 -9.5t-33 -15t-22 -24.5t-8 -38q0 -24 8.5 -41t23 -27.5t34 -15.5t41.5 -5q28 0 54 8t46 25t32.5 44t12.5 65v77zM423 594h-70l-90 104l-88 -104h-71l122 169h75z" />
    <glyph glyph-name="atilde" unicode="&#xe3;" horiz-adv-x="537" 
d="M382 0v64q-54 -76 -160 -76q-82 0 -131 41.5t-49 116.5q0 46 18 74.5t44 45.5t56.5 24.5t55.5 11.5q29 4 58.5 8.5t53 13t38 23t14.5 38.5q0 20 -10 33.5t-26 22t-36 12t-40 3.5q-39 0 -84 -13t-80 -41l-38 64q40 29 93.5 47t113.5 18q85 0 138 -39t53 -119v-373h-82z
M380 281q-27 -20 -67.5 -28t-79.5 -15q-23 -4 -42 -9.5t-33 -15t-22 -24.5t-8 -38q0 -24 8.5 -41t23 -27.5t34 -15.5t41.5 -5q28 0 54 8t46 25t32.5 44t12.5 65v77zM81 634q14 35 43 60.5t75 25.5q18 0 34.5 -5t39.5 -17q15 -8 29 -14.5t30 -6.5q25 0 39.5 14t22.5 29
l51 -24q-13 -35 -42.5 -60t-74.5 -25q-17 0 -35 4.5t-41 17.5q-16 9 -29.5 15t-28.5 6q-25 0 -40 -14.5t-22 -28.5z" />
    <glyph glyph-name="adieresis" unicode="&#xe4;" horiz-adv-x="537" 
d="M382 0v64q-54 -76 -160 -76q-82 0 -131 41.5t-49 116.5q0 46 18 74.5t44 45.5t56.5 24.5t55.5 11.5q29 4 58.5 8.5t53 13t38 23t14.5 38.5q0 20 -10 33.5t-26 22t-36 12t-40 3.5q-39 0 -84 -13t-80 -41l-38 64q40 29 93.5 47t113.5 18q85 0 138 -39t53 -119v-373h-82z
M380 281q-27 -20 -67.5 -28t-79.5 -15q-23 -4 -42 -9.5t-33 -15t-22 -24.5t-8 -38q0 -24 8.5 -41t23 -27.5t34 -15.5t41.5 -5q28 0 54 8t46 25t32.5 44t12.5 65v77zM128 618v79h78v-79h-78zM319 618v79h77v-79h-77z" />
    <glyph glyph-name="aring" unicode="&#xe5;" horiz-adv-x="537" 
d="M382 0v64q-54 -76 -160 -76q-82 0 -131 41.5t-49 116.5q0 46 18 74.5t44 45.5t56.5 24.5t55.5 11.5q29 4 58.5 8.5t53 13t38 23t14.5 38.5q0 20 -10 33.5t-26 22t-36 12t-40 3.5q-39 0 -84 -13t-80 -41l-38 64q40 29 93.5 47t113.5 18q85 0 138 -39t53 -119v-373h-82z
M380 281q-27 -20 -67.5 -28t-79.5 -15q-23 -4 -42 -9.5t-33 -15t-22 -24.5t-8 -38q0 -24 8.5 -41t23 -27.5t34 -15.5t41.5 -5q28 0 54 8t46 25t32.5 44t12.5 65v77zM172 646q0 20 7.5 37.5t20.5 31t30.5 21t37.5 7.5t38 -7.5t31 -21t20.5 -31t7.5 -37.5q0 -41 -28 -69
t-69 -28q-40 0 -68 28t-28 69zM219 646q0 -21 14.5 -35.5t34.5 -14.5q21 0 35.5 14.5t14.5 35.5t-14.5 35.5t-35.5 14.5q-20 0 -34.5 -14.5t-14.5 -35.5z" />
    <glyph glyph-name="ae" unicode="&#xe6;" horiz-adv-x="898" 
d="M273 531q61 0 105 -20.5t65 -61.5q31 38 75.5 60t104.5 22q54 0 98 -18.5t74.5 -51.5t47 -78t16.5 -98q0 -12 -0.5 -22t-1.5 -18h-393q0 -42 12.5 -75t35 -56.5t53.5 -35.5t68 -12q44 0 82 17.5t66 52.5l57 -52q-36 -45 -88.5 -70.5t-121.5 -25.5q-71 0 -121.5 28
t-81.5 77q-30 -52 -78 -78.5t-117 -26.5q-89 0 -138.5 41.5t-49.5 116.5q0 46 17.5 74.5t44 45.5t56.5 24.5t56 11.5q29 4 58.5 8.5t53 13t38 23t14.5 38.5q0 20 -10 33.5t-26 22t-36 12t-40 3.5q-39 0 -84 -13t-80 -41l-38 64q40 29 93.5 47t113.5 18zM380 281
q-27 -20 -67.5 -28t-79.5 -15q-23 -4 -42 -9.5t-33 -15t-22 -24.5t-8 -38q0 -24 8.5 -41t23 -27.5t34 -15.5t41.5 -5q28 0 54 8t46 25t32.5 44t12.5 65v77zM773 311q-3 38 -16 65.5t-33.5 45.5t-47 27t-55.5 9q-68 0 -109 -41t-47 -106h308z" />
    <glyph glyph-name="ccedilla" unicode="&#xe7;" horiz-adv-x="531" 
d="M434 380q-23 35 -57 54.5t-79 19.5q-38 0 -68.5 -14.5t-52 -40t-33 -61.5t-11.5 -78q0 -43 11.5 -78.5t33 -61t52 -40t68.5 -14.5q48 0 82 20.5t57 53.5l62 -47q-33 -47 -85 -76t-121 -29q-57 0 -103 20.5t-78.5 57t-50 86.5t-17.5 108t17.5 107.5t50 86t78.5 57
t103 20.5q70 0 121 -29.5t83 -77.5zM243 -188q-21 0 -42.5 3.5t-32.5 7.5v51q14 -9 34 -11.5t31 -2.5q30 0 44 11.5t14 27.5q0 8 -3.5 13t-8.5 8h-47v53q7 5 19.5 7t23.5 2q16 0 31.5 -5t27.5 -15t19.5 -25t7.5 -34q0 -42 -32.5 -66.5t-85.5 -24.5z" />
    <glyph glyph-name="egrave" unicode="&#xe8;" horiz-adv-x="580" 
d="M442 311q-2 38 -15 65.5t-34 45.5t-47.5 27t-55.5 9q-67 0 -108.5 -41t-46.5 -106h307zM44 258q0 58 17 107.5t48.5 86.5t77.5 58t104 21q55 0 99 -18.5t75 -51.5t47.5 -78t16.5 -98q0 -12 -0.5 -22t-1.5 -18h-394q1 -85 48.5 -132t121.5 -47q44 0 82 17.5t66 52.5
l57 -52q-37 -45 -89 -70.5t-121 -25.5q-60 0 -107.5 20.5t-80 56.5t-49.5 85.5t-17 107.5zM336 594h-71l-108 140l64 37z" />
    <glyph glyph-name="eacute" unicode="&#xe9;" horiz-adv-x="580" 
d="M442 311q-2 38 -15 65.5t-34 45.5t-47.5 27t-55.5 9q-67 0 -108.5 -41t-46.5 -106h307zM44 258q0 58 17 107.5t48.5 86.5t77.5 58t104 21q55 0 99 -18.5t75 -51.5t47.5 -78t16.5 -98q0 -12 -0.5 -22t-1.5 -18h-394q1 -85 48.5 -132t121.5 -47q44 0 82 17.5t66 52.5
l57 -52q-37 -45 -89 -70.5t-121 -25.5q-60 0 -107.5 20.5t-80 56.5t-49.5 85.5t-17 107.5zM341 771l64 -37l-108 -140h-71z" />
    <glyph glyph-name="ecircumflex" unicode="&#xea;" horiz-adv-x="570" 
d="M442 311q-2 38 -15 65.5t-34 45.5t-47.5 27t-55.5 9q-67 0 -108.5 -41t-46.5 -106h307zM44 258q0 58 17 107.5t48.5 86.5t77.5 58t104 21q55 0 99 -18.5t75 -51.5t47.5 -78t16.5 -98q0 -12 -0.5 -22t-1.5 -18h-394q1 -85 48.5 -132t121.5 -47q44 0 82 17.5t66 52.5
l57 -52q-37 -45 -89 -70.5t-121 -25.5q-60 0 -107.5 20.5t-80 56.5t-49.5 85.5t-17 107.5zM446 594h-70l-90 104l-88 -104h-71l122 169h75z" />
    <glyph glyph-name="edieresis" unicode="&#xeb;" horiz-adv-x="570" 
d="M442 311q-2 38 -15 65.5t-34 45.5t-47.5 27t-55.5 9q-67 0 -108.5 -41t-46.5 -106h307zM44 258q0 58 17 107.5t48.5 86.5t77.5 58t104 21q55 0 99 -18.5t75 -51.5t47.5 -78t16.5 -98q0 -12 -0.5 -22t-1.5 -18h-394q1 -85 48.5 -132t121.5 -47q44 0 82 17.5t66 52.5
l57 -52q-37 -45 -89 -70.5t-121 -25.5q-60 0 -107.5 20.5t-80 56.5t-49.5 85.5t-17 107.5zM152 618v79h78v-79h-78zM343 618v79h77v-79h-77z" />
    <glyph glyph-name="igrave" unicode="&#xec;" horiz-adv-x="238" 
d="M77 0v519h84v-519h-84zM158 594h-71l-108 140l64 37z" />
    <glyph glyph-name="iacute" unicode="&#xed;" horiz-adv-x="238" 
d="M77 0v519h84v-519h-84zM187 771l64 -37l-108 -140h-71z" />
    <glyph glyph-name="icircumflex" unicode="&#xee;" horiz-adv-x="238" 
d="M77 0v519h84v-519h-84zM286 594h-70l-90 104l-88 -104h-71l122 169h75z" />
    <glyph glyph-name="idieresis" unicode="&#xef;" horiz-adv-x="238" 
d="M77 0v519h84v-519h-84zM-17 618v79h78v-79h-78zM174 618v79h77v-79h-77z" />
    <glyph glyph-name="eth" unicode="&#xf0;" horiz-adv-x="590" 
d="M237 563l112 61q-21 13 -45.5 20t-55.5 7t-64 -9t-65 -32l-36 70q29 20 71 33.5t95 13.5q51 0 96.5 -15t82.5 -47l108 59v-55l-74 -40q41 -51 59.5 -126.5t18.5 -162.5q0 -173 -67.5 -263t-185.5 -90q-56 0 -100.5 19t-76.5 52.5t-49 78.5t-17 97q0 54 17.5 97t48.5 73.5
t72 47t89 16.5q61 0 109.5 -25t72.5 -65q0 63 -15 119t-49 94l-152 -83v55zM440 238q0 72 -42 112.5t-111 40.5q-39 0 -68 -12.5t-47.5 -34.5t-28 -51.5t-9.5 -63.5q0 -72 40.5 -117t109.5 -45q38 0 67 14t49 37.5t30 54.5t10 65z" />
    <glyph glyph-name="ntilde" unicode="&#xf1;" horiz-adv-x="583" 
d="M77 0v519h84v-78q28 41 72 65.5t101 24.5q81 0 129.5 -50.5t48.5 -144.5v-336h-84v317q0 27 -5 51.5t-18 43t-34.5 30t-55.5 11.5q-33 0 -61 -12t-49 -33.5t-32.5 -51.5t-11.5 -67v-289h-84zM120 634q14 35 43 60.5t75 25.5q18 0 34.5 -5t39.5 -17q15 -8 29 -14.5
t30 -6.5q25 0 39.5 14t22.5 29l51 -24q-13 -35 -42.5 -60t-74.5 -25q-17 0 -35 4.5t-41 17.5q-16 9 -29.5 15t-28.5 6q-25 0 -40 -14.5t-22 -28.5z" />
    <glyph glyph-name="ograve" unicode="&#xf2;" horiz-adv-x="584" 
d="M540 259q0 -58 -17.5 -107.5t-49.5 -86t-78.5 -57t-103.5 -20.5t-102.5 20.5t-78 57t-49.5 86t-17 107.5q0 59 17 109t49.5 86t78 56.5t102.5 20.5t103.5 -20.5t78.5 -56.5t49.5 -86t17.5 -109zM450 259q0 42 -10.5 77.5t-31 62t-50 41.5t-67.5 15t-67 -15t-49.5 -41.5
t-31 -62t-10.5 -77.5q0 -41 10.5 -76.5t31 -62t49.5 -41.5t67 -15t67.5 15t50 41.5t31 62t10.5 76.5zM335 594h-71l-108 140l64 37z" />
    <glyph glyph-name="oacute" unicode="&#xf3;" horiz-adv-x="584" 
d="M540 259q0 -58 -17.5 -107.5t-49.5 -86t-78.5 -57t-103.5 -20.5t-102.5 20.5t-78 57t-49.5 86t-17 107.5q0 59 17 109t49.5 86t78 56.5t102.5 20.5t103.5 -20.5t78.5 -56.5t49.5 -86t17.5 -109zM450 259q0 42 -10.5 77.5t-31 62t-50 41.5t-67.5 15t-67 -15t-49.5 -41.5
t-31 -62t-10.5 -77.5q0 -41 10.5 -76.5t31 -62t49.5 -41.5t67 -15t67.5 15t50 41.5t31 62t10.5 76.5zM339 771l64 -37l-108 -140h-71z" />
    <glyph glyph-name="ocircumflex" unicode="&#xf4;" horiz-adv-x="584" 
d="M540 259q0 -58 -17.5 -107.5t-49.5 -86t-78.5 -57t-103.5 -20.5t-102.5 20.5t-78 57t-49.5 86t-17 107.5q0 59 17 109t49.5 86t78 56.5t102.5 20.5t103.5 -20.5t78.5 -56.5t49.5 -86t17.5 -109zM450 259q0 42 -10.5 77.5t-31 62t-50 41.5t-67.5 15t-67 -15t-49.5 -41.5
t-31 -62t-10.5 -77.5q0 -41 10.5 -76.5t31 -62t49.5 -41.5t67 -15t67.5 15t50 41.5t31 62t10.5 76.5zM452 594h-70l-90 104l-88 -104h-71l122 169h75z" />
    <glyph glyph-name="otilde" unicode="&#xf5;" horiz-adv-x="584" 
d="M540 259q0 -58 -17.5 -107.5t-49.5 -86t-78.5 -57t-103.5 -20.5t-102.5 20.5t-78 57t-49.5 86t-17 107.5q0 59 17 109t49.5 86t78 56.5t102.5 20.5t103.5 -20.5t78.5 -56.5t49.5 -86t17.5 -109zM450 259q0 42 -10.5 77.5t-31 62t-50 41.5t-67.5 15t-67 -15t-49.5 -41.5
t-31 -62t-10.5 -77.5q0 -41 10.5 -76.5t31 -62t49.5 -41.5t67 -15t67.5 15t50 41.5t31 62t10.5 76.5zM111 634q14 35 43 60.5t75 25.5q18 0 34.5 -5t39.5 -17q15 -8 29 -14.5t30 -6.5q25 0 39.5 14t22.5 29l51 -24q-13 -35 -42.5 -60t-74.5 -25q-17 0 -35 4.5t-41 17.5
q-16 9 -29.5 15t-28.5 6q-25 0 -40 -14.5t-22 -28.5z" />
    <glyph glyph-name="odieresis" unicode="&#xf6;" horiz-adv-x="584" 
d="M540 259q0 -58 -17.5 -107.5t-49.5 -86t-78.5 -57t-103.5 -20.5t-102.5 20.5t-78 57t-49.5 86t-17 107.5q0 59 17 109t49.5 86t78 56.5t102.5 20.5t103.5 -20.5t78.5 -56.5t49.5 -86t17.5 -109zM450 259q0 42 -10.5 77.5t-31 62t-50 41.5t-67.5 15t-67 -15t-49.5 -41.5
t-31 -62t-10.5 -77.5q0 -41 10.5 -76.5t31 -62t49.5 -41.5t67 -15t67.5 15t50 41.5t31 62t10.5 76.5zM158 618v79h78v-79h-78zM349 618v79h77v-79h-77z" />
    <glyph glyph-name="divide" unicode="&#xf7;" 
d="M348 461q0 -26 -17.5 -43.5t-42.5 -17.5q-26 0 -43.5 17.5t-17.5 43.5q0 25 17.5 43t43.5 18q25 0 42.5 -18t17.5 -43zM348 57q0 -24 -17.5 -42t-42.5 -18q-26 0 -43.5 18t-17.5 42q0 26 17.5 44.5t43.5 18.5q25 0 42.5 -18.5t17.5 -44.5zM28 222v74h519v-74h-519z" />
    <glyph glyph-name="oslash" unicode="&#xf8;" horiz-adv-x="584" 
d="M91 20l26 38q-35 36 -54 87.5t-19 113.5q0 59 17 109t49.5 86t78 56.5t102.5 20.5q75 0 132 -37l25 36l44 -31l-26 -38q35 -37 54.5 -88.5t19.5 -113.5q0 -58 -17.5 -107.5t-49.5 -86t-78.5 -57t-103.5 -20.5q-38 0 -71 9.5t-61 26.5l-24 -34zM133 259q0 -37 8.5 -70
t26.5 -58l209 298q-17 13 -38.5 20t-47.5 7q-38 0 -67 -15t-49.5 -41.5t-31 -62.5t-10.5 -78zM451 259q0 77 -36 130l-210 -299q17 -13 39 -20t47 -7q38 0 68 15.5t50.5 42t31 62t10.5 76.5z" />
    <glyph glyph-name="ugrave" unicode="&#xf9;" horiz-adv-x="582" 
d="M505 519v-519h-84v78q-27 -41 -71.5 -65.5t-101.5 -24.5q-81 0 -129.5 51t-48.5 144v336h85v-316q0 -27 5 -51.5t17.5 -43.5t34 -30t55.5 -11q33 0 61 11.5t49 33t32.5 51.5t11.5 67v289h84zM330 594h-71l-108 140l64 37z" />
    <glyph glyph-name="uacute" unicode="&#xfa;" horiz-adv-x="582" 
d="M505 519v-519h-84v78q-27 -41 -71.5 -65.5t-101.5 -24.5q-81 0 -129.5 51t-48.5 144v336h85v-316q0 -27 5 -51.5t17.5 -43.5t34 -30t55.5 -11q33 0 61 11.5t49 33t32.5 51.5t11.5 67v289h84zM348 771l64 -37l-108 -140h-71z" />
    <glyph glyph-name="ucircumflex" unicode="&#xfb;" horiz-adv-x="582" 
d="M505 519v-519h-84v78q-27 -41 -71.5 -65.5t-101.5 -24.5q-81 0 -129.5 51t-48.5 144v336h85v-316q0 -27 5 -51.5t17.5 -43.5t34 -30t55.5 -11q33 0 61 11.5t49 33t32.5 51.5t11.5 67v289h84zM447 594h-70l-90 104l-88 -104h-71l122 169h75z" />
    <glyph glyph-name="udieresis" unicode="&#xfc;" horiz-adv-x="582" 
d="M505 519v-519h-84v78q-27 -41 -71.5 -65.5t-101.5 -24.5q-81 0 -129.5 51t-48.5 144v336h85v-316q0 -27 5 -51.5t17.5 -43.5t34 -30t55.5 -11q33 0 61 11.5t49 33t32.5 51.5t11.5 67v289h84zM153 618v79h78v-79h-78zM344 618v79h77v-79h-77z" />
    <glyph glyph-name="yacute" unicode="&#xfd;" horiz-adv-x="518" 
d="M87 -103q16 -8 33 -8q15 0 27 5.5t23 18t22 34.5t24 55l-204 517h95l153 -412l152 412h92l-210 -532q-18 -47 -35 -79.5t-36 -53t-41.5 -29.5t-51.5 -9q-23 0 -38.5 3.5t-23.5 7.5zM327 771l64 -37l-108 -140h-71z" />
    <glyph glyph-name="thorn" unicode="&#xfe;" horiz-adv-x="617" 
d="M161 714v-276q32 49 79 71t98 22q54 0 97.5 -20.5t74 -57t47 -86t16.5 -107.5t-16.5 -107.5t-47.5 -86t-74 -57.5t-97 -21q-52 0 -98.5 22.5t-78.5 70.5v-255h-84v888h84zM161 259q0 -41 10.5 -76t31.5 -61t51.5 -41t70.5 -15t69.5 15t49.5 41.5t30 61.5t10 75t-10 76
t-29.5 62t-49.5 41.5t-70 15.5t-70.5 -15.5t-51.5 -41.5t-31.5 -62t-10.5 -76z" />
    <glyph glyph-name="ydieresis" unicode="&#xff;" horiz-adv-x="518" 
d="M87 -103q16 -8 33 -8q15 0 27 5.5t23 18t22 34.5t24 55l-204 517h95l153 -412l152 412h92l-210 -532q-18 -47 -35 -79.5t-36 -53t-41.5 -29.5t-51.5 -9q-23 0 -38.5 3.5t-23.5 7.5zM125 618v79h78v-79h-78zM316 618v79h77v-79h-77z" />
    <glyph glyph-name="Amacron" unicode="&#x100;" horiz-adv-x="678" 
d="M565 0l-75 205h-307l-76 -205h-96l276 714h105l276 -714h-103zM339 627l-127 -341h248zM205 795v61h269v-61h-269z" />
    <glyph glyph-name="amacron" unicode="&#x101;" horiz-adv-x="537" 
d="M382 0v64q-54 -76 -160 -76q-82 0 -131 41.5t-49 116.5q0 46 18 74.5t44 45.5t56.5 24.5t55.5 11.5q29 4 58.5 8.5t53 13t38 23t14.5 38.5q0 20 -10 33.5t-26 22t-36 12t-40 3.5q-39 0 -84 -13t-80 -41l-38 64q40 29 93.5 47t113.5 18q85 0 138 -39t53 -119v-373h-82z
M380 281q-27 -20 -67.5 -28t-79.5 -15q-23 -4 -42 -9.5t-33 -15t-22 -24.5t-8 -38q0 -24 8.5 -41t23 -27.5t34 -15.5t41.5 -5q28 0 54 8t46 25t32.5 44t12.5 65v77zM129 627v61h269v-61h-269z" />
    <glyph glyph-name="Abreve" unicode="&#x102;" horiz-adv-x="678" 
d="M565 0l-75 205h-307l-76 -205h-96l276 714h105l276 -714h-103zM339 627l-127 -341h248zM339 821q45 0 71.5 22.5t42.5 64.5l61 -26q-8 -23 -22 -45.5t-35.5 -40.5t-50.5 -29t-67 -11t-67 11t-50.5 29t-35.5 40.5t-21 45.5l61 26q15 -42 41.5 -64.5t71.5 -22.5z" />
    <glyph glyph-name="abreve" unicode="&#x103;" horiz-adv-x="537" 
d="M382 0v64q-54 -76 -160 -76q-82 0 -131 41.5t-49 116.5q0 46 18 74.5t44 45.5t56.5 24.5t55.5 11.5q29 4 58.5 8.5t53 13t38 23t14.5 38.5q0 20 -10 33.5t-26 22t-36 12t-40 3.5q-39 0 -84 -13t-80 -41l-38 64q40 29 93.5 47t113.5 18q85 0 138 -39t53 -119v-373h-82z
M380 281q-27 -20 -67.5 -28t-79.5 -15q-23 -4 -42 -9.5t-33 -15t-22 -24.5t-8 -38q0 -24 8.5 -41t23 -27.5t34 -15.5t41.5 -5q28 0 54 8t46 25t32.5 44t12.5 65v77zM265 653q45 0 71.5 22.5t42.5 64.5l61 -26q-8 -23 -22 -45.5t-35.5 -40.5t-50.5 -29t-67 -11t-67 11
t-50.5 29t-35.5 40.5t-21 45.5l61 26q15 -42 41.5 -64.5t71.5 -22.5z" />
    <glyph glyph-name="Aogonek" unicode="&#x104;" horiz-adv-x="678" 
d="M666 -160q-11 -11 -31 -17.5t-43 -6.5q-41 0 -71.5 22.5t-30.5 69.5q0 33 18 61.5t49 51.5l-67 184h-307l-76 -205h-96l276 714h105l276 -714h-67q-23 -20 -34.5 -38t-11.5 -38q0 -26 15.5 -37t35.5 -11q19 0 33.5 7.5t26.5 19.5v-63zM339 627l-127 -341h248z" />
    <glyph glyph-name="aogonek" unicode="&#x105;" horiz-adv-x="537" 
d="M464 0q-83 -38 -83 -85q0 -21 13 -30t29 -9q17 0 29 8t22 19v-63q-10 -11 -26.5 -17.5t-39.5 -6.5q-36 0 -63.5 19.5t-27.5 60.5q0 32 17.5 57t47.5 47v64q-54 -76 -160 -76q-82 0 -131 41.5t-49 116.5q0 46 18 74.5t44 45.5t56.5 24.5t55.5 11.5q29 4 58.5 8.5t53 13
t38 23t14.5 38.5q0 20 -10 33.5t-26 22t-36 12t-40 3.5q-39 0 -84 -13t-80 -41l-38 64q40 29 94 47t114 18q84 0 137 -39t53 -119v-373zM380 281q-27 -20 -67.5 -28t-79.5 -15q-23 -4 -42 -9.5t-33 -15t-22 -24.5t-8 -38q0 -24 8.5 -41t23 -27.5t34 -15.5t41.5 -5q28 0 54 8
t46 25t32.5 44t12.5 65v77z" />
    <glyph glyph-name="Cacute" unicode="&#x106;" horiz-adv-x="693" 
d="M585 537q-33 51 -83.5 78.5t-116.5 27.5q-56 0 -101 -20.5t-76.5 -58t-48.5 -90.5t-17 -117q0 -65 17 -117.5t49.5 -90t78 -58t102.5 -20.5q66 0 114 27.5t85 79.5l72 -50q-49 -69 -116 -105t-155 -36q-78 0 -141 27.5t-107.5 76.5t-69 117t-24.5 149q0 80 24 148
t68.5 117.5t106.5 77t139 27.5q88 0 156.5 -36.5t114.5 -103.5zM440 939l64 -37l-108 -140h-71z" />
    <glyph glyph-name="cacute" unicode="&#x107;" horiz-adv-x="531" 
d="M434 380q-23 35 -57 54.5t-79 19.5q-38 0 -68.5 -14.5t-52 -40t-33 -61.5t-11.5 -78q0 -43 11.5 -78.5t33 -61t52 -40t68.5 -14.5q48 0 82 20.5t57 53.5l62 -47q-33 -47 -85 -76t-121 -29q-57 0 -103 20.5t-78.5 57t-50 86.5t-17.5 108t17.5 107.5t50 86t78.5 57
t103 20.5q70 0 121 -29.5t83 -77.5zM343 771l64 -37l-108 -140h-71z" />
    <glyph glyph-name="Ccircumflex" unicode="&#x108;" horiz-adv-x="693" 
d="M585 537q-33 51 -83.5 78.5t-116.5 27.5q-56 0 -101 -20.5t-76.5 -58t-48.5 -90.5t-17 -117q0 -65 17 -117.5t49.5 -90t78 -58t102.5 -20.5q66 0 114 27.5t85 79.5l72 -50q-49 -69 -116 -105t-155 -36q-78 0 -141 27.5t-107.5 76.5t-69 117t-24.5 149q0 80 24 148
t68.5 117.5t106.5 77t139 27.5q88 0 156.5 -36.5t114.5 -103.5zM541 771h-70l-90 104l-88 -104h-71l122 169h75z" />
    <glyph glyph-name="ccircumflex" unicode="&#x109;" horiz-adv-x="531" 
d="M434 380q-23 35 -57 54.5t-79 19.5q-38 0 -68.5 -14.5t-52 -40t-33 -61.5t-11.5 -78q0 -43 11.5 -78.5t33 -61t52 -40t68.5 -14.5q48 0 82 20.5t57 53.5l62 -47q-33 -47 -85 -76t-121 -29q-57 0 -103 20.5t-78.5 57t-50 86.5t-17.5 108t17.5 107.5t50 86t78.5 57
t103 20.5q70 0 121 -29.5t83 -77.5zM444 594h-70l-90 104l-88 -104h-71l122 169h75z" />
    <glyph glyph-name="Cdotaccent" unicode="&#x10a;" horiz-adv-x="693" 
d="M585 537q-33 51 -83.5 78.5t-116.5 27.5q-56 0 -101 -20.5t-76.5 -58t-48.5 -90.5t-17 -117q0 -65 17 -117.5t49.5 -90t78 -58t102.5 -20.5q66 0 114 27.5t85 79.5l72 -50q-49 -69 -116 -105t-155 -36q-78 0 -141 27.5t-107.5 76.5t-69 117t-24.5 149q0 80 24 148
t68.5 117.5t106.5 77t139 27.5q88 0 156.5 -36.5t114.5 -103.5zM338 786v79h77v-79h-77z" />
    <glyph glyph-name="cdotaccent" unicode="&#x10b;" horiz-adv-x="531" 
d="M434 380q-23 35 -57 54.5t-79 19.5q-38 0 -68.5 -14.5t-52 -40t-33 -61.5t-11.5 -78q0 -43 11.5 -78.5t33 -61t52 -40t68.5 -14.5q48 0 82 20.5t57 53.5l62 -47q-33 -47 -85 -76t-121 -29q-57 0 -103 20.5t-78.5 57t-50 86.5t-17.5 108t17.5 107.5t50 86t78.5 57
t103 20.5q70 0 121 -29.5t83 -77.5zM242 618v79h77v-79h-77z" />
    <glyph glyph-name="Ccaron" unicode="&#x10c;" horiz-adv-x="693" 
d="M585 537q-33 51 -83.5 78.5t-116.5 27.5q-56 0 -101 -20.5t-76.5 -58t-48.5 -90.5t-17 -117q0 -65 17 -117.5t49.5 -90t78 -58t102.5 -20.5q66 0 114 27.5t85 79.5l72 -50q-49 -69 -116 -105t-155 -36q-78 0 -141 27.5t-107.5 76.5t-69 117t-24.5 149q0 80 24 148
t68.5 117.5t106.5 77t139 27.5q88 0 156.5 -36.5t114.5 -103.5zM419 762h-75l-122 169h71l88 -105l90 105h70z" />
    <glyph glyph-name="ccaron" unicode="&#x10d;" horiz-adv-x="532" 
d="M434 380q-23 35 -57 54.5t-79 19.5q-38 0 -68.5 -14.5t-52 -40t-33 -61.5t-11.5 -78q0 -43 11.5 -78.5t33 -61t52 -40t68.5 -14.5q48 0 82 20.5t57 53.5l62 -47q-33 -47 -85 -76t-121 -29q-57 0 -103 20.5t-78.5 57t-50 86.5t-17.5 108t17.5 107.5t50 86t78.5 57
t103 20.5q70 0 121 -29.5t83 -77.5zM323 594h-75l-122 169h71l88 -105l90 105h70z" />
    <glyph glyph-name="Dcaron" unicode="&#x10e;" horiz-adv-x="742" 
d="M357 84q59 0 104 19.5t75.5 55.5t46 86t15.5 112t-15.5 112.5t-46 86t-75.5 55t-104 19.5h-179v-546h179zM88 0v714h269q81 0 143.5 -27t105 -74.5t65 -113t22.5 -142.5t-22.5 -142t-65 -113t-105 -75t-143.5 -27h-269zM399 762h-75l-122 169h71l88 -105l90 105h70z" />
    <glyph glyph-name="dcaron" unicode="&#x10f;" horiz-adv-x="682" 
d="M456 0v81q-32 -49 -79 -71t-99 -22q-54 0 -97.5 20.5t-73.5 57t-46.5 86t-16.5 107.5t16.5 107.5t47 86t73.5 57.5t97 21q53 0 99.5 -22.5t78.5 -70.5v276h84v-714h-84zM456 260q0 40 -10.5 75.5t-31.5 62t-52 41.5t-71 15q-39 0 -69 -15t-49.5 -41.5t-29.5 -62
t-10 -75.5t10 -75.5t29.5 -61.5t49 -41.5t69.5 -15.5t71 15.5t52 41.5t31.5 61.5t10.5 75.5zM667 447h-45v267h92z" />
    <glyph glyph-name="Dcroat" unicode="&#x110;" horiz-adv-x="760" 
d="M712 357q0 -78 -21.5 -143.5t-63.5 -113t-104 -74t-143 -26.5h-275v329h-61v74h61v311h275q81 0 143 -26.5t104 -73.5t63.5 -113t21.5 -144zM615 357q0 131 -62 202t-174 71h-183v-227h197v-74h-197v-245h183q112 0 174 71t62 202z" />
    <glyph glyph-name="dcroat" unicode="&#x111;" horiz-adv-x="617" 
d="M456 0v81q-32 -49 -79 -71t-99 -22q-54 0 -97.5 20.5t-73.5 57t-46.5 86t-16.5 107.5t16.5 107.5t47 86t73.5 57.5t97 21q53 0 99.5 -22.5t78.5 -70.5v178h-122v50h122v48h84v-48h38v-50h-38v-616h-84zM456 260q0 40 -10.5 75.5t-31.5 62t-52 41.5t-71 15q-39 0 -69 -15
t-49.5 -41.5t-29.5 -62t-10 -75.5t10 -75.5t29.5 -61.5t49 -41.5t69.5 -15.5t71 15.5t52 41.5t31.5 61.5t10.5 75.5z" />
    <glyph glyph-name="Emacron" unicode="&#x112;" horiz-adv-x="633" 
d="M88 0v714h482v-84h-392v-214h349v-80h-349v-252h402v-84h-492zM191 795v61h269v-61h-269z" />
    <glyph glyph-name="emacron" unicode="&#x113;" horiz-adv-x="570" 
d="M442 311q-2 38 -15 65.5t-34 45.5t-47.5 27t-55.5 9q-67 0 -108.5 -41t-46.5 -106h307zM44 258q0 58 17 107.5t48.5 86.5t77.5 58t104 21q55 0 99 -18.5t75 -51.5t47.5 -78t16.5 -98q0 -12 -0.5 -22t-1.5 -18h-394q1 -85 48.5 -132t121.5 -47q44 0 82 17.5t66 52.5
l57 -52q-37 -45 -89 -70.5t-121 -25.5q-60 0 -107.5 20.5t-80 56.5t-49.5 85.5t-17 107.5zM151 627v61h269v-61h-269z" />
    <glyph glyph-name="Ebreve" unicode="&#x114;" horiz-adv-x="633" 
d="M88 0v714h482v-84h-392v-214h349v-80h-349v-252h402v-84h-492zM325 821q45 0 71.5 22.5t42.5 64.5l61 -26q-8 -23 -22 -45.5t-35.5 -40.5t-50.5 -29t-67 -11t-67 11t-50.5 29t-35.5 40.5t-21 45.5l61 26q15 -42 41.5 -64.5t71.5 -22.5z" />
    <glyph glyph-name="ebreve" unicode="&#x115;" horiz-adv-x="570" 
d="M442 311q-2 38 -15 65.5t-34 45.5t-47.5 27t-55.5 9q-67 0 -108.5 -41t-46.5 -106h307zM44 258q0 58 17 107.5t48.5 86.5t77.5 58t104 21q55 0 99 -18.5t75 -51.5t47.5 -78t16.5 -98q0 -12 -0.5 -22t-1.5 -18h-394q1 -85 48.5 -132t121.5 -47q44 0 82 17.5t66 52.5
l57 -52q-37 -45 -89 -70.5t-121 -25.5q-60 0 -107.5 20.5t-80 56.5t-49.5 85.5t-17 107.5zM286 653q45 0 71.5 22.5t42.5 64.5l61 -26q-8 -23 -22 -45.5t-35.5 -40.5t-50.5 -29t-67 -11t-67 11t-50.5 29t-35.5 40.5t-21 45.5l61 26q15 -42 41.5 -64.5t71.5 -22.5z" />
    <glyph glyph-name="Edotaccent" unicode="&#x116;" horiz-adv-x="633" 
d="M88 0v714h482v-84h-392v-214h349v-80h-349v-252h402v-84h-492zM283 786v79h77v-79h-77z" />
    <glyph glyph-name="edotaccent" unicode="&#x117;" horiz-adv-x="570" 
d="M442 311q-2 38 -15 65.5t-34 45.5t-47.5 27t-55.5 9q-67 0 -108.5 -41t-46.5 -106h307zM44 258q0 58 17 107.5t48.5 86.5t77.5 58t104 21q55 0 99 -18.5t75 -51.5t47.5 -78t16.5 -98q0 -12 -0.5 -22t-1.5 -18h-394q1 -85 48.5 -132t121.5 -47q44 0 82 17.5t66 52.5
l57 -52q-37 -45 -89 -70.5t-121 -25.5q-60 0 -107.5 20.5t-80 56.5t-49.5 85.5t-17 107.5zM246 618v79h77v-79h-77z" />
    <glyph glyph-name="Eogonek" unicode="&#x118;" horiz-adv-x="634" 
d="M88 0v714h486v-84h-395v-213h348v-80h-348v-253h403v-84h-44q-33 -22 -50 -41t-17 -40q0 -23 16 -33t36 -10q19 0 33 7.5t27 19.5v-63q-11 -11 -31 -17.5t-43 -6.5q-42 0 -72 22t-30 65q0 29 15 52.5t41 44.5h-375z" />
    <glyph glyph-name="eogonek" unicode="&#x119;" horiz-adv-x="570" 
d="M472 -160q-11 -11 -31 -17.5t-43 -6.5q-41 0 -71.5 22.5t-30.5 69.5q0 45 32 82q-8 -1 -15 -1.5t-18 -0.5q-59 0 -105.5 20.5t-79 56.5t-49.5 85.5t-17 107.5t17 107.5t48.5 86.5t77.5 58t104 21q55 0 99 -18.5t75 -51.5t47.5 -78t16.5 -98q0 -12 -0.5 -22t-1.5 -18h-394
q1 -85 48.5 -132t121.5 -47q44 0 82 17.5t66 52.5l57 -52q-14 -15 -29 -28t-33 -27q-38 -29 -61.5 -51t-23.5 -54q0 -26 15.5 -37t35.5 -11q19 0 33.5 7.5t26.5 19.5v-63zM442 311q-2 38 -15 65.5t-34 45.5t-47.5 27t-55.5 9q-67 0 -108.5 -41t-46.5 -106h307z" />
    <glyph glyph-name="Ecaron" unicode="&#x11a;" horiz-adv-x="633" 
d="M88 0v714h482v-84h-392v-214h349v-80h-349v-252h402v-84h-492zM362 762h-75l-122 169h71l88 -105l90 105h70z" />
    <glyph glyph-name="ecaron" unicode="&#x11b;" horiz-adv-x="570" 
d="M442 311q-2 38 -15 65.5t-34 45.5t-47.5 27t-55.5 9q-67 0 -108.5 -41t-46.5 -106h307zM44 258q0 58 17 107.5t48.5 86.5t77.5 58t104 21q55 0 99 -18.5t75 -51.5t47.5 -78t16.5 -98q0 -12 -0.5 -22t-1.5 -18h-394q1 -85 48.5 -132t121.5 -47q44 0 82 17.5t66 52.5
l57 -52q-37 -45 -89 -70.5t-121 -25.5q-60 0 -107.5 20.5t-80 56.5t-49.5 85.5t-17 107.5zM324 594h-75l-122 169h71l88 -105l90 105h70z" />
    <glyph glyph-name="Gcircumflex" unicode="&#x11c;" horiz-adv-x="748" 
d="M389 643q-58 0 -103.5 -21t-77.5 -58.5t-49 -90t-17 -115.5q0 -65 17 -117.5t48.5 -90.5t77 -58.5t101.5 -20.5q47 0 87.5 15t71 43.5t48.5 70.5t21 95h-190v81h280q5 -22 5 -50q0 -69 -21.5 -130.5t-63 -108t-101.5 -73.5t-137 -27t-140 28t-107 78t-68 117.5t-24 147.5
t24.5 148t69 117t108 76.5t141.5 27.5q91 0 158.5 -37.5t112.5 -101.5l-74 -49q-32 50 -82 77t-116 27zM541 769h-70l-90 104l-88 -104h-71l122 169h75z" />
    <glyph glyph-name="gcircumflex" unicode="&#x11d;" horiz-adv-x="611" 
d="M457 113q-13 -23 -32.5 -40.5t-43.5 -29t-51 -17.5t-54 -6q-51 0 -93 19t-72.5 53t-47.5 80.5t-17 101.5q0 56 17.5 103t48.5 81.5t74 53.5t93 19q55 0 103.5 -23.5t74.5 -69.5v81h85v-446q0 -48 -10.5 -91.5t-42.5 -81.5q-38 -45 -91 -64.5t-116 -19.5q-60 0 -114 16
t-95 47l46 66q30 -25 72 -38.5t90 -13.5q85 0 130.5 42.5t45.5 122.5v55zM457 277q0 37 -10.5 69.5t-30.5 56.5t-51 38t-71 14q-41 0 -70.5 -14t-49.5 -38.5t-29.5 -57t-9.5 -68.5q0 -37 10 -70t29.5 -57.5t49.5 -39t70 -14.5t70.5 14t51 39t31 57.5t10.5 70.5zM449 594h-70
l-90 104l-88 -104h-71l122 169h75z" />
    <glyph glyph-name="Gbreve" unicode="&#x11e;" horiz-adv-x="748" 
d="M389 643q-58 0 -103.5 -21t-77.5 -58.5t-49 -90t-17 -115.5q0 -65 17 -117.5t48.5 -90.5t77 -58.5t101.5 -20.5q47 0 87.5 15t71 43.5t48.5 70.5t21 95h-190v81h280q5 -22 5 -50q0 -69 -21.5 -130.5t-63 -108t-101.5 -73.5t-137 -27t-140 28t-107 78t-68 117.5t-24 147.5
t24.5 148t69 117t108 76.5t141.5 27.5q91 0 158.5 -37.5t112.5 -101.5l-74 -49q-32 50 -82 77t-116 27zM380 821q45 0 71.5 22.5t42.5 64.5l61 -26q-8 -23 -22 -45.5t-35.5 -40.5t-50.5 -29t-67 -11t-67 11t-50.5 29t-35.5 40.5t-21 45.5l61 26q15 -42 41.5 -64.5
t71.5 -22.5z" />
    <glyph glyph-name="gbreve" unicode="&#x11f;" horiz-adv-x="611" 
d="M457 113q-13 -23 -32.5 -40.5t-43.5 -29t-51 -17.5t-54 -6q-51 0 -93 19t-72.5 53t-47.5 80.5t-17 101.5q0 56 17.5 103t48.5 81.5t74 53.5t93 19q55 0 103.5 -23.5t74.5 -69.5v81h85v-446q0 -48 -10.5 -91.5t-42.5 -81.5q-38 -45 -91 -64.5t-116 -19.5q-60 0 -114 16
t-95 47l46 66q30 -25 72 -38.5t90 -13.5q85 0 130.5 42.5t45.5 122.5v55zM457 277q0 37 -10.5 69.5t-30.5 56.5t-51 38t-71 14q-41 0 -70.5 -14t-49.5 -38.5t-29.5 -57t-9.5 -68.5q0 -37 10 -70t29.5 -57.5t49.5 -39t70 -14.5t70.5 14t51 39t31 57.5t10.5 70.5zM286 653
q45 0 71.5 22.5t42.5 64.5l61 -26q-8 -23 -22 -45.5t-35.5 -40.5t-50.5 -29t-67 -11t-67 11t-50.5 29t-35.5 40.5t-21 45.5l61 26q15 -42 41.5 -64.5t71.5 -22.5z" />
    <glyph glyph-name="Gdotaccent" unicode="&#x120;" horiz-adv-x="748" 
d="M389 643q-58 0 -103.5 -21t-77.5 -58.5t-49 -90t-17 -115.5q0 -65 17 -117.5t48.5 -90.5t77 -58.5t101.5 -20.5q47 0 87.5 15t71 43.5t48.5 70.5t21 95h-190v81h280q5 -22 5 -50q0 -69 -21.5 -130.5t-63 -108t-101.5 -73.5t-137 -27t-140 28t-107 78t-68 117.5t-24 147.5
t24.5 148t69 117t108 76.5t141.5 27.5q91 0 158.5 -37.5t112.5 -101.5l-74 -49q-32 50 -82 77t-116 27zM342 786v79h77v-79h-77z" />
    <glyph glyph-name="gdotaccent" unicode="&#x121;" horiz-adv-x="611" 
d="M457 113q-13 -23 -32.5 -40.5t-43.5 -29t-51 -17.5t-54 -6q-51 0 -93 19t-72.5 53t-47.5 80.5t-17 101.5q0 56 17.5 103t48.5 81.5t74 53.5t93 19q55 0 103.5 -23.5t74.5 -69.5v81h85v-446q0 -48 -10.5 -91.5t-42.5 -81.5q-38 -45 -91 -64.5t-116 -19.5q-60 0 -114 16
t-95 47l46 66q30 -25 72 -38.5t90 -13.5q85 0 130.5 42.5t45.5 122.5v55zM457 277q0 37 -10.5 69.5t-30.5 56.5t-51 38t-71 14q-41 0 -70.5 -14t-49.5 -38.5t-29.5 -57t-9.5 -68.5q0 -37 10 -70t29.5 -57.5t49.5 -39t70 -14.5t70.5 14t51 39t31 57.5t10.5 70.5zM250 618v79
h77v-79h-77z" />
    <glyph glyph-name="Gcommaaccent" unicode="&#x122;" horiz-adv-x="748" 
d="M389 643q-58 0 -103.5 -21t-77.5 -58.5t-49 -90t-17 -115.5q0 -65 17 -117.5t48.5 -90.5t77 -58.5t101.5 -20.5q47 0 87.5 15t71 43.5t48.5 70.5t21 95h-190v81h280q5 -22 5 -50q0 -69 -21.5 -130.5t-63 -108t-101.5 -73.5t-137 -27t-140 28t-107 78t-68 117.5t-24 147.5
t24.5 148t69 117t108 76.5t141.5 27.5q91 0 158.5 -37.5t112.5 -101.5l-74 -49q-32 50 -82 77t-116 27zM346 -38h92l-108 -162l-49 26z" />
    <glyph glyph-name="gcommaaccent" unicode="&#x123;" horiz-adv-x="611" 
d="M315 594h-91l108 162l49 -26zM457 113q-13 -23 -32.5 -40.5t-43.5 -29t-51 -17.5t-54 -6q-51 0 -93 19t-72.5 53t-47.5 80.5t-17 101.5q0 56 17.5 103t48.5 81.5t74 53.5t93 19q55 0 103.5 -23.5t74.5 -69.5v81h85v-446q0 -48 -10.5 -91.5t-42.5 -81.5q-38 -45 -91 -64.5
t-116 -19.5q-60 0 -114 16t-95 47l46 66q30 -25 72 -38.5t90 -13.5q85 0 130.5 42.5t45.5 122.5v55zM457 277q0 37 -10.5 69.5t-30.5 56.5t-51 38t-71 14q-41 0 -70.5 -14t-49.5 -38.5t-29.5 -57t-9.5 -68.5q0 -37 10 -70t29.5 -57.5t49.5 -39t70 -14.5t70.5 14t51 39
t31 57.5t10.5 70.5z" />
    <glyph glyph-name="Hcircumflex" unicode="&#x124;" horiz-adv-x="739" 
d="M569 0v336h-391v-336h-90v714h90v-295h391v295h90v-714h-90zM533 769h-70l-90 104l-88 -104h-71l122 169h75z" />
    <glyph glyph-name="hcircumflex" unicode="&#x125;" horiz-adv-x="583" 
d="M77 0v714h84v-273q28 41 72 65.5t101 24.5q81 0 129.5 -50.5t48.5 -144.5v-336h-84v317q0 27 -5 51.5t-18 43t-34.5 30t-55.5 11.5q-33 0 -61 -12t-49 -33.5t-32.5 -51.5t-11.5 -67v-289h-84zM280 762h-70l-90 104l-88 -104h-71l122 169h75z" />
    <glyph glyph-name="Hbar" unicode="&#x126;" horiz-adv-x="747" 
d="M569 0v336h-391v-336h-91v569h-38v55h38v90h91v-90h391v90h90v-90h38v-55h-38v-569h-90zM569 420v149h-391v-149h391z" />
    <glyph glyph-name="hbar" unicode="&#x127;" horiz-adv-x="583" 
d="M77 0v616h-38v50h38v48h84v-48h122v-50h-122v-175q28 41 72 65.5t101 24.5q81 0 129.5 -50.5t48.5 -144.5v-336h-84v317q0 27 -5 51.5t-18 43t-34.5 30t-55.5 11.5q-33 0 -61 -12t-49 -33.5t-32.5 -51.5t-11.5 -67v-289h-84z" />
    <glyph glyph-name="Itilde" unicode="&#x128;" horiz-adv-x="266" 
d="M88 0v714h90v-714h-90zM-49 802q14 35 43 60.5t75 25.5q18 0 34.5 -5t39.5 -17q15 -8 29 -14.5t30 -6.5q25 0 39.5 14t22.5 29l51 -24q-13 -35 -42.5 -60t-74.5 -25q-17 0 -35 4.5t-41 17.5q-16 9 -29.5 15t-28.5 6q-25 0 -40 -14.5t-22 -28.5z" />
    <glyph glyph-name="itilde" unicode="&#x129;" horiz-adv-x="238" 
d="M77 0v519h84v-519h-84zM-57 634q14 35 43 60.5t75 25.5q18 0 34.5 -5t39.5 -17q15 -8 29 -14.5t30 -6.5q25 0 39.5 14t22.5 29l51 -24q-13 -35 -42.5 -60t-74.5 -25q-17 0 -35 4.5t-41 17.5q-16 9 -29.5 15t-28.5 6q-25 0 -40 -14.5t-22 -28.5z" />
    <glyph glyph-name="Imacron" unicode="&#x12a;" horiz-adv-x="266" 
d="M88 0v714h90v-714h-90zM-2 795v61h269v-61h-269z" />
    <glyph glyph-name="imacron" unicode="&#x12b;" horiz-adv-x="238" 
d="M77 0v519h84v-519h-84zM-20 627v61h269v-61h-269z" />
    <glyph glyph-name="Ibreve" unicode="&#x12c;" horiz-adv-x="266" 
d="M88 0v714h90v-714h-90zM133 821q45 0 71.5 22.5t42.5 64.5l61 -26q-8 -23 -22 -45.5t-35.5 -40.5t-50.5 -29t-67 -11t-67 11t-50.5 29t-35.5 40.5t-21 45.5l61 26q15 -42 41.5 -64.5t71.5 -22.5z" />
    <glyph glyph-name="ibreve" unicode="&#x12d;" horiz-adv-x="238" 
d="M77 0v519h84v-519h-84zM125 653q45 0 71.5 22.5t42.5 64.5l61 -26q-8 -23 -22 -45.5t-35.5 -40.5t-50.5 -29t-67 -11t-67 11t-50.5 29t-35.5 40.5t-21 45.5l61 26q15 -42 41.5 -64.5t71.5 -22.5z" />
    <glyph glyph-name="Iogonek" unicode="&#x12e;" horiz-adv-x="266" 
d="M178 0q-41 -20 -62.5 -39.5t-21.5 -43.5q0 -22 15.5 -31.5t34.5 -9.5q18 0 32.5 8t25.5 19v-63q-11 -11 -30 -17.5t-42 -6.5q-41 0 -70.5 21t-29.5 63q0 30 15.5 54.5t42.5 45.5v714h90v-714v0z" />
    <glyph glyph-name="iogonek" unicode="&#x12f;" horiz-adv-x="238" 
d="M77 519h84v-519q-12 -2 -27.5 -8.5t-28.5 -16.5t-22 -24t-9 -32q0 -19 12.5 -30.5t34.5 -11.5q20 0 35.5 10.5t25.5 23.5v-66q-11 -11 -30 -20t-45 -9q-40 0 -67.5 22.5t-27.5 59.5q0 26 15 53.5t50 48.5v519zM77 624v90h84v-90h-84z" />
    <glyph glyph-name="Idotaccent" unicode="&#x130;" horiz-adv-x="266" 
d="M88 0v714h90v-714h-90zM94 780v79h77v-79h-77z" />
    <glyph glyph-name="dotlessi" unicode="&#x131;" horiz-adv-x="238" 
d="M77 0v519h84v-519h-84z" />
    <glyph glyph-name="Jcircumflex" unicode="&#x134;" horiz-adv-x="495" 
d="M324 714h90v-473q0 -52 -7.5 -94t-30.5 -74q-29 -45 -74.5 -65.5t-101.5 -20.5q-61 0 -110.5 25.5t-78.5 75.5l71 48q23 -38 55 -52.5t64 -14.5q68 0 95.5 42t27.5 111v492zM527 762h-70l-90 104l-88 -104h-71l122 169h75z" />
    <glyph glyph-name="jcircumflex" unicode="&#x135;" horiz-adv-x="238" 
d="M161 -45q0 -44 -12.5 -70.5t-31.5 -41.5t-42 -20t-44 -5q-17 0 -34.5 2.5t-31.5 8.5l15 69q5 -3 14.5 -6t25.5 -3q12 0 22 3t18 11t12.5 22.5t4.5 37.5v556h84v-564zM278 594h-70l-90 104l-88 -104h-71l122 169h75z" />
    <glyph glyph-name="Kcommaaccent" unicode="&#x136;" horiz-adv-x="663" 
d="M549 0l-243 351l-128 -148v-203h-90v714h90v-391l344 391h113l-266 -296l294 -418h-114zM324 -38h92l-108 -162l-49 26z" />
    <glyph glyph-name="kcommaaccent" unicode="&#x137;" horiz-adv-x="552" 
d="M415 519h106l-204 -213l230 -306h-106l-183 251l-97 -102v-149h-84v714h84v-466zM266 -38h92l-108 -162l-49 26z" />
    <glyph glyph-name="kgreenlandic" unicode="&#x138;" horiz-adv-x="553" 
d="M415 519h106l-204 -213l231 -306h-106l-184 251l-96 -102v-149h-85v519h85v-271z" />
    <glyph glyph-name="Lacute" unicode="&#x139;" horiz-adv-x="567" 
d="M88 0v714h90v-630h375v-84h-465zM208 939l64 -37l-108 -140h-71z" />
    <glyph glyph-name="lacute" unicode="&#x13a;" horiz-adv-x="243" 
d="M79 0v714h84v-714h-84zM197 931l64 -37l-108 -140h-71z" />
    <glyph glyph-name="Lcommaaccent" unicode="&#x13b;" horiz-adv-x="567" 
d="M88 0v714h90v-630h375v-84h-465zM295 -38h92l-108 -162l-49 26z" />
    <glyph glyph-name="lcommaaccent" unicode="&#x13c;" horiz-adv-x="243" 
d="M79 0v714h84v-714h-84zM80 -38h92l-108 -162l-49 26z" />
    <glyph glyph-name="Lcaron" unicode="&#x13d;" horiz-adv-x="567" 
d="M88 0v714h90v-630h375v-84h-465zM331 447h-45v267h92z" />
    <glyph glyph-name="lcaron" unicode="&#x13e;" horiz-adv-x="309" 
d="M294 447h-45v267h92zM79 0v714h84v-714h-84z" />
    <glyph glyph-name="Ldot" unicode="&#x13f;" horiz-adv-x="567" 
d="M88 0v714h90v-630h375v-84h-465zM447 333q0 -26 -18.5 -44t-43.5 -18q-26 0 -44.5 18t-18.5 44t18.5 44.5t44.5 18.5q25 0 43.5 -18.5t18.5 -44.5z" />
    <glyph glyph-name="ldot" unicode="&#x140;" horiz-adv-x="409" 
d="M79 0v714h84v-714h-84zM384 259q0 -26 -18.5 -44t-43.5 -18q-26 0 -44.5 18t-18.5 44t18.5 44.5t44.5 18.5q25 0 43.5 -18.5t18.5 -44.5z" />
    <glyph glyph-name="Lslash" unicode="&#x141;" horiz-adv-x="581" 
d="M103 0v295l-64 -29v70l64 28v350h90v-311l184 81v-70l-184 -81v-249h375v-84h-465z" />
    <glyph glyph-name="lslash" unicode="&#x142;" horiz-adv-x="309" 
d="M197 408v-408h-84v372l-91 -43v73l91 43v269h84v-233l98 45v-73z" />
    <glyph glyph-name="Nacute" unicode="&#x143;" horiz-adv-x="742" 
d="M555 0l-378 590v-590h-89v714h111l367 -570v570h88v-714h-99zM436 939l64 -37l-108 -140h-71z" />
    <glyph glyph-name="nacute" unicode="&#x144;" horiz-adv-x="583" 
d="M77 0v519h84v-78q28 41 72 65.5t101 24.5q81 0 129.5 -50.5t48.5 -144.5v-336h-84v317q0 27 -5 51.5t-18 43t-34.5 30t-55.5 11.5q-33 0 -61 -12t-49 -33.5t-32.5 -51.5t-11.5 -67v-289h-84zM368 771l64 -37l-108 -140h-71z" />
    <glyph glyph-name="Ncommaaccent" unicode="&#x145;" horiz-adv-x="742" 
d="M555 0l-378 590v-590h-89v714h111l367 -570v570h88v-714h-99zM345 -38h92l-108 -162l-49 26z" />
    <glyph glyph-name="ncommaaccent" unicode="&#x146;" horiz-adv-x="583" 
d="M77 0v519h84v-78q28 41 72 65.5t101 24.5q81 0 129.5 -50.5t48.5 -144.5v-336h-84v317q0 27 -5 51.5t-18 43t-34.5 30t-55.5 11.5q-33 0 -61 -12t-49 -33.5t-32.5 -51.5t-11.5 -67v-289h-84zM267 -38h92l-108 -162l-49 26z" />
    <glyph glyph-name="Ncaron" unicode="&#x147;" horiz-adv-x="742" 
d="M555 0l-378 590v-590h-89v714h111l367 -570v570h88v-714h-99zM408 762h-75l-122 169h71l88 -105l90 105h70z" />
    <glyph glyph-name="ncaron" unicode="&#x148;" horiz-adv-x="583" 
d="M77 0v519h84v-78q28 41 72 65.5t101 24.5q81 0 129.5 -50.5t48.5 -144.5v-336h-84v317q0 27 -5 51.5t-18 43t-34.5 30t-55.5 11.5q-33 0 -61 -12t-49 -33.5t-32.5 -51.5t-11.5 -67v-289h-84zM334 594h-75l-122 169h71l88 -105l90 105h70z" />
    <glyph glyph-name="Eng" unicode="&#x14a;" horiz-adv-x="742" 
d="M654 70q0 -66 -15.5 -110t-41.5 -71t-61.5 -38.5t-75.5 -11.5q-31 0 -60.5 7t-53.5 22l33 78q29 -24 79 -24q40 0 65.5 20t35.5 54l-382 594v-590h-89v714h111l367 -570v570h88v-644z" />
    <glyph glyph-name="eng" unicode="&#x14b;" horiz-adv-x="583" 
d="M77 0v519h84v-78q28 41 72 65.5t101 24.5q81 0 129.5 -50.5t48.5 -144.5v-381q0 -44 -12.5 -70.5t-31.5 -41.5t-42 -20t-44 -5q-18 0 -35 2.5t-31 8.5l15 69q5 -3 14 -6t26 -3q12 0 22 3t18 11t12.5 22.5t4.5 37.5v354q0 27 -5 51.5t-18 43t-34.5 30t-55.5 11.5
q-33 0 -61 -12t-49 -33.5t-32.5 -51.5t-11.5 -67v-289h-84z" />
    <glyph glyph-name="Omacron" unicode="&#x14c;" horiz-adv-x="772" 
d="M726 357q0 -79 -24 -146.5t-68.5 -117t-107 -78t-140.5 -28.5t-140.5 28.5t-107 78t-68.5 117t-24 146.5t24 147t68.5 117.5t107 77.5t140.5 28t140.5 -28t107 -77.5t68.5 -117.5t24 -147zM631 357q0 63 -17 115t-48.5 89.5t-77 58.5t-102.5 21t-102.5 -21t-77 -58.5
t-48 -89.5t-16.5 -115t16.5 -115.5t48 -90t77 -58t102.5 -20.5t102.5 20.5t77 58t48.5 90t17 115.5zM250 795v61h269v-61h-269z" />
    <glyph glyph-name="omacron" unicode="&#x14d;" horiz-adv-x="584" 
d="M540 259q0 -58 -17.5 -107.5t-49.5 -86t-78.5 -57t-103.5 -20.5t-102.5 20.5t-78 57t-49.5 86t-17 107.5q0 59 17 109t49.5 86t78 56.5t102.5 20.5t103.5 -20.5t78.5 -56.5t49.5 -86t17.5 -109zM450 259q0 42 -10.5 77.5t-31 62t-50 41.5t-67.5 15t-67 -15t-49.5 -41.5
t-31 -62t-10.5 -77.5q0 -41 10.5 -76.5t31 -62t49.5 -41.5t67 -15t67.5 15t50 41.5t31 62t10.5 76.5zM157 627v61h269v-61h-269z" />
    <glyph glyph-name="Obreve" unicode="&#x14e;" horiz-adv-x="772" 
d="M726 357q0 -79 -24 -146.5t-68.5 -117t-107 -78t-140.5 -28.5t-140.5 28.5t-107 78t-68.5 117t-24 146.5t24 147t68.5 117.5t107 77.5t140.5 28t140.5 -28t107 -77.5t68.5 -117.5t24 -147zM631 357q0 63 -17 115t-48.5 89.5t-77 58.5t-102.5 21t-102.5 -21t-77 -58.5
t-48 -89.5t-16.5 -115t16.5 -115.5t48 -90t77 -58t102.5 -20.5t102.5 20.5t77 58t48.5 90t17 115.5zM386 821q45 0 71.5 22.5t42.5 64.5l61 -26q-8 -23 -22 -45.5t-35.5 -40.5t-50.5 -29t-67 -11t-67 11t-50.5 29t-35.5 40.5t-21 45.5l61 26q15 -42 41.5 -64.5t71.5 -22.5z
" />
    <glyph glyph-name="obreve" unicode="&#x14f;" horiz-adv-x="584" 
d="M540 259q0 -58 -17.5 -107.5t-49.5 -86t-78.5 -57t-103.5 -20.5t-102.5 20.5t-78 57t-49.5 86t-17 107.5q0 59 17 109t49.5 86t78 56.5t102.5 20.5t103.5 -20.5t78.5 -56.5t49.5 -86t17.5 -109zM450 259q0 42 -10.5 77.5t-31 62t-50 41.5t-67.5 15t-67 -15t-49.5 -41.5
t-31 -62t-10.5 -77.5q0 -41 10.5 -76.5t31 -62t49.5 -41.5t67 -15t67.5 15t50 41.5t31 62t10.5 76.5zM292 653q45 0 71.5 22.5t42.5 64.5l61 -26q-8 -23 -22 -45.5t-35.5 -40.5t-50.5 -29t-67 -11t-67 11t-50.5 29t-35.5 40.5t-21 45.5l61 26q15 -42 41.5 -64.5t71.5 -22.5z
" />
    <glyph glyph-name="Ohungarumlaut" unicode="&#x150;" horiz-adv-x="772" 
d="M726 357q0 -79 -24 -146.5t-68.5 -117t-107 -78t-140.5 -28.5t-140.5 28.5t-107 78t-68.5 117t-24 146.5t24 147t68.5 117.5t107 77.5t140.5 28t140.5 -28t107 -77.5t68.5 -117.5t24 -147zM631 357q0 63 -17 115t-48.5 89.5t-77 58.5t-102.5 21t-102.5 -21t-77 -58.5
t-48 -89.5t-16.5 -115t16.5 -115.5t48 -90t77 -58t102.5 -20.5t102.5 20.5t77 58t48.5 90t17 115.5zM370 939l64 -37l-108 -140h-70zM528 939l64 -37l-109 -140h-70z" />
    <glyph glyph-name="ohungarumlaut" unicode="&#x151;" horiz-adv-x="584" 
d="M540 259q0 -58 -17.5 -107.5t-49.5 -86t-78.5 -57t-103.5 -20.5t-102.5 20.5t-78 57t-49.5 86t-17 107.5q0 59 17 109t49.5 86t78 56.5t102.5 20.5t103.5 -20.5t78.5 -56.5t49.5 -86t17.5 -109zM450 259q0 42 -10.5 77.5t-31 62t-50 41.5t-67.5 15t-67 -15t-49.5 -41.5
t-31 -62t-10.5 -77.5q0 -41 10.5 -76.5t31 -62t49.5 -41.5t67 -15t67.5 15t50 41.5t31 62t10.5 76.5zM282 771l64 -37l-108 -140h-70zM440 771l64 -37l-109 -140h-70z" />
    <glyph glyph-name="OE" unicode="&#x152;" horiz-adv-x="1073" 
d="M482 0q-23 -6 -47 -9.5t-50 -3.5q-78 0 -140.5 28.5t-107 78t-68.5 117t-24 146.5t24 147t68.5 117.5t107 77.5t140.5 28q26 0 50 -3.5t47 -9.5h531v-84h-394q42 -40 67.5 -94t33.5 -120h250v-80h-247q-3 -78 -30 -142.5t-75 -109.5h405v-84h-541zM629 357q0 63 -17 115
t-48.5 89.5t-76.5 58.5t-102 21t-102.5 -21t-77 -58.5t-48 -89.5t-16.5 -115t16.5 -115.5t48 -90t77 -58t102.5 -20.5t102 20.5t76.5 58t48.5 90t17 115.5z" />
    <glyph glyph-name="oe" unicode="&#x153;" horiz-adv-x="977" 
d="M291 531q69 0 121 -32.5t81 -88.5q29 56 81 88.5t124 32.5q55 0 99 -18.5t75 -51.5t47.5 -78t16.5 -98q0 -12 -1 -22t-2 -18h-393q1 -85 48 -132t121 -47q44 0 82.5 17.5t65.5 52.5l57 -52q-36 -45 -88.5 -70.5t-121.5 -25.5q-75 0 -128.5 32t-82.5 87q-29 -54 -81 -86.5
t-121 -32.5q-57 0 -102.5 20.5t-78 57t-49.5 86t-17 107.5q0 59 17 109t49.5 86t78 56.5t102.5 20.5zM450 259q0 42 -10.5 77.5t-31 62t-50 41.5t-67.5 15t-67 -15t-49.5 -41.5t-31 -62t-10.5 -77.5q0 -41 10.5 -76.5t31 -62t49.5 -41.5t67 -15t67.5 15t50 41.5t31 62
t10.5 76.5zM849 311q-3 38 -16 65.5t-33.5 45.5t-47 27t-55.5 9q-68 0 -109 -41t-46 -106h307z" />
    <glyph glyph-name="Racute" unicode="&#x154;" horiz-adv-x="668" 
d="M529 0l-153 294h-198v-294h-90v714h304q53 0 95.5 -14.5t72.5 -41t46.5 -64.5t16.5 -85q0 -76 -39.5 -127t-113.5 -74l162 -308h-103zM529 502q0 59 -38 93.5t-102 34.5h-211v-256h209q67 0 104.5 35.5t37.5 92.5zM386 939l64 -37l-108 -140h-71z" />
    <glyph glyph-name="racute" unicode="&#x155;" horiz-adv-x="383" 
d="M362 434q-11 7 -28 10.5t-34 3.5q-28 0 -53 -11.5t-44 -34t-30.5 -56.5t-11.5 -79v-267h-84v519h84v-76q22 38 62.5 62t88.5 24q23 0 41.5 -5.5t28.5 -12.5zM283 771l64 -37l-108 -140h-71z" />
    <glyph glyph-name="Rcommaaccent" unicode="&#x156;" horiz-adv-x="668" 
d="M529 0l-153 294h-198v-294h-90v714h304q53 0 95.5 -14.5t72.5 -41t46.5 -64.5t16.5 -85q0 -76 -39.5 -127t-113.5 -74l162 -308h-103zM529 502q0 59 -38 93.5t-102 34.5h-211v-256h209q67 0 104.5 35.5t37.5 92.5zM317 -38h92l-108 -162l-49 26z" />
    <glyph glyph-name="rcommaaccent" unicode="&#x157;" horiz-adv-x="383" 
d="M77 -38h92l-108 -162l-49 26zM362 434q-11 7 -28 10.5t-34 3.5q-28 0 -53 -11.5t-44 -34t-30.5 -56.5t-11.5 -79v-267h-84v519h84v-76q22 38 62.5 62t88.5 24q23 0 41.5 -5.5t28.5 -12.5z" />
    <glyph glyph-name="Rcaron" unicode="&#x158;" horiz-adv-x="668" 
d="M529 0l-153 294h-198v-294h-90v714h304q53 0 95.5 -14.5t72.5 -41t46.5 -64.5t16.5 -85q0 -76 -39.5 -127t-113.5 -74l162 -308h-103zM529 502q0 59 -38 93.5t-102 34.5h-211v-256h209q67 0 104.5 35.5t37.5 92.5zM370 762h-75l-122 169h71l88 -105l90 105h70z" />
    <glyph glyph-name="rcaron" unicode="&#x159;" horiz-adv-x="383" 
d="M262 594h-75l-122 169h71l88 -105l90 105h70zM362 434q-11 7 -28 10.5t-34 3.5q-28 0 -53 -11.5t-44 -34t-30.5 -56.5t-11.5 -79v-267h-84v519h84v-76q22 38 62.5 62t88.5 24q23 0 41.5 -5.5t28.5 -12.5z" />
    <glyph glyph-name="Sacute" unicode="&#x15a;" horiz-adv-x="610" 
d="M296 645q-31 0 -58 -7t-47.5 -21t-32.5 -34.5t-12 -47.5q0 -36 23 -58t61 -36q28 -11 63.5 -20t73 -20t73 -26t63.5 -38t45 -55.5t17 -78.5q0 -47 -18 -86.5t-51.5 -68t-82 -45t-108.5 -16.5q-90 0 -160 36t-111 100l73 51q18 -30 42 -50t51 -32t55 -17.5t55 -5.5
q75 0 119.5 34.5t44.5 92.5q0 30 -12.5 50.5t-35.5 34.5t-55 23.5t-70 19.5q-44 10 -88 23.5t-79 36.5t-57 57.5t-22 87.5q0 49 20 86t53.5 62t78 37.5t93.5 12.5q77 0 141 -30t108 -88l-69 -51q-32 41 -79 64t-105 23zM350 939l64 -37l-108 -140h-71z" />
    <glyph glyph-name="sacute" unicode="&#x15b;" horiz-adv-x="495" 
d="M91 123q32 -33 71.5 -47t85.5 -14q54 0 87.5 20.5t33.5 64.5q0 19 -8 31.5t-25.5 21.5t-44.5 15.5t-65 14.5q-33 7 -64.5 16.5t-55.5 26.5t-39 42.5t-15 63.5q0 40 16 68.5t43 47t62 27.5t73 9q68 0 117 -23.5t81 -56.5l-51 -55q-24 27 -62.5 44.5t-87.5 17.5
q-21 0 -40.5 -4t-35.5 -12t-25.5 -22t-9.5 -33q0 -20 10.5 -33t27.5 -21.5t39 -14t46 -10.5q39 -8 74.5 -18t63 -27t43.5 -43.5t16 -66.5q0 -74 -54.5 -119.5t-151.5 -45.5q-66 0 -118 21.5t-89 58.5zM298 771l64 -37l-108 -140h-71z" />
    <glyph glyph-name="Scircumflex" unicode="&#x15c;" horiz-adv-x="610" 
d="M296 645q-31 0 -58 -7t-47.5 -21t-32.5 -34.5t-12 -47.5q0 -36 23 -58t61 -36q28 -11 63.5 -20t73 -20t73 -26t63.5 -38t45 -55.5t17 -78.5q0 -47 -18 -86.5t-51.5 -68t-82 -45t-108.5 -16.5q-90 0 -160 36t-111 100l73 51q18 -30 42 -50t51 -32t55 -17.5t55 -5.5
q75 0 119.5 34.5t44.5 92.5q0 30 -12.5 50.5t-35.5 34.5t-55 23.5t-70 19.5q-44 10 -88 23.5t-79 36.5t-57 57.5t-22 87.5q0 49 20 86t53.5 62t78 37.5t93.5 12.5q77 0 141 -30t108 -88l-69 -51q-32 41 -79 64t-105 23zM458 771h-70l-90 104l-88 -104h-71l122 169h75z" />
    <glyph glyph-name="scircumflex" unicode="&#x15d;" horiz-adv-x="495" 
d="M91 123q32 -33 71.5 -47t85.5 -14q54 0 87.5 20.5t33.5 64.5q0 19 -8 31.5t-25.5 21.5t-44.5 15.5t-65 14.5q-33 7 -64.5 16.5t-55.5 26.5t-39 42.5t-15 63.5q0 40 16 68.5t43 47t62 27.5t73 9q68 0 117 -23.5t81 -56.5l-51 -55q-24 27 -62.5 44.5t-87.5 17.5
q-21 0 -40.5 -4t-35.5 -12t-25.5 -22t-9.5 -33q0 -20 10.5 -33t27.5 -21.5t39 -14t46 -10.5q39 -8 74.5 -18t63 -27t43.5 -43.5t16 -66.5q0 -74 -54.5 -119.5t-151.5 -45.5q-66 0 -118 21.5t-89 58.5zM402 594h-70l-90 104l-88 -104h-71l122 169h75z" />
    <glyph glyph-name="Scedilla" unicode="&#x15e;" horiz-adv-x="610" 
d="M296 645q-31 0 -58 -7t-47.5 -21t-32.5 -34.5t-12 -47.5q0 -36 23 -58t61 -36q28 -11 63.5 -20t73 -20t73 -26t63.5 -38t45 -55.5t17 -78.5q0 -47 -18 -86.5t-51.5 -68t-82 -45t-108.5 -16.5q-90 0 -160 36t-111 100l73 51q18 -30 42 -50t51 -32t55 -17.5t55 -5.5
q75 0 119.5 34.5t44.5 92.5q0 30 -12.5 50.5t-35.5 34.5t-55 23.5t-70 19.5q-44 10 -88 23.5t-79 36.5t-57 57.5t-22 87.5q0 49 20 86t53.5 62t78 37.5t93.5 12.5q77 0 141 -30t108 -88l-69 -51q-32 41 -79 64t-105 23zM258 -188q-21 0 -42.5 3.5t-32.5 7.5v51
q14 -9 34 -11.5t31 -2.5q30 0 44 11.5t14 27.5q0 8 -3.5 13t-8.5 8h-47v53q7 5 19.5 7t23.5 2q16 0 31.5 -5t27.5 -15t19.5 -25t7.5 -34q0 -42 -32.5 -66.5t-85.5 -24.5z" />
    <glyph glyph-name="scedilla" unicode="&#x15f;" horiz-adv-x="495" 
d="M91 123q32 -33 71.5 -47t85.5 -14q54 0 87.5 20.5t33.5 64.5q0 19 -8 31.5t-25.5 21.5t-44.5 15.5t-65 14.5q-33 7 -64.5 16.5t-55.5 26.5t-39 42.5t-15 63.5q0 40 16 68.5t43 47t62 27.5t73 9q68 0 117 -23.5t81 -56.5l-51 -55q-24 27 -62.5 44.5t-87.5 17.5
q-21 0 -40.5 -4t-35.5 -12t-25.5 -22t-9.5 -33q0 -20 10.5 -33t27.5 -21.5t39 -14t46 -10.5q39 -8 74.5 -18t63 -27t43.5 -43.5t16 -66.5q0 -74 -54.5 -119.5t-151.5 -45.5q-66 0 -118 21.5t-89 58.5zM205 -188q-21 0 -42.5 3.5t-32.5 7.5v51q14 -9 34 -11.5t31 -2.5
q30 0 44 11.5t14 27.5q0 8 -3.5 13t-8.5 8h-47v53q7 5 19.5 7t23.5 2q16 0 31.5 -5t27.5 -15t19.5 -25t7.5 -34q0 -42 -32.5 -66.5t-85.5 -24.5z" />
    <glyph glyph-name="Scaron" unicode="&#x160;" horiz-adv-x="610" 
d="M296 645q-31 0 -58 -7t-47.5 -21t-32.5 -34.5t-12 -47.5q0 -36 23 -58t61 -36q28 -11 63.5 -20t73 -20t73 -26t63.5 -38t45 -55.5t17 -78.5q0 -47 -18 -86.5t-51.5 -68t-82 -45t-108.5 -16.5q-90 0 -160 36t-111 100l73 51q18 -30 42 -50t51 -32t55 -17.5t55 -5.5
q75 0 119.5 34.5t44.5 92.5q0 30 -12.5 50.5t-35.5 34.5t-55 23.5t-70 19.5q-44 10 -88 23.5t-79 36.5t-57 57.5t-22 87.5q0 49 20 86t53.5 62t78 37.5t93.5 12.5q77 0 141 -30t108 -88l-69 -51q-32 41 -79 64t-105 23zM332 762h-75l-122 169h71l88 -105l90 105h70z" />
    <glyph glyph-name="scaron" unicode="&#x161;" horiz-adv-x="495" 
d="M91 123q32 -33 71.5 -47t85.5 -14q54 0 87.5 20.5t33.5 64.5q0 19 -8 31.5t-25.5 21.5t-44.5 15.5t-65 14.5q-33 7 -64.5 16.5t-55.5 26.5t-39 42.5t-15 63.5q0 40 16 68.5t43 47t62 27.5t73 9q68 0 117 -23.5t81 -56.5l-51 -55q-24 27 -62.5 44.5t-87.5 17.5
q-21 0 -40.5 -4t-35.5 -12t-25.5 -22t-9.5 -33q0 -20 10.5 -33t27.5 -21.5t39 -14t46 -10.5q39 -8 74.5 -18t63 -27t43.5 -43.5t16 -66.5q0 -74 -54.5 -119.5t-151.5 -45.5q-66 0 -118 21.5t-89 58.5zM278 594h-75l-122 169h71l88 -105l90 105h70z" />
    <glyph glyph-name="Tcedilla" unicode="&#x162;" horiz-adv-x="621" 
d="M355 630v-630h-90v630h-241v84h572v-84h-241zM276 -188q-21 0 -42.5 3.5t-32.5 7.5v51q14 -9 34 -11.5t31 -2.5q30 0 44 11.5t14 27.5q0 8 -3.5 13t-8.5 8h-47v53q7 5 19.5 7t23.5 2q16 0 31.5 -5t27.5 -15t19.5 -25t7.5 -34q0 -42 -32.5 -66.5t-85.5 -24.5z" />
    <glyph glyph-name="tcedilla" unicode="&#x163;" horiz-adv-x="364" 
d="M349 11q-16 -11 -40.5 -16.5t-52.5 -5.5q-65 0 -102 34.5t-37 113.5v309h-97v73h97v195h84v-195h137v-73h-137v-297q0 -46 18 -65t51 -19q18 0 33.5 4.5t24.5 11.5zM190 -188q-21 0 -42.5 3.5t-32.5 7.5v51q14 -9 34 -11.5t31 -2.5q30 0 44 11.5t14 27.5q0 8 -3.5 13
t-8.5 8h-47v53q7 5 19.5 7t23.5 2q16 0 31.5 -5t27.5 -15t19.5 -25t7.5 -34q0 -42 -32.5 -66.5t-85.5 -24.5z" />
    <glyph glyph-name="Tcaron" unicode="&#x164;" horiz-adv-x="621" 
d="M355 630v-630h-90v630h-241v84h572v-84h-241zM347 762h-75l-122 169h71l88 -105l90 105h70z" />
    <glyph glyph-name="tcaron" unicode="&#x165;" horiz-adv-x="367" 
d="M349 11q-16 -11 -40.5 -16.5t-52.5 -5.5q-65 0 -102 34.5t-37 113.5v309h-97v73h97v195h84v-195h137v-73h-137v-297q0 -46 18 -65t51 -19q18 0 33.5 4.5t24.5 11.5zM310.664 544.688h-42.5371v233.364h86.9639z" />
    <glyph glyph-name="Tbar" unicode="&#x166;" horiz-adv-x="621" 
d="M355 347v-347h-91v347h-112v54h112v229h-240v84h572v-84h-241v-229h113v-54h-113z" />
    <glyph glyph-name="tbar" unicode="&#x167;" horiz-adv-x="389" 
d="M359 11q-17 -11 -41.5 -16.5t-51.5 -5.5q-66 0 -102.5 34.5t-36.5 113.5v137h-87v54h87v118h-98v73h98v195h84v-195h136v-73h-136v-118h110v-54h-110v-125q0 -46 17.5 -65t50.5 -19q18 0 34 4.5t25 11.5z" />
    <glyph glyph-name="Utilde" unicode="&#x168;" horiz-adv-x="712" 
d="M631 259q0 -62 -21 -112.5t-57.5 -86t-87 -54.5t-110.5 -19t-110.5 19t-87 54.5t-57 86t-20.5 112.5v455h90v-455q0 -85 49 -135.5t136 -50.5q43 0 77.5 13.5t58.5 37.5t37 58.5t13 76.5v455h90v-455zM174 802q14 35 43 60.5t75 25.5q18 0 34.5 -5t39.5 -17
q15 -8 29 -14.5t30 -6.5q25 0 39.5 14t22.5 29l51 -24q-13 -35 -42.5 -60t-74.5 -25q-17 0 -35 4.5t-41 17.5q-16 9 -29.5 15t-28.5 6q-25 0 -40 -14.5t-22 -28.5z" />
    <glyph glyph-name="utilde" unicode="&#x169;" horiz-adv-x="584" 
d="M507 519v-519h-84v78q-27 -41 -71.5 -65.5t-101.5 -24.5q-81 0 -129.5 51t-48.5 144v336h85v-316q0 -27 5 -51.5t17.5 -43.5t34 -30t55.5 -11q33 0 61 11.5t49 33t32.5 51.5t11.5 67v289h84zM108 634q14 35 43 60.5t75 25.5q18 0 34.5 -5t39.5 -17q15 -8 29 -14.5
t30 -6.5q25 0 39.5 14t22.5 29l51 -24q-13 -35 -42.5 -60t-74.5 -25q-17 0 -35 4.5t-41 17.5q-16 9 -29.5 15t-28.5 6q-25 0 -40 -14.5t-22 -28.5z" />
    <glyph glyph-name="Umacron" unicode="&#x16a;" horiz-adv-x="712" 
d="M631 259q0 -62 -21 -112.5t-57.5 -86t-87 -54.5t-110.5 -19t-110.5 19t-87 54.5t-57 86t-20.5 112.5v455h90v-455q0 -85 49 -135.5t136 -50.5q43 0 77.5 13.5t58.5 37.5t37 58.5t13 76.5v455h90v-455zM221 795v61h269v-61h-269z" />
    <glyph glyph-name="umacron" unicode="&#x16b;" horiz-adv-x="582" 
d="M505 519v-519h-84v78q-27 -41 -71.5 -65.5t-101.5 -24.5q-81 0 -129.5 51t-48.5 144v336h85v-316q0 -27 5 -51.5t17.5 -43.5t34 -30t55.5 -11q33 0 61 11.5t49 33t32.5 51.5t11.5 67v289h84zM153 627v61h269v-61h-269z" />
    <glyph glyph-name="Ubreve" unicode="&#x16c;" horiz-adv-x="712" 
d="M631 259q0 -62 -21 -112.5t-57.5 -86t-87 -54.5t-110.5 -19t-110.5 19t-87 54.5t-57 86t-20.5 112.5v455h90v-455q0 -85 49 -135.5t136 -50.5q43 0 77.5 13.5t58.5 37.5t37 58.5t13 76.5v455h90v-455zM355 821q45 0 71.5 22.5t42.5 64.5l61 -26q-8 -23 -22 -45.5
t-35.5 -40.5t-50.5 -29t-67 -11t-67 11t-50.5 29t-35.5 40.5t-21 45.5l61 26q15 -42 41.5 -64.5t71.5 -22.5z" />
    <glyph glyph-name="ubreve" unicode="&#x16d;" horiz-adv-x="582" 
d="M505 519v-519h-84v78q-27 -41 -71.5 -65.5t-101.5 -24.5q-81 0 -129.5 51t-48.5 144v336h85v-316q0 -27 5 -51.5t17.5 -43.5t34 -30t55.5 -11q33 0 61 11.5t49 33t32.5 51.5t11.5 67v289h84zM287 653q45 0 71.5 22.5t42.5 64.5l61 -26q-8 -23 -22 -45.5t-35.5 -40.5
t-50.5 -29t-67 -11t-67 11t-50.5 29t-35.5 40.5t-21 45.5l61 26q15 -42 41.5 -64.5t71.5 -22.5z" />
    <glyph glyph-name="Uring" unicode="&#x16e;" horiz-adv-x="712" 
d="M631 259q0 -62 -21 -112.5t-57.5 -86t-87 -54.5t-110.5 -19t-110.5 19t-87 54.5t-57 86t-20.5 112.5v455h90v-455q0 -85 49 -135.5t136 -50.5q43 0 77.5 13.5t58.5 37.5t37 58.5t13 76.5v455h90v-455zM259 813q0 20 7.5 37.5t20.5 31t30.5 21t37.5 7.5t38 -7.5t31 -21
t20.5 -31t7.5 -37.5q0 -41 -28 -69t-69 -28q-40 0 -68 28t-28 69zM306 813q0 -21 14.5 -35.5t34.5 -14.5q21 0 35.5 14.5t14.5 35.5t-14.5 35.5t-35.5 14.5q-20 0 -34.5 -14.5t-14.5 -35.5z" />
    <glyph glyph-name="uring" unicode="&#x16f;" horiz-adv-x="582" 
d="M505 519v-519h-84v78q-27 -41 -71.5 -65.5t-101.5 -24.5q-81 0 -129.5 51t-48.5 144v336h85v-316q0 -27 5 -51.5t17.5 -43.5t34 -30t55.5 -11q33 0 61 11.5t49 33t32.5 51.5t11.5 67v289h84zM191 646q0 20 7.5 37.5t20.5 31t30.5 21t37.5 7.5t38 -7.5t31 -21t20.5 -31
t7.5 -37.5q0 -41 -28 -69t-69 -28q-40 0 -68 28t-28 69zM238 646q0 -21 14.5 -35.5t34.5 -14.5q21 0 35.5 14.5t14.5 35.5t-14.5 35.5t-35.5 14.5q-20 0 -34.5 -14.5t-14.5 -35.5z" />
    <glyph glyph-name="Uhungarumlaut" unicode="&#x170;" horiz-adv-x="712" 
d="M631 259q0 -62 -21 -112.5t-57.5 -86t-87 -54.5t-110.5 -19t-110.5 19t-87 54.5t-57 86t-20.5 112.5v455h90v-455q0 -85 49 -135.5t136 -50.5q43 0 77.5 13.5t58.5 37.5t37 58.5t13 76.5v455h90v-455zM348 939l64 -37l-108 -140h-70zM506 939l64 -37l-109 -140h-70z" />
    <glyph glyph-name="uhungarumlaut" unicode="&#x171;" horiz-adv-x="582" 
d="M505 519v-519h-84v78q-27 -41 -71.5 -65.5t-101.5 -24.5q-81 0 -129.5 51t-48.5 144v336h85v-316q0 -27 5 -51.5t17.5 -43.5t34 -30t55.5 -11q33 0 61 11.5t49 33t32.5 51.5t11.5 67v289h84zM277 771l64 -37l-108 -140h-70zM435 771l64 -37l-109 -140h-70z" />
    <glyph glyph-name="Uogonek" unicode="&#x172;" horiz-adv-x="712" 
d="M561 -160q-11 -11 -31 -17.5t-43 -6.5q-21 0 -40 6t-33.5 18t-23 30.5t-8.5 44.5q0 42 25 76q-12 -2 -25.5 -3t-27.5 -1q-60 0 -110 19t-86.5 54.5t-57 86t-20.5 112.5v455h90v-455q0 -85 49 -135.5t136 -50.5q43 0 77.5 13.5t58.5 37.5t37 58.5t13 76.5v455h90v-455
q0 -75 -27 -127.5t-74 -89.5q-40 -32 -62 -56t-22 -56q0 -31 17.5 -42.5t37.5 -11.5q19 0 33.5 7.5t26.5 19.5v-63z" />
    <glyph glyph-name="uogonek" unicode="&#x173;" horiz-adv-x="582" 
d="M505 519v-519q-82 -38 -82 -85q0 -21 12.5 -30t28.5 -9q17 0 29.5 8t21.5 19v-63q-10 -11 -26.5 -17.5t-38.5 -6.5q-36 0 -64 19.5t-28 60.5q0 32 17 57t46 47v78q-27 -41 -71.5 -65.5t-101.5 -24.5q-81 0 -129.5 51t-48.5 144v336h85v-316q0 -27 5 -51.5t17.5 -43.5
t34 -30t55.5 -11q33 0 61 11.5t49 33t32.5 51.5t11.5 67v289h84z" />
    <glyph glyph-name="Wcircumflex" unicode="&#x174;" horiz-adv-x="953" 
d="M741 0h-95l-170 578l-170 -578h-96l-185 714h96l142 -578l172 578h84l172 -580l142 580h95zM635 771h-70l-90 104l-88 -104h-71l122 169h75z" />
    <glyph glyph-name="wcircumflex" unicode="&#x175;" horiz-adv-x="762" 
d="M596 0h-93l-122 407l-123 -407h-93l-139 519h89l105 -410l123 410h80l122 -409l104 409h87zM541 594h-70l-90 104l-88 -104h-71l122 169h75z" />
    <glyph glyph-name="Ycircumflex" unicode="&#x176;" horiz-adv-x="613" 
d="M353 298v-298h-92v298l-255 416h107l196 -328l194 328h105zM466 771h-70l-90 104l-88 -104h-71l122 169h75z" />
    <glyph glyph-name="ycircumflex" unicode="&#x177;" horiz-adv-x="518" 
d="M87 -103q16 -8 33 -8q15 0 27 5.5t23 18t22 34.5t24 55l-204 517h95l153 -412l152 412h92l-210 -532q-18 -47 -35 -79.5t-36 -53t-41.5 -29.5t-51.5 -9q-23 0 -38.5 3.5t-23.5 7.5zM420 594h-70l-90 104l-88 -104h-71l122 169h75z" />
    <glyph glyph-name="Ydieresis" unicode="&#x178;" horiz-adv-x="613" 
d="M353 298v-298h-92v298l-255 416h107l196 -328l194 328h105zM172 786v79h78v-79h-78zM363 786v79h77v-79h-77z" />
    <glyph glyph-name="Zacute" unicode="&#x179;" horiz-adv-x="621" 
d="M40 0v81l412 549h-396v84h513v-79l-413 -551h422v-84h-538zM360 939l64 -37l-108 -140h-71z" />
    <glyph glyph-name="zacute" unicode="&#x17a;" horiz-adv-x="494" 
d="M40 0v69l294 375h-282v75h391v-71l-291 -373h300v-75h-412zM303 771l64 -37l-108 -140h-71z" />
    <glyph glyph-name="Zdotaccent" unicode="&#x17b;" horiz-adv-x="621" 
d="M40 0v81l412 549h-396v84h513v-79l-413 -551h422v-84h-538zM256 786v79h77v-79h-77z" />
    <glyph glyph-name="zdotaccent" unicode="&#x17c;" horiz-adv-x="494" 
d="M40 0v69l294 375h-282v75h391v-71l-291 -373h300v-75h-412zM195 618v79h77v-79h-77z" />
    <glyph glyph-name="Zcaron" unicode="&#x17d;" horiz-adv-x="621" 
d="M40 0v81l412 549h-396v84h513v-79l-413 -551h422v-84h-538zM334 762h-75l-122 169h71l88 -105l90 105h70z" />
    <glyph glyph-name="zcaron" unicode="&#x17e;" horiz-adv-x="497" 
d="M40 0v69l294 375h-282v75h391v-71l-291 -373h300v-75h-412zM273 594h-75l-122 169h71l88 -105l90 105h70z" />
    <glyph glyph-name="florin" unicode="&#x192;" 
d="M531 640q-14 6 -25.5 9t-28.5 3q-51 0 -73.5 -22.5t-30.5 -65.5l-17 -101h130l-13 -67h-129l-59 -345q-6 -37 -20 -68t-36.5 -53t-54 -34t-72.5 -12q-26 0 -47 4.5t-38 12.5l27 69q24 -12 58 -12q46 0 69 23t31 66l59 349h-100l12 67h101l16 97q12 75 57.5 121t127.5 46
q26 0 46 -4.5t36 -12.5z" />
    <glyph glyph-name="Aringacute" unicode="&#x1fa;" horiz-adv-x="678" 
d="M394 1000l63 -31l-81 -96h-70zM340 627l-127 -341h248zM291 764q0 -21 14.5 -35.5t35.5 -14.5q20 0 35 14.5t15 35.5t-15 35.5t-35 14.5q-21 0 -35.5 -14.5t-14.5 -35.5zM244 764q0 20 7.5 37.5t20.5 31t31 21t38 7.5t37.5 -7.5t30.5 -21t20.5 -31t7.5 -37.5
q0 -23 -9.5 -41.5t-25.5 -31.5l267 -691h-103l-75 205h-307l-76 -205h-96l267 691q-16 13 -25.5 31.5t-9.5 41.5z" />
    <glyph glyph-name="aringacute" unicode="&#x1fb;" horiz-adv-x="537" 
d="M382 0v64q-54 -76 -160 -76q-82 0 -131 41.5t-49 116.5q0 46 18 74.5t44 45.5t56.5 24.5t55.5 11.5q29 4 58.5 8.5t53 13t38 23t14.5 38.5q0 20 -10 33.5t-26 22t-36 12t-40 3.5q-39 0 -84 -13t-80 -41l-38 64q40 29 93.5 47t113.5 18q85 0 138 -39t53 -119v-373h-82z
M380 281q-27 -20 -67.5 -28t-79.5 -15q-23 -4 -42 -9.5t-33 -15t-22 -24.5t-8 -38q0 -24 8.5 -41t23 -27.5t34 -15.5t41.5 -5q28 0 54 8t46 25t32.5 44t12.5 65v77zM337 922.459l64 -35.1504l-108 -133.001h-71zM172 646q0 20 7.5 37.5t20.5 31t30.5 21t37.5 7.5t38 -7.5
t31 -21t20.5 -31t7.5 -37.5q0 -41 -28 -69t-69 -28q-40 0 -68 28t-28 69zM219 646q0 -21 14.5 -35.5t34.5 -14.5q21 0 35.5 14.5t14.5 35.5t-14.5 35.5t-35.5 14.5q-20 0 -34.5 -14.5t-14.5 -35.5z" />
    <glyph glyph-name="AEacute" unicode="&#x1fc;" horiz-adv-x="894" 
d="M412 0v205h-249l-119 -205h-97l420 714h464v-84h-327v-213h286v-80h-286v-253h337v-84h-429zM412 635l-202 -349h202v349zM539 939l64 -37l-108 -140h-71z" />
    <glyph glyph-name="aeacute" unicode="&#x1fd;" horiz-adv-x="898" 
d="M273 531q61 0 105 -20.5t65 -61.5q31 38 75.5 60t104.5 22q54 0 98 -18.5t74.5 -51.5t47 -78t16.5 -98q0 -12 -0.5 -22t-1.5 -18h-393q0 -42 12.5 -75t35 -56.5t53.5 -35.5t68 -12q44 0 82 17.5t66 52.5l57 -52q-36 -45 -88.5 -70.5t-121.5 -25.5q-71 0 -121.5 28
t-81.5 77q-30 -52 -78 -78.5t-117 -26.5q-89 0 -138.5 41.5t-49.5 116.5q0 46 17.5 74.5t44 45.5t56.5 24.5t56 11.5q29 4 58.5 8.5t53 13t38 23t14.5 38.5q0 20 -10 33.5t-26 22t-36 12t-40 3.5q-39 0 -84 -13t-80 -41l-38 64q40 29 93.5 47t113.5 18zM380 281
q-27 -20 -67.5 -28t-79.5 -15q-23 -4 -42 -9.5t-33 -15t-22 -24.5t-8 -38q0 -24 8.5 -41t23 -27.5t34 -15.5t41.5 -5q28 0 54 8t46 25t32.5 44t12.5 65v77zM773 311q-3 38 -16 65.5t-33.5 45.5t-47 27t-55.5 9q-68 0 -109 -41t-47 -106h308zM517 771l64 -37l-108 -140h-71z
" />
    <glyph glyph-name="Oslashacute" unicode="&#x1fe;" horiz-adv-x="772" 
d="M117 22l38 53q-52 51 -80.5 123t-28.5 159q0 79 24 147t68.5 117.5t107 77.5t140.5 28q54 0 101 -14t86 -40l35 51l46 -32l-37 -54q53 -50 81 -122t28 -159q0 -79 -24 -146.5t-68.5 -117t-107 -78t-140.5 -28.5q-55 0 -102 14t-86 40l-35 -51zM631 357q0 64 -18 116
t-50 89l-314 -449q57 -40 137 -40q57 0 102.5 20.5t77 58t48.5 90t17 115.5zM142 357q0 -64 16.5 -116.5t48.5 -89.5l315 449q-28 20 -62 30.5t-74 10.5q-57 0 -102.5 -21t-77 -58.5t-48 -89.5t-16.5 -115zM456 939l64 -37l-108 -140h-71z" />
    <glyph glyph-name="oslashacute" unicode="&#x1ff;" horiz-adv-x="584" 
d="M91 20l26 38q-35 36 -54 87.5t-19 113.5q0 59 17 109t49.5 86t78 56.5t102.5 20.5q75 0 132 -37l25 36l44 -31l-26 -38q35 -37 54.5 -88.5t19.5 -113.5q0 -58 -17.5 -107.5t-49.5 -86t-78.5 -57t-103.5 -20.5q-38 0 -71 9.5t-61 26.5l-24 -34zM133 259q0 -37 8.5 -70
t26.5 -58l209 298q-17 13 -38.5 20t-47.5 7q-38 0 -67 -15t-49.5 -41.5t-31 -62.5t-10.5 -78zM451 259q0 77 -36 130l-210 -299q17 -13 39 -20t47 -7q38 0 68 15.5t50.5 42t31 62t10.5 76.5zM357 771l64 -37l-108 -140h-71z" />
    <glyph glyph-name="Scommaaccent" unicode="&#x218;" horiz-adv-x="610" 
d="M296 645q-31 0 -58 -7t-47.5 -21t-32.5 -34.5t-12 -47.5q0 -36 23 -58t61 -36q28 -11 63.5 -20t73 -20t73 -26t63.5 -38t45 -55.5t17 -78.5q0 -47 -18 -86.5t-51.5 -68t-82 -45t-108.5 -16.5q-90 0 -160 36t-111 100l73 51q18 -30 42 -50t51 -32t55 -17.5t55 -5.5
q75 0 119.5 34.5t44.5 92.5q0 30 -12.5 50.5t-35.5 34.5t-55 23.5t-70 19.5q-44 10 -88 23.5t-79 36.5t-57 57.5t-22 87.5q0 49 20 86t53.5 62t78 37.5t93.5 12.5q77 0 141 -30t108 -88l-69 -51q-32 41 -79 64t-105 23zM274 -38h92l-108 -162l-49 26z" />
    <glyph glyph-name="scommaaccent" unicode="&#x219;" horiz-adv-x="495" 
d="M91 123q32 -33 71.5 -47t85.5 -14q54 0 87.5 20.5t33.5 64.5q0 19 -8 31.5t-25.5 21.5t-44.5 15.5t-65 14.5q-33 7 -64.5 16.5t-55.5 26.5t-39 42.5t-15 63.5q0 40 16 68.5t43 47t62 27.5t73 9q68 0 117 -23.5t81 -56.5l-51 -55q-24 27 -62.5 44.5t-87.5 17.5
q-21 0 -40.5 -4t-35.5 -12t-25.5 -22t-9.5 -33q0 -20 10.5 -33t27.5 -21.5t39 -14t46 -10.5q39 -8 74.5 -18t63 -27t43.5 -43.5t16 -66.5q0 -74 -54.5 -119.5t-151.5 -45.5q-66 0 -118 21.5t-89 58.5zM213 -38h92l-108 -162l-49 26z" />
    <glyph glyph-name="Tcommaaccent" unicode="&#x21a;" horiz-adv-x="621" 
d="M355 630v-630h-90v630h-241v84h572v-84h-241zM266 -38h92l-108 -162l-49 26z" />
    <glyph glyph-name="tcommaaccent" unicode="&#x21b;" horiz-adv-x="367" 
d="M349 11q-16 -11 -40.5 -16.5t-52.5 -5.5q-65 0 -102 34.5t-37 113.5v309h-97v73h97v195h84v-195h137v-73h-137v-297q0 -46 18 -65t51 -19q18 0 33.5 4.5t24.5 11.5zM193 -38h92l-108 -162l-49 26z" />
    <glyph glyph-name="dotlessj" unicode="&#x237;" horiz-adv-x="238" 
d="M161 -45q0 -44 -12.5 -70.5t-31.5 -41.5t-42 -20t-44 -5q-17 0 -34.5 2.5t-31.5 8.5l15 69q5 -3 14.5 -6t25.5 -3q12 0 22 3t18 11t12.5 22.5t4.5 37.5v556h84v-564z" />
    <glyph glyph-name="schwa" unicode="&#x259;" horiz-adv-x="573" 
d="M131 208q2 -38 15 -65.5t34 -45.5t47.5 -27t55.5 -9q67 0 108.5 41t46.5 106h-307zM529 261q0 -57 -17 -107t-48.5 -87t-77.5 -58t-104 -21q-55 0 -99 18.5t-75 51.5t-47.5 78t-16.5 98q0 12 0.5 22.5t1.5 17.5h394q-1 85 -48.5 132t-121.5 47q-44 0 -82 -17.5t-66 -52.5
l-57 53q37 44 89 69.5t121 25.5q60 0 107.5 -20.5t80 -56.5t49.5 -85.5t17 -107.5z" />
    <glyph glyph-name="circumflex" unicode="&#x2c6;" horiz-adv-x="368" 
d="M341 594h-70l-90 104l-88 -104h-71l122 169h75z" />
    <glyph glyph-name="caron" unicode="&#x2c7;" horiz-adv-x="368" 
d="M219 594h-75l-122 169h71l88 -105l90 105h70z" />
    <glyph glyph-name="breve" unicode="&#x2d8;" horiz-adv-x="368" 
d="M184 653q45 0 71.5 22.5t42.5 64.5l61 -26q-8 -23 -22 -45.5t-35.5 -40.5t-50.5 -29t-67 -11t-67 11t-50.5 29t-35.5 40.5t-21 45.5l61 26q15 -42 41.5 -64.5t71.5 -22.5z" />
    <glyph glyph-name="dotaccent" unicode="&#x2d9;" horiz-adv-x="323" 
d="M122 618v79h77v-79h-77z" />
    <glyph glyph-name="ring" unicode="&#x2da;" horiz-adv-x="324" 
d="M63 646q0 20 7.5 37.5t20.5 31t30.5 21t37.5 7.5t38 -7.5t31 -21t20.5 -31t7.5 -37.5q0 -41 -28 -69t-69 -28q-40 0 -68 28t-28 69zM110 646q0 -21 14.5 -35.5t34.5 -14.5q21 0 35.5 14.5t14.5 35.5t-14.5 35.5t-35.5 14.5q-20 0 -34.5 -14.5t-14.5 -35.5z" />
    <glyph glyph-name="ogonek" unicode="&#x2db;" horiz-adv-x="320" 
d="M250 -160q-11 -11 -31 -17.5t-43 -6.5q-41 0 -71.5 22.5t-30.5 69.5t33.5 83.5t90.5 65.5l26 -28q-42 -29 -63.5 -53t-21.5 -52q0 -26 15.5 -37t35.5 -11q19 0 33.5 7.5t26.5 19.5v-63z" />
    <glyph glyph-name="tilde" unicode="&#x2dc;" horiz-adv-x="405" 
d="M21 634q14 35 43 60.5t75 25.5q18 0 34.5 -5t39.5 -17q15 -8 29 -14.5t30 -6.5q25 0 39.5 14t22.5 29l51 -24q-13 -35 -42.5 -60t-74.5 -25q-17 0 -35 4.5t-41 17.5q-16 9 -29.5 15t-28.5 6q-25 0 -40 -14.5t-22 -28.5z" />
    <glyph glyph-name="hungarumlaut" unicode="&#x2dd;" horiz-adv-x="435" 
d="M223 771l64 -37l-108 -140h-70zM381 771l64 -37l-109 -140h-70z" />
    <glyph glyph-name="pi" unicode="&#x3c0;" horiz-adv-x="597" 
d="M493 451v-451h-69v451h-251v-451h-69v451h-70v68h529v-68h-70z" />
    <glyph glyph-name="uni058F" unicode="&#x58f;" 
d="M200 433h131v89q0 35 -9 60t-24.5 40.5t-36.5 23t-44 7.5q-57 0 -89 -39.5t-32 -105.5l-74 20q0 32 11 67t35 64.5t61.5 48.5t90.5 19q42 0 78 -13.5t62 -40t41 -65.5t15 -91v-84h114v-50h-114v-99h114v-50h-114v-234h-85v234h-131v50h131v99h-131v50z" />
    <glyph glyph-name="uni09F3" unicode="&#x9f3;" 
d="M77 475h99v92q0 40 -15.5 62.5t-52.5 22.5q-23 0 -41 -8.5t-31 -21.5l-25 65q20 17 48 28t62 11q63 0 101.5 -38.5t38.5 -113.5v-99h90v-60h-90v-329q11 -11 26.5 -15.5t32.5 -4.5q30 0 55.5 12.5t43.5 35t28.5 54t10.5 68.5q0 40 -12 76.5t-36 60.5l68 37
q28 -30 45.5 -74.5t17.5 -100.5q0 -52 -16.5 -97t-47 -78.5t-73 -53t-94.5 -19.5q-47 0 -80 15t-54 38v375h-99v60z" />
    <glyph glyph-name="uni0E3F" unicode="&#xe3f;" 
d="M76 714h180v51h54v-52q100 -5 150.5 -52t50.5 -123q0 -54 -27.5 -97t-79.5 -65q64 -20 96.5 -67.5t32.5 -107.5q0 -41 -14.5 -77t-42.5 -63t-69.5 -43.5t-96.5 -17.5v-60h-54v60h-180v714zM441 205q0 25 -7 48.5t-23 41t-40.5 28.5t-60.5 13v-264q69 4 100 41.5t31 91.5z
M256 72v264h-89v-264h89zM256 406v236h-89v-236h89zM421 529q0 47 -25.5 76t-85.5 35v-234q57 5 84 39t27 84z" />
    <glyph glyph-name="uni17DB" unicode="&#x17db;" 
d="M162 444h121q-11 44 -38.5 78t-75.5 57q3 21 14 46.5t32.5 48t54 38t76.5 15.5q57 0 97 -24.5t66 -56.5l-55 -51q-17 23 -42 40t-60 17q-40 0 -59.5 -17.5t-27.5 -37.5q40 -28 67 -65.5t39 -87.5h103v-60h-96v-384h-125q-15 9 -42 22t-53 32t-45 45.5t-19 62.5
q0 22 8.5 43t26.5 37t45 24.5t64 4.5v-50q-34 2 -49.5 -14.5t-15.5 -37.5q0 -17 8.5 -30.5t22.5 -25.5t31 -22t35 -19h19v312h-127v60z" />
    <glyph glyph-name="Wgrave" unicode="&#x1e80;" horiz-adv-x="953" 
d="M741 0h-95l-170 578l-170 -578h-96l-185 714h96l142 -578l172 578h84l172 -580l142 580h95zM517 762h-71l-108 140l64 37z" />
    <glyph glyph-name="wgrave" unicode="&#x1e81;" horiz-adv-x="762" 
d="M596 0h-93l-122 407l-123 -407h-93l-139 519h89l105 -410l123 410h80l122 -409l104 409h87zM425 594h-71l-108 140l64 37z" />
    <glyph glyph-name="Wacute" unicode="&#x1e82;" horiz-adv-x="953" 
d="M741 0h-95l-170 578l-170 -578h-96l-185 714h96l142 -578l172 578h84l172 -580l142 580h95zM548 939l64 -37l-108 -140h-71z" />
    <glyph glyph-name="wacute" unicode="&#x1e83;" horiz-adv-x="762" 
d="M596 0h-93l-122 407l-123 -407h-93l-139 519h89l105 -410l123 410h80l122 -409l104 409h87zM452 771l64 -37l-108 -140h-71z" />
    <glyph glyph-name="Wdieresis" unicode="&#x1e84;" horiz-adv-x="953" 
d="M741 0h-95l-170 578l-170 -578h-96l-185 714h96l142 -578l172 578h84l172 -580l142 580h95zM341 786v79h78v-79h-78zM532 786v79h77v-79h-77z" />
    <glyph glyph-name="wdieresis" unicode="&#x1e85;" horiz-adv-x="762" 
d="M596 0h-93l-122 407l-123 -407h-93l-139 519h89l105 -410l123 410h80l122 -409l104 409h87zM248 618v79h78v-79h-78zM439 618v79h77v-79h-77z" />
    <glyph glyph-name="Ygrave" unicode="&#x1ef2;" horiz-adv-x="613" 
d="M353 298v-298h-92v298l-255 416h107l196 -328l194 328h105zM356 762h-71l-108 140l64 37z" />
    <glyph glyph-name="ygrave" unicode="&#x1ef3;" horiz-adv-x="518" 
d="M87 -103q16 -8 33 -8q15 0 27 5.5t23 18t22 34.5t24 55l-204 517h95l153 -412l152 412h92l-210 -532q-18 -47 -35 -79.5t-36 -53t-41.5 -29.5t-51.5 -9q-23 0 -38.5 3.5t-23.5 7.5zM310 594h-71l-108 140l64 37z" />
    <glyph glyph-name="uni2000" unicode="&#x2000;" horiz-adv-x="500" 
 />
    <glyph glyph-name="uni2001" unicode="&#x2001;" horiz-adv-x="1000" 
 />
    <glyph glyph-name="uni2002" unicode="&#x2002;" horiz-adv-x="500" 
 />
    <glyph glyph-name="uni2003" unicode="&#x2003;" horiz-adv-x="1000" 
 />
    <glyph glyph-name="uni2004" unicode="&#x2004;" horiz-adv-x="333" 
 />
    <glyph glyph-name="uni2005" unicode="&#x2005;" horiz-adv-x="250" 
 />
    <glyph glyph-name="uni2006" unicode="&#x2006;" horiz-adv-x="166" 
 />
    <glyph glyph-name="uni2007" unicode="&#x2007;" horiz-adv-x="166" 
 />
    <glyph glyph-name="uni2008" unicode="&#x2008;" horiz-adv-x="125" 
 />
    <glyph glyph-name="uni2009" unicode="&#x2009;" horiz-adv-x="200" 
 />
    <glyph glyph-name="uni200A" unicode="&#x200a;" horiz-adv-x="55" 
 />
    <glyph glyph-name="uni2010" unicode="&#x2010;" horiz-adv-x="387" 
d="M62 222v74h263v-74h-263z" />
    <glyph glyph-name="uni2011" unicode="&#x2011;" horiz-adv-x="387" 
d="M62 222v74h263v-74h-263z" />
    <glyph glyph-name="figuredash" unicode="&#x2012;" horiz-adv-x="387" 
d="M62 222v74h263v-74h-263z" />
    <glyph glyph-name="endash" unicode="&#x2013;" 
d="M26 226v73h523v-73h-523z" />
    <glyph glyph-name="emdash" unicode="&#x2014;" horiz-adv-x="920" 
d="M59 226v73h802v-73h-802z" />
    <glyph glyph-name="quoteleft" unicode="&#x2018;" horiz-adv-x="225" 
d="M59 551q0 54 20.5 96t58.5 80l31 -32q-28 -28 -42 -59.5t-14 -60.5v-11h52v-93h-106v80z" />
    <glyph glyph-name="quoteright" unicode="&#x2019;" horiz-adv-x="210" 
d="M163 634q0 -54 -20.5 -96t-58.5 -80l-31 32q28 28 42 59.5t14 60.5v11h-52v93h106v-80z" />
    <glyph glyph-name="quotesinglbase" unicode="&#x201a;" horiz-adv-x="249" 
d="M177 27q0 -50 -20.5 -88.5t-58.5 -72.5l-31 31q29 25 42.5 51.5t13.5 52.5v2h-52v97h106v-73z" />
    <glyph glyph-name="quotedblleft" unicode="&#x201c;" horiz-adv-x="409" 
d="M242 551q0 54 20.5 96t58.5 80l31 -32q-28 -28 -42 -59.5t-14 -60.5v-11h52v-93h-106v80zM59 549q0 54 20.5 97t58.5 81l31 -32q-29 -28 -42.5 -59.5t-13.5 -60.5v-11h51v-93h-105v78z" />
    <glyph glyph-name="quotedblright" unicode="&#x201d;" horiz-adv-x="393" 
d="M163 634q0 -54 -20.5 -96t-58.5 -80l-31 32q28 28 42 59.5t14 60.5v11h-52v93h106v-80zM346 636q0 -54 -20.5 -97t-58.5 -81l-31 32q29 28 42.5 59.5t13.5 60.5v11h-52v93h106v-78z" />
    <glyph glyph-name="quotedblbase" unicode="&#x201e;" horiz-adv-x="408" 
d="M177 27q0 -50 -20.5 -88.5t-58.5 -72.5l-31 31q29 25 42.5 51.5t13.5 52.5v2h-52v97h106v-73zM336 27q0 -50 -20 -88.5t-57 -72.5l-33 31q29 25 43 51.5t14 52.5v2h-51v97h104v-73z" />
    <glyph glyph-name="dagger" unicode="&#x2020;" horiz-adv-x="485" 
d="M283 450v-450h-81v450h-166v73h166v191h81v-191h167v-73h-167z" />
    <glyph glyph-name="daggerdbl" unicode="&#x2021;" horiz-adv-x="507" 
d="M294 192v-192h-82v192h-166v72h166v186h-166v73h166v191h82v-191h167v-73h-167v-186h167v-72h-167z" />
    <glyph glyph-name="bullet" unicode="&#x2022;" horiz-adv-x="368" 
d="M321 357q0 -29 -10.5 -54t-29.5 -43.5t-44 -29.5t-53 -11t-53 11t-43.5 29.5t-29.5 43.5t-11 54t11 54.5t29.5 44t43.5 29.5t53 11t53 -11t44 -29.5t29.5 -44t10.5 -54.5z" />
    <glyph glyph-name="twodotenleader" unicode="&#x2025;" horiz-adv-x="468" 
d="M67 0v103h104v-103h-104zM297 0v103h104v-103h-104z" />
    <glyph glyph-name="ellipsis" unicode="&#x2026;" horiz-adv-x="686" 
d="M67 0v103h104v-103h-104zM291 0v103h104v-103h-104zM515 0v103h104v-103h-104z" />
    <glyph glyph-name="uni202F" unicode="&#x202f;" horiz-adv-x="200" 
 />
    <glyph glyph-name="perthousand" unicode="&#x2030;" horiz-adv-x="1132" 
d="M362 564q0 -35 -11.5 -65t-32 -52t-49 -34.5t-63.5 -12.5t-63.5 12.5t-49 34.5t-32 52t-11.5 65q0 34 11.5 63.5t32 51.5t49 34.5t63.5 12.5t63.5 -12.5t49 -34.5t32 -51.5t11.5 -63.5zM193 0h-67l459 714h67zM728 152q0 -35 -11.5 -65t-32 -52t-49 -34.5t-63.5 -12.5
t-63.5 12.5t-49.5 34.5t-32.5 52t-11.5 65q0 34 11.5 64t32.5 51.5t49.5 34t63.5 12.5t63.5 -12.5t49 -34t32 -51.5t11.5 -64zM302 564q0 44 -26 73t-70 29q-45 0 -71 -29t-26 -73q0 -45 26 -75t71 -30t70.5 30t25.5 75zM668 152q0 44 -26 73.5t-70 29.5t-70 -29.5
t-26 -73.5t26 -74t70 -30q45 0 70.5 30t25.5 74zM1084 152q0 -35 -11.5 -65t-32 -52t-49 -34.5t-63.5 -12.5t-63.5 12.5t-49.5 34.5t-32.5 52t-11.5 65q0 34 11.5 64t32.5 51.5t49.5 34t63.5 12.5t63.5 -12.5t49 -34t32 -51.5t11.5 -64zM1024 152q0 44 -26 73.5t-70 29.5
t-70 -29.5t-26 -73.5t26 -74t70 -30q45 0 70.5 30t25.5 74z" />
    <glyph glyph-name="guilsinglleft" unicode="&#x2039;" horiz-adv-x="301" 
d="M50 301l149 205l52 -41l-129 -178l129 -178l-52 -40l-149 204v28z" />
    <glyph glyph-name="guilsinglright" unicode="&#x203a;" horiz-adv-x="300" 
d="M250 273l-148 -204l-52 40l129 178l-129 178l52 41l148 -205v-28z" />
    <glyph glyph-name="fraction" unicode="&#x2044;" horiz-adv-x="222" 
d="M-98 0h-64l482 714h64z" />
    <glyph glyph-name="uni205F" unicode="&#x205f;" horiz-adv-x="250" 
 />
    <glyph glyph-name="zerosuperior" unicode="&#x2070;" horiz-adv-x="452" 
d="M394 594q0 -42 -8.5 -82t-28 -71t-51.5 -50t-79 -19q-48 0 -80 19t-51.5 50t-28 71t-8.5 82t8.5 82t28 71t51.5 50t80 19q47 0 79 -19t51.5 -50t28 -71t8.5 -82zM321 594q0 34 -4.5 64t-15.5 52t-29 34.5t-45 12.5t-45.5 -12.5t-29.5 -34.5t-16 -52t-5 -64q0 -35 5 -64.5
t16 -51.5t29.5 -34.5t45.5 -12.5t45 12.5t29 34.5t15.5 51.5t4.5 64.5z" />
    <glyph glyph-name="foursuperior" unicode="&#x2074;" horiz-adv-x="452" 
d="M336 477v-97h-72v97h-214v56l209 275h77v-271h63v-60h-63zM266 537v187l-149 -187h149z" />
    <glyph glyph-name="fivesuperior" unicode="&#x2075;" horiz-adv-x="452" 
d="M218 372q-59 0 -99 22.5t-63 61.5l59 33q14 -26 41 -40t61 -14q45 0 73.5 21.5t28.5 61.5q0 39 -27 61t-75 22q-64 0 -101 -40l-40 20l16 227h274v-64h-216l-11 -109q20 12 45.5 18t50.5 6q34 0 63 -10t50 -28t33 -44t12 -57q0 -28 -10 -54.5t-31.5 -47.5t-54.5 -33.5
t-79 -12.5z" />
    <glyph glyph-name="sixsuperior" unicode="&#x2076;" horiz-adv-x="452" 
d="M347 733q-20 12 -42 17t-42 5q-35 0 -60.5 -10.5t-41.5 -29t-23.5 -44t-7.5 -54.5q19 21 49.5 33.5t66.5 12.5q32 0 60 -10t49 -28.5t33 -44.5t12 -58q0 -31 -11.5 -58t-33 -47.5t-52.5 -32.5t-70 -12q-81 0 -127.5 54.5t-46.5 158.5q0 51 11.5 93.5t35.5 72.5
q26 33 65.5 49t88.5 16q71 0 114 -29zM138 524q0 -36 24.5 -63.5t72.5 -27.5q44 0 68.5 24t24.5 62q0 35 -23 60t-72 25q-43 0 -69 -21t-26 -59z" />
    <glyph glyph-name="sevensuperior" unicode="&#x2077;" horiz-adv-x="452" 
d="M395 756l-222 -376h-76l219 364h-258v64h337v-52z" />
    <glyph glyph-name="eightsuperior" unicode="&#x2078;" horiz-adv-x="452" 
d="M226 431q46 0 70 19.5t24 55.5q0 34 -22.5 53t-71.5 19q-48 0 -71.5 -19.5t-23.5 -53.5q0 -36 25 -55t70 -19zM226 634q31 0 56.5 13.5t25.5 48.5q0 33 -25 47.5t-57 14.5t-57 -14.5t-25 -47.5q0 -35 25.5 -48.5t56.5 -13.5zM226 372q-80 0 -124 37t-44 92q0 35 20 64
t63 45q-32 13 -50.5 36t-18.5 58q0 27 12 47.5t33 35t49 22t60 7.5t60 -7.5t49 -22t33 -35t12 -47.5q0 -35 -19 -58t-50 -36q43 -16 63.5 -45t20.5 -64q0 -55 -44.5 -92t-124.5 -37z" />
    <glyph glyph-name="ninesuperior" unicode="&#x2079;" horiz-adv-x="452" 
d="M106 456q20 -13 41 -17.5t43 -4.5q70 0 101.5 40t31.5 101q-19 -23 -50 -36.5t-69 -13.5q-32 0 -60 10t-48.5 28.5t-32 44.5t-11.5 58q0 31 11.5 58t33.5 47.5t52.5 32.5t69.5 12q82 0 128 -54.5t46 -161.5q0 -50 -11 -91.5t-36 -71.5q-27 -35 -66.5 -50t-87.5 -15
q-35 0 -65 7.5t-51 21.5zM314 666q0 36 -24.5 62.5t-72.5 26.5q-45 0 -69 -24t-24 -62q0 -35 23.5 -60t71.5 -25q44 0 69.5 22t25.5 60z" />
    <glyph glyph-name="zeroinferior" unicode="&#x2080;" horiz-adv-x="452" 
d="M394 120q0 -42 -8.5 -82t-28 -71t-51.5 -50t-79 -19q-48 0 -80 19t-51.5 50t-28 71t-8.5 82t8.5 82t28 71t51.5 50t80 19q47 0 79 -19t51.5 -50t28 -71t8.5 -82zM321 120q0 34 -4.5 64t-15.5 52t-29 34.5t-45 12.5t-45.5 -12.5t-29.5 -34.5t-16 -52t-5 -64q0 -35 5 -64.5
t16 -51.5t29.5 -34.5t45.5 -12.5t45 12.5t29 34.5t15.5 51.5t4.5 64.5z" />
    <glyph glyph-name="oneinferior" unicode="&#x2081;" horiz-adv-x="367" 
d="M59 250l137 84h59v-428h-70v345l-91 -53z" />
    <glyph glyph-name="twoinferior" unicode="&#x2082;" horiz-adv-x="452" 
d="M60 -94v9q0 46 40 88.5t103 89.5q23 18 41.5 32.5t32 28t21 28t7.5 31.5q0 32 -24 49t-59 17q-38 0 -66.5 -18t-45.5 -50l-57 33q26 45 69.5 71.5t103.5 26.5q68 0 111.5 -34t43.5 -94q0 -41 -21 -69.5t-54 -54.5q-21 -17 -44.5 -32t-45.5 -29.5t-39.5 -28.5t-27.5 -29
h241v-65h-330z" />
    <glyph glyph-name="threeinferior" unicode="&#x2083;" horiz-adv-x="452" 
d="M166 138l122 132h-214v64h302v-46l-107 -115q56 -5 92.5 -39t36.5 -89q0 -27 -10.5 -53.5t-32 -47.5t-54 -33.5t-76.5 -12.5q-64 0 -105.5 26t-65.5 68l56 34q17 -29 46 -47t68 -18q44 0 72 22t28 61q0 34 -22.5 55t-60.5 21q-27 0 -43 -12z" />
    <glyph glyph-name="fourinferior" unicode="&#x2084;" horiz-adv-x="452" 
d="M336 3v-97h-72v97h-214v56l209 275h77v-271h63v-60h-63zM266 63v187l-149 -187h149z" />
    <glyph glyph-name="fiveinferior" unicode="&#x2085;" horiz-adv-x="452" 
d="M218 -102q-59 0 -99 22.5t-63 61.5l59 33q14 -26 41 -40t62 -14q44 0 72.5 21.5t28.5 61.5q0 39 -27 61t-75 22q-64 0 -101 -40l-40 20l16 227h274v-64h-216l-11 -109q20 12 45.5 18t51.5 6q33 0 62 -10t50 -28t33 -44t12 -57q0 -28 -10 -54.5t-31.5 -47.5t-54.5 -33.5
t-79 -12.5z" />
    <glyph glyph-name="sixinferior" unicode="&#x2086;" horiz-adv-x="452" 
d="M347 259q-20 12 -42 17t-44 5q-34 0 -59 -10.5t-41 -29t-23.5 -43.5t-7.5 -55q19 21 49.5 33.5t66.5 12.5q32 0 60 -10t49 -28.5t33 -44.5t12 -58q0 -31 -11.5 -58t-33 -47.5t-52.5 -32.5t-70 -12q-81 0 -127.5 54.5t-46.5 159.5q0 51 11.5 93t35.5 72q26 33 65.5 49
t89.5 16q70 0 113 -29zM138 50q0 -36 24.5 -63.5t72.5 -27.5q44 0 68.5 24t24.5 62q0 35 -23 60t-72 25q-43 0 -69 -21t-26 -59z" />
    <glyph glyph-name="seveninferior" unicode="&#x2087;" horiz-adv-x="452" 
d="M395 282l-222 -376h-76l219 364h-258v64h337v-52z" />
    <glyph glyph-name="eightinferior" unicode="&#x2088;" horiz-adv-x="452" 
d="M226 -43q46 0 70 19.5t24 55.5q0 34 -22.5 53.5t-71.5 19.5q-48 0 -71.5 -20t-23.5 -54q0 -36 25 -55t70 -19zM226 160q31 0 56.5 13.5t25.5 48.5q0 33 -25 47.5t-57 14.5t-57 -14.5t-25 -47.5q0 -35 25.5 -48.5t56.5 -13.5zM226 -102q-80 0 -124 37t-44 92q0 35 20 64
t63 45q-32 13 -50.5 36t-18.5 58q0 27 12 47.5t33 35t49 22t60 7.5t60 -7.5t49 -22t33 -35t12 -47.5q0 -35 -19 -58t-50 -36q43 -16 63.5 -45t20.5 -64q0 -55 -44.5 -92t-124.5 -37z" />
    <glyph glyph-name="nineinferior" unicode="&#x2089;" horiz-adv-x="452" 
d="M106 -18q20 -12 41 -17t43 -5q70 0 101.5 40t31.5 101q-19 -23 -50 -36t-69 -13q-32 0 -60 10t-48.5 28t-32 44t-11.5 58q0 31 11.5 58.5t33.5 47.5t52.5 32t69.5 12q82 0 128 -54.5t46 -161.5q0 -50 -11 -91.5t-36 -71.5q-27 -35 -66.5 -50t-87.5 -15q-35 0 -65 7.5
t-51 21.5zM314 192q0 36 -24.5 62.5t-72.5 26.5q-45 0 -69 -24t-24 -62q0 -35 23.5 -60t71.5 -25q44 0 69.5 22.5t25.5 59.5z" />
    <glyph glyph-name="colonmonetary" unicode="&#x20a1;" 
d="M147 73q-50 51 -75 123t-25 155q0 72 19 137t54.5 115.5t87 82.5t116.5 39l11 40h48l-11 -39q35 -2 63 -10l13 49h48l-18 -65q40 -20 70 -50l-45 -64q-10 10 -21 19t-25 17l-150 -546q30 -8 62 -8q56 0 96.5 21.5t67.5 57.5v-99q-30 -29 -71.5 -45t-98.5 -16q-42 0 -78 9
l-14 -54h-47l18 67q-15 7 -29.5 14.5t-27.5 17.5l-27 -99h-47zM211 136q22 -26 54 -43l149 546q-24 7 -54 7q-5 0 -10 -1zM141 354q0 -48 9 -90.5t27 -77.5l123 451q-41 -12 -70.5 -40t-49.5 -66t-29.5 -83.5t-9.5 -93.5z" />
    <glyph glyph-name="uni20A6" unicode="&#x20a6;" 
d="M20 479h62v235h82l111 -235h136v235h83v-235h63v-44h-63v-110h63v-44h-63v-281h-73l-134 281h-122v-281h-83v281h-62v44h62v110h-62v44zM348 325h63v110h-115zM165 325h101l-52 110h-49v-110zM411 191v90h-43zM165 479h28l-28 59v-59z" />
    <glyph glyph-name="uni20A9" unicode="&#x20a9;" 
d="M15 529h32l-31 185h70l28 -185h120l22 129h53l21 -129h120l29 185h70l-31 -185h32v-43h-40l-18 -111h58v-43h-65l-56 -332h-63l-55 332h-59l-55 -332h-62l-56 332h-64v43h57l-18 111h-39v43zM356 375h71l17 111h-107zM138 375h71l18 111h-106zM172 153l30 179h-58z
M393 153l27 179h-57zM259 375h45l-18 111h-9z" />
    <glyph glyph-name="uni20AA" unicode="&#x20aa;" horiz-adv-x="599" 
d="M195 473h70v-404h35q49 0 80.5 11t50.5 32.5t26.5 53.5t7.5 75v473h70v-473q0 -59 -12 -104t-40 -75.5t-73 -46t-111 -15.5h-104v473zM60 714h103q66 0 111.5 -15.5t73.5 -46t40 -75.5t12 -104v-232h-70v232q0 43 -7.5 75t-26.5 53.5t-50.5 32.5t-80.5 11h-35v-645h-70
v714z" />
    <glyph glyph-name="dong" unicode="&#x20ab;" 
d="M256 -13q-49 0 -88.5 20.5t-67.5 57t-43 86.5t-15 108t15 107.5t43 86t67.5 57.5t88.5 21q57 0 99 -30.5t64 -83.5v193h-139v42h139v62h80v-62h46v-42h-46v-610h-80v102q-22 -53 -64 -84t-99 -31zM68 -98h431v-42h-431v42zM271 58q34 0 61.5 15t47 41.5t29.5 63.5t10 81
t-10.5 81t-29.5 64t-46.5 42t-61.5 15t-61 -15t-46 -42t-29 -64t-10 -81t10 -81t28.5 -63.5t45.5 -41.5t62 -15z" />
    <glyph glyph-name="Euro" unicode="&#x20ac;" 
d="M366 -13q-57 0 -106 19.5t-87 56t-64 88t-38 115.5h-71v52h64q-1 6 -1 15.5v20.5v22.5t2 19.5h-65v51h72q12 64 38.5 116t65.5 88.5t88.5 56t106.5 19.5q54 0 99 -16t77 -42l-48 -66q-26 20 -56 30.5t-68 10.5q-81 0 -135 -52.5t-74 -144.5h263v-51h-271q-3 -20 -3 -40
q0 -11 0.5 -21t1.5 -17h272v-52h-264q20 -95 74 -145.5t129 -50.5q48 0 80.5 17t52.5 38l54 -59q-31 -35 -77.5 -57t-111.5 -22z" />
    <glyph glyph-name="uni20AD" unicode="&#x20ad;" 
d="M30 429h70v285h90v-264l250 264h100l-270 -285h262v-59h-259l290 -370h-103l-270 342v-342h-90v370h-70v59z" />
    <glyph glyph-name="uni20AE" unicode="&#x20ae;" 
d="M116 350l127 61v231h-202v72h494v-72h-202v-187l127 61v-59l-127 -61v-75l127 61v-58l-127 -61v-263h-90v219l-127 -61v59l127 61v75l-127 -61v58z" />
    <glyph glyph-name="uni20B1" unicode="&#x20b1;" 
d="M20 546h64v168h143q111 0 178.5 -45.5t90.5 -122.5h61v-45h-51q1 -9 1.5 -18.5t0.5 -18.5q0 -21 -3 -40h52v-44h-61q-24 -78 -91.5 -123t-176.5 -45h-53v-212h-91v380h-64v44h64v77h-64v45zM419 463q0 20 -3 38h-241v-77h241q3 18 3 39zM232 292q69 0 110 23t60 65h-227
v-88h57zM175 546h227q-19 41 -60.5 64t-110.5 23h-56v-87z" />
    <glyph glyph-name="uni20B4" unicode="&#x20b4;" 
d="M40 479h315q16 16 24.5 34t8.5 41q0 42 -27 68t-73 26q-42 0 -76.5 -22.5t-60.5 -64.5l-59 48q36 54 87 86t114 32q36 0 69.5 -12t59 -34.5t40.5 -55t15 -73.5q0 -21 -4.5 -38.5t-12.5 -34.5h77v-44h-108q-20 -22 -49.5 -42.5t-67.5 -43.5l-41 -24h266v-44h-329
q-22 -20 -35.5 -44.5t-13.5 -56.5q0 -54 35.5 -84t91.5 -30q51 0 95.5 26.5t74.5 78.5l60 -47q-35 -63 -94 -100t-138 -37q-45 0 -84 12.5t-68 37t-45.5 60t-16.5 80.5q0 31 8 56.5t22 47.5h-60v44h98q26 24 58.5 44.5t67.5 42.5q10 6 19 11.5t17 11.5h-260v44z" />
    <glyph glyph-name="uni20B8" unicode="&#x20b8;" 
d="M243 448h-202v71h495v-71h-203v-448h-90v448zM41 714h495v-71h-495v71z" />
    <glyph glyph-name="uni20B9" unicode="&#x20b9;" 
d="M56 317v59h129q81 0 126.5 30t54.5 81h-310v48h309q-7 49 -51.5 80t-123.5 31h-134v68h473v-48h-167q41 -23 63 -56.5t26 -74.5h78v-48h-78q-5 -39 -23.5 -71.5t-49.5 -56.5t-74 -37.5t-97 -13.5h-41l308 -308h-105z" />
    <glyph glyph-name="uni20BA" unicode="&#x20ba;" 
d="M116 269l-85 -41v61l85 40v81l-85 -41v61l85 40v244h85v-210l194 92v-61l-194 -91v-80l194 91v-61l-194 -91v-226h7q58 0 103 14.5t77 40.5t52.5 63t28.5 82l75 -22q-11 -56 -36.5 -102.5t-67 -80.5t-99.5 -53t-135 -19h-90v269z" />
    <glyph glyph-name="uni20BC" unicode="&#x20bc;" 
d="M259 553q-62 -15 -97.5 -98t-35.5 -234q0 -57 5 -113.5t14 -107.5h-90q-8 50 -13 108t-5 110q0 88 15 161t43.5 126.5t69.5 85.5t94 40v83l59 13v-96q52 -8 93.5 -40t70 -85.5t43.5 -126.5t15 -161q0 -52 -5 -110t-13 -108h-91q9 51 14 107.5t5 113.5q0 151 -35 233.5
t-97 98.5v-390l-59 -13v403z" />
    <glyph glyph-name="uni20BD" unicode="&#x20bd;" 
d="M106 203h-76v52h76v78h-76v75h76v306h192q118 0 179.5 -52.5t61.5 -137.5q0 -42 -15.5 -77.5t-44.5 -60.5t-72.5 -39t-98.5 -14h-117v-78h287v-52h-287v-203h-85v203zM307 408q75 0 111.5 32.5t36.5 83.5q0 53 -39 83.5t-119 30.5h-106v-230h116z" />
    <glyph glyph-name="litre" unicode="&#x2113;" horiz-adv-x="457" 
d="M426 72q-8 -12 -21.5 -27t-32 -27.5t-43.5 -21t-57 -8.5q-78 0 -116 43t-38 123v40q-20 -12 -37 -21.5t-31 -14.5l-30 68q42 17 98 55v227q0 31 7 61.5t24 54.5t44.5 39t68.5 15q34 0 59.5 -11t42.5 -30t25.5 -45t8.5 -55q0 -39 -16 -78.5t-44 -77.5t-64.5 -72.5
t-77.5 -64.5v-89q0 -45 20 -69.5t61 -24.5q35 0 58.5 19.5t34.5 37.5zM196 337q26 22 48.5 46.5t39.5 50t27 51.5t10 52q0 30 -14 50t-45 20q-20 0 -32.5 -8t-20 -21t-10.5 -29.5t-3 -33.5v-178z" />
    <glyph glyph-name="uni2117" unicode="&#x2117;" horiz-adv-x="832" 
d="M350 307v-153h-65v404h172q62 0 99.5 -34t37.5 -91q0 -26 -9 -48.5t-26 -40t-42.5 -27.5t-59.5 -10h-107zM529 432q0 41 -25.5 56t-73.5 15h-80v-142h80q49 0 74 15.5t25 55.5zM40 357q0 78 29.5 146.5t80.5 119.5t119.5 80.5t146.5 29.5t146.5 -29.5t119.5 -80.5
t80.5 -119.5t29.5 -146.5t-29.5 -146.5t-80.5 -119.5t-119.5 -80.5t-146.5 -29.5t-146.5 29.5t-119.5 80.5t-80.5 119.5t-29.5 146.5zM90 357q0 -68 25.5 -127t70 -103.5t103.5 -70t127 -25.5q67 0 126.5 25.5t104 70t70 103.5t25.5 127q0 67 -25.5 126.5t-70 104t-104 70
t-126.5 25.5q-68 0 -127 -25.5t-103.5 -70t-70 -104t-25.5 -126.5z" />
    <glyph glyph-name="uni2120" unicode="&#x2120;" horiz-adv-x="653" 
d="M153 678q-19 0 -33 -8t-14 -25q0 -9 5.5 -15.5t14 -10.5t18.5 -6.5t19 -4.5q20 -5 38 -10.5t31.5 -14.5t21.5 -23t8 -34q0 -38 -28 -62t-76 -24q-38 0 -67 15t-46 43l39 25q14 -21 34 -30t42 -9q23 0 38.5 9.5t15.5 27.5q0 19 -17 26.5t-42 13.5q-20 4 -37.5 9.5
t-31 14.5t-21.5 22t-8 33q0 41 29.5 60.5t69.5 19.5q34 0 59.5 -14t42.5 -38l-37 -27q-11 17 -28.5 27t-39.5 10zM544 446v201l-75 -201h-37l-76 201v-201h-46v268h66l75 -207l77 207h64v-268h-48z" />
    <glyph glyph-name="uni2121" unicode="&#x2121;" horiz-adv-x="653" 
d="M295 446v201l-75 -201h-37l-76 201v-201h-46v268h66l75 -207l76 207h64v-268h-47zM589 634q-26 42 -72 42q-38 0 -60 -26t-22 -70t22.5 -70t60.5 -26q24 0 41 11.5t31 31.5l38 -25q-42 -62 -111 -62q-58 0 -95 38.5t-37 101.5q0 31 10 57t27.5 44.5t41.5 28.5t53 10
q69 0 109 -61z" />
    <glyph glyph-name="trademark" unicode="&#x2122;" horiz-adv-x="652" 
d="M180 668v-222h-49v222h-88v46h228v-46h-91zM544 446v201l-75 -201h-37l-76 201v-201h-46v268h66l75 -207l77 207h64v-268h-48z" />
    <glyph glyph-name="uni2123" unicode="&#x2123;" horiz-adv-x="653" 
d="M295 446v201l-75 -201h-37l-76 201v-201h-46v268h66l75 -207l76 207h64v-268h-47zM498 490q39 0 60 24t21 66t-21 65.5t-60 23.5h-53v-179h53zM396 446v268h101q64 0 98 -37.5t34 -96.5q0 -58 -34 -96t-98 -38h-101z" />
    <glyph glyph-name="uni2124" unicode="&#x2124;" horiz-adv-x="653" 
d="M295 446v201l-75 -201h-37l-76 201v-201h-46v268h66l75 -207l76 207h64v-268h-47zM497 678q-19 0 -33 -8t-14 -25q0 -9 5.5 -15.5t13.5 -10.5t18 -6.5t19 -4.5q20 -5 38 -10.5t32 -14.5t22 -23t8 -34q0 -38 -28 -62t-77 -24q-37 0 -66 15t-46 43l38 25q14 -21 34.5 -30
t42.5 -9q23 0 38.5 9.5t15.5 27.5q0 19 -17 26.5t-43 13.5q-20 4 -37.5 9.5t-30.5 14.5t-21 22t-8 33q0 41 29.5 60.5t68.5 19.5q35 0 60.5 -14t42.5 -38l-37 -27q-11 17 -28.5 27t-39.5 10z" />
    <glyph glyph-name="uni2125" unicode="&#x2125;" horiz-adv-x="653" 
d="M295 446v201l-75 -201h-37l-76 201v-201h-46v268h66l75 -207l76 207h64v-268h-47zM565 446l-54 102h-62v-102h-49v268h120q43 0 68 -21t25 -59q0 -29 -14.5 -48t-38.5 -29l60 -111h-55zM564 630q0 19 -12 29t-32 10h-71v-79h71q20 0 32 11t12 29z" />
    <glyph glyph-name="Omega" unicode="&#x2126;" horiz-adv-x="606" 
d="M303 727q59 0 107.5 -22.5t83 -62.5t53.5 -95.5t19 -122.5q0 -62 -15.5 -113.5t-38 -95t-49.5 -80t-49 -68.5h143v-67h-207l-17 63q38 52 68.5 96.5t52 87t33 85.5t11.5 93q0 52 -13.5 95.5t-39 75t-61.5 49t-81 17.5t-81 -17.5t-61.5 -49t-39 -75t-13.5 -95.5
q0 -50 11.5 -93t33 -85.5t52 -87t68.5 -96.5l-18 -63h-206v67h143q-24 34 -50.5 70.5t-49.5 80t-38 95t-15 114.5q0 65 19 120t54 95t83.5 62.5t107.5 22.5z" />
    <glyph glyph-name="estimated" unicode="&#x212e;" horiz-adv-x="622" 
d="M161 273v-187q31 -30 68 -45.5t82 -15.5q65 0 113 29t86 95l36 -22q-24 -37 -48.5 -63t-52.5 -43t-61 -25t-73 -8q-61 0 -110 22t-83.5 60.5t-53.5 90.5t-19 112t19 112t53.5 90.5t83.5 60.5t110 22q60 0 109 -21t84 -59t54.5 -90t19.5 -115h-417zM462 310v150
q-67 62 -152 62q-45 0 -81.5 -16t-67.5 -46v-150h301z" />
    <glyph glyph-name="uni2150" unicode="&#x2150;" horiz-adv-x="950" 
d="M674 714h70l-473 -714h-70zM244 340q-41 0 -73.5 14.5t-56 40t-36 60.5t-12.5 76t12.5 76t36 61t56 40.5t72.5 14.5q54 0 90 -24.5t59 -57.5l-46 -37q-17 29 -41.5 45.5t-56.5 16.5q-52 0 -82.5 -38.5t-30.5 -95.5q0 -59 30.5 -97t82.5 -38q35 0 59.5 17.5t42.5 40.5
l44 -38q-24 -32 -60 -54.5t-90 -22.5zM706 -9q-41 0 -74.5 14t-57 39.5t-36 60.5t-12.5 77t12.5 77t36 60.5t57 40t74.5 14.5q42 0 75.5 -14.5t57 -40t36 -60.5t12.5 -77t-12.5 -77t-36 -60.5t-57 -39.5t-75.5 -14zM706 47q53 0 83 38.5t30 97.5q0 28 -8 53t-22.5 43
t-35.5 28.5t-47 10.5q-53 0 -82 -38.5t-29 -96.5q0 -60 29 -98t82 -38z" />
    <glyph glyph-name="partialdiff" unicode="&#x2202;" horiz-adv-x="592" 
d="M93 680q27 20 68 33.5t92 13.5q57 0 109.5 -21t92 -65t63 -111t23.5 -159q0 -61 -12.5 -128.5t-43.5 -124.5t-83 -94t-131 -37q-51 0 -93 17t-72 47.5t-46 73t-16 93.5q0 55 18.5 101t50.5 79t75 51t92 18q66 0 116.5 -30.5t73.5 -74.5q0 61 -12 114.5t-37.5 94t-66.5 64
t-99 23.5q-33 0 -65.5 -9t-63.5 -31zM270 58q40 0 72.5 14.5t55 39.5t34.5 58t12 70q0 72 -42 114t-113 42q-43 0 -74.5 -15.5t-52 -41t-30.5 -58.5t-10 -67q0 -75 40.5 -115.5t107.5 -40.5z" />
    <glyph glyph-name="Delta" unicode="&#x2206;" horiz-adv-x="605" 
d="M573 0h-541v14l265 748h12l264 -748v-14zM126 68h353l-176 518z" />
    <glyph glyph-name="product" unicode="&#x220f;" horiz-adv-x="603" 
d="M495 645v-645h-68v645h-251v-645h-69v645h-70v69h528v-69h-70z" />
    <glyph glyph-name="summation" unicode="&#x2211;" horiz-adv-x="597" 
d="M532 0h-479v24l303 333l-303 333v24h479v-69h-342l260 -288l-260 -289h342v-68z" />
    <glyph glyph-name="minus" unicode="&#x2212;" 
d="M28 222v74h519v-74h-519z" />
    <glyph glyph-name="radical" unicode="&#x221a;" horiz-adv-x="598" 
d="M600 724l-380 -778h-12l-189 383l61 30l133 -271l326 666z" />
    <glyph glyph-name="infinity" unicode="&#x221e;" horiz-adv-x="794" 
d="M743 275q0 -34 -12.5 -63.5t-34.5 -51.5t-52 -35t-66 -13q-28 0 -56 10t-54 36l-71 71l-71 -71q-26 -26 -53.5 -36t-56.5 -10q-36 0 -66 13t-52.5 35t-35 51.5t-12.5 63.5t12.5 63.5t35 51.5t52.5 35t66 13q29 0 56.5 -10t53.5 -36l71 -71l71 71q26 26 54 36t56 10
q36 0 66 -13t52 -35t34.5 -51.5t12.5 -63.5zM677 275q0 20 -7.5 37.5t-20.5 30.5t-30.5 20.5t-36.5 7.5q-22 0 -40.5 -9t-35 -23t-32 -31t-31.5 -33l68 -67q14 -14 29.5 -21.5t37.5 -7.5q43 0 71 28t28 68zM283 342q-16 16 -32.5 22.5t-34.5 6.5q-43 0 -71 -28t-28 -68
q0 -20 7.5 -37.5t20.5 -30.5t30 -20.5t37 -7.5q22 0 40.5 9t35 23t32 31t31.5 33z" />
    <glyph glyph-name="integral" unicode="&#x222b;" horiz-adv-x="307" 
d="M244 690q-19 22 -42 22q-40 0 -40 -60q0 -17 2.5 -49.5t6.5 -73.5t8.5 -87.5t9.5 -91.5q5 -50 9.5 -96.5t8 -86.5t5.5 -70.5t2 -48.5q0 -62 -27.5 -93.5t-75.5 -31.5q-32 0 -53 11.5t-37 27.5l42 44q19 -22 42 -22q40 0 40 60q0 17 -2.5 49.5t-6.5 73.5t-9 87.5t-9 91.5
q-5 49 -9.5 96t-8 87t-5.5 70.5t-2 48.5q0 62 27.5 93.5t76.5 31.5q31 0 52.5 -11.5t36.5 -27.5z" />
    <glyph glyph-name="approxequal" unicode="&#x2248;" 
d="M35 190q10 15 24 30.5t31.5 29t38 22t44.5 8.5q28 0 53.5 -9t63.5 -25q36 -16 61.5 -25t51.5 -9q32 0 58 14t48 36l32 -31q-11 -15 -24.5 -30.5t-30.5 -29t-38 -22t-45 -8.5q-28 0 -53.5 9t-63.5 25q-36 16 -61.5 24.5t-51.5 8.5q-32 0 -58 -14.5t-48 -35.5zM35 380
q10 14 24 29.5t31.5 28.5t38 21.5t44.5 8.5q28 0 53.5 -9t63.5 -25q36 -15 61.5 -24t51.5 -9q32 0 58 14t48 36l32 -32q-11 -15 -24.5 -30.5t-30.5 -29t-38 -22t-45 -8.5q-28 0 -53.5 9t-63.5 26q-36 15 -61.5 24t-51.5 9q-32 0 -58 -14.5t-48 -35.5z" />
    <glyph glyph-name="notequal" unicode="&#x2260;" 
d="M278 161l-57 -171h-58l57 171h-198v70h220l31 91h-251v71h275l57 171h58l-56 -171h197v-71h-221l-31 -91h252v-70h-275z" />
    <glyph glyph-name="lessequal" unicode="&#x2264;" 
d="M462 638l37 -62l-312 -196l315 -197l-40 -60l-405 257zM28 0v74h519v-74h-519z" />
    <glyph glyph-name="greaterequal" unicode="&#x2265;" 
d="M518 380l-405 -257l-40 60l315 197l-312 196l37 62zM28 0v74h519v-74h-519z" />
    <glyph glyph-name="lozenge" unicode="&#x25ca;" horiz-adv-x="610" 
d="M306 -48h-12l-254 405l254 405h12l254 -405zM300 648l-179 -291l179 -292l179 292z" />
    <glyph glyph-name="uni25FC" unicode="&#x25fc;" horiz-adv-x="520" 
d="M0 520h520v-520h-520v520z" />
    <glyph glyph-name="commaaccent" unicode="&#xf6c3;" horiz-adv-x="270" 
d="M114 -38h92l-108 -162l-49 26z" />
    <glyph glyph-name="apple" unicode="&#xf8ff;" horiz-adv-x="874" 
d="M675 714q25 0 46.5 -9.5t37.5 -25.5t25.5 -37.5t9.5 -46.5v-476q0 -25 -9.5 -46.5t-25.5 -37.5t-37.5 -25.5t-46.5 -9.5h-476q-25 0 -46.5 9.5t-37.5 25.5t-25.5 37.5t-9.5 46.5v476q0 25 9.5 46.5t25.5 37.5t37.5 25.5t46.5 9.5h476zM664 547q0 15 -11 26t-27 11h-379
q-15 0 -26 -11t-11 -26v-380q0 -15 11 -26t26 -11h379q16 0 27 11t11 26v380zM361 260q-9 0 -15 6t-6 15v152q0 9 6 15t15 6h152q9 0 15 -6t6 -15v-152q0 -9 -6 -15t-15 -6h-152z" />
    <glyph glyph-name="f_f" unicode="&#xfb00;" horiz-adv-x="635" 
d="M406 608q0 37 13 59.5t33 35.5t44 17.5t46 4.5q21 0 40.5 -3t33.5 -8l-12 -70q-6 3 -19 6.5t-33 3.5q-24 0 -43 -10t-19 -42v-83h119v-73h-119v-446h-84v446h-213v-446h-84v446h-85v73h85v89q0 37 13 59.5t32.5 35.5t43.5 17.5t47 4.5q21 0 40 -3t34 -8l-12 -70
q-6 3 -19.5 6.5t-33.5 3.5q-24 0 -42.5 -10t-18.5 -42v-83h213v89z" />
    <glyph glyph-name="uniFEFF" unicode="&#xfeff;" horiz-adv-x="0" 
 />
    <glyph glyph-name="zero.lin" 
d="M531 357q0 -70 -12 -136.5t-40.5 -118.5t-75 -83.5t-114.5 -31.5q-69 0 -116 31.5t-75.5 83.5t-40.5 118.5t-12 136.5t12 136.5t40.5 118.5t75.5 83.5t116 31.5q68 0 114.5 -31.5t75 -83.5t40.5 -118.5t12 -136.5zM437 357q0 60 -7.5 113t-25 92.5t-45.5 62.5t-70 23
t-71 -23t-47 -62.5t-25.5 -92.5t-7.5 -113t7.5 -113t25.5 -92.5t47 -62.5t71 -23t70 23t45.5 62.5t25 92.5t7.5 113z" />
    <glyph glyph-name="one.lin" 
d="M102 562l216 152h75v-714h-89v604l-158 -109z" />
    <glyph glyph-name="two.lin" 
d="M48 0v12q0 39 16.5 75t45.5 72t67.5 72.5t83.5 74.5q34 30 62.5 55t48.5 49.5t31 50t11 57.5q0 62 -39 93t-97 31q-57 0 -98.5 -26.5t-67.5 -73.5l-73 47q39 63 100 100.5t143 37.5q50 0 92 -14.5t72.5 -41t47.5 -64.5t17 -85q0 -66 -30.5 -114.5t-76.5 -89.5
q-29 -26 -66 -55t-72.5 -59t-65.5 -60.5t-45 -59.5h372v-84h-479z" />
    <glyph glyph-name="three.lin" 
d="M195 389l187 241h-324v84h439v-62l-165 -209q42 -2 78 -17.5t62.5 -43.5t41.5 -66t15 -84q0 -45 -15.5 -89t-47.5 -78.5t-81.5 -56t-117.5 -21.5q-86 0 -144 34.5t-94 97.5l76 46q25 -48 67.5 -71t93.5 -23q35 0 65.5 10.5t53 30.5t35.5 49t13 66q0 31 -9 57t-26 45
t-41 29.5t-54 10.5q-23 0 -38 -6t-27 -15z" />
    <glyph glyph-name="four.lin" 
d="M441 170v-170h-90v170h-321v77l312 467h99v-463h99v-81h-99zM352 251v349l-235 -349h235z" />
    <glyph glyph-name="five.lin" 
d="M276 -13q-85 0 -143.5 34.5t-92.5 97.5l78 45q24 -48 66 -70.5t91 -22.5q33 0 62 9.5t50.5 29t34 48.5t12.5 68q0 74 -42.5 114t-115.5 40q-49 0 -87 -18t-65 -51l-54 27l23 376h397v-84h-322l-15 -215q31 24 69.5 34.5t75.5 10.5q50 0 92.5 -17t73 -47t48 -72.5
t17.5 -93.5q0 -45 -14.5 -89t-45.5 -78t-78.5 -55t-114.5 -21z" />
    <glyph glyph-name="six.lin" 
d="M466 608q-30 21 -62 29.5t-63 8.5q-56 0 -94.5 -21.5t-63.5 -58t-36 -85.5t-11 -103q25 40 71.5 65t106.5 25q47 0 88.5 -16.5t72 -47t48 -73.5t17.5 -97q0 -52 -17 -97t-48.5 -78.5t-76.5 -52.5t-100 -19q-118 0 -185 90t-67 263q0 84 16.5 154.5t51.5 121.5
q39 58 96 84.5t128 26.5q52 0 93.5 -13t70.5 -34zM150 238q0 -34 10 -64.5t29 -54t47.5 -37t65.5 -13.5q67 0 105.5 44t38.5 116q0 33 -9 62t-27 51t-46 34.5t-66 12.5q-67 0 -107.5 -40t-40.5 -111z" />
    <glyph glyph-name="seven.lin" 
d="M534 642l-331 -642h-98l328 630h-389v84h490v-72z" />
    <glyph glyph-name="eight.lin" 
d="M288 68q74 0 112 37.5t38 102.5q0 60 -35.5 96.5t-114.5 36.5t-115 -38t-36 -98q0 -64 39 -100.5t112 -36.5zM288 419q24 0 47.5 5.5t41.5 18.5t29.5 34.5t11.5 53.5q0 31 -11 52.5t-29 35.5t-41.5 20.5t-48.5 6.5t-48.5 -6.5t-41.5 -20.5t-29 -35.5t-11 -52.5
q0 -32 11 -53.5t29.5 -34.5t42 -18.5t47.5 -5.5zM288 -13q-57 0 -102.5 16t-77 44.5t-48.5 67.5t-17 85q0 57 29.5 107t95.5 78q-48 22 -75.5 62.5t-27.5 95.5q0 43 17.5 77t47.5 58t70.5 36.5t87.5 12.5t87.5 -12.5t70.5 -36.5t47 -58t17 -77q0 -55 -27 -95.5t-76 -62.5
q67 -28 96.5 -78t29.5 -107q0 -46 -17 -85t-48.5 -67.5t-77 -44.5t-102.5 -16z" />
    <glyph glyph-name="nine.lin" 
d="M112 107q28 -21 60 -30t66 -9q55 0 93 21.5t62 59t35 87t11 105.5q-23 -41 -70 -68t-110 -27q-47 0 -88 16.5t-71 47t-47 73.5t-17 96q0 52 17 97.5t48.5 79t76 52.5t100.5 19q118 0 185 -90.5t67 -267.5q0 -81 -16 -150.5t-51 -121.5q-42 -60 -100 -85t-123 -25
q-54 0 -97.5 13.5t-71.5 32.5zM426 479q0 34 -10 64.5t-29 53t-47.5 35.5t-64.5 13q-69 0 -107 -45.5t-38 -115.5q0 -34 9 -63t27.5 -50.5t46 -33.5t64.5 -12q69 0 109 42t40 112z" />
    <glyph glyph-name="exclamdown.lin" horiz-adv-x="260" 
d="M176 153v-153h-92v153l24 350h45zM182 714v-105h-104v105h104z" />
    <glyph glyph-name="questiondown.lin" horiz-adv-x="493" 
d="M44 175q0 44 14.5 75t37 55t48 43.5t48 40t37 44.5t14.5 57v22h86v-14q0 -44 -14.5 -76.5t-35.5 -58t-46.5 -46.5t-46.5 -42t-35.5 -45t-14.5 -56q0 -45 30.5 -75.5t92.5 -30.5q46 0 83.5 18.5t71.5 51.5l49 -63q-42 -38 -94 -63t-117 -25q-45 0 -83.5 13t-66 37.5
t-43 59t-15.5 78.5zM337 714v-105h-105v105h105z" />
    <glyph glyph-name="hyphen.lin" horiz-adv-x="387" 
d="M62 296v74h263v-74h-263z" />
    <glyph glyph-name="endash.lin" 
d="M30 296v74h515v-74h-515z" />
    <glyph glyph-name="emdash.lin" horiz-adv-x="920" 
d="M59 296v74h802v-74h-802z" />
    <glyph glyph-name="registered.alt" horiz-adv-x="832" 
d="M282 547h165q62 0 98.5 -32.5t36.5 -86.5q0 -40 -22 -67.5t-54 -39.5l85 -157h-70l-78 145h-96v-145h-65v383zM447 362q34 0 51.5 18.5t17.5 46.5q0 29 -18.5 47t-50.5 18h-100v-130h100zM416 -19q-78 0 -146.5 29.5t-119.5 80.5t-80.5 119.5t-29.5 146.5t29.5 146.5
t80.5 119.5t119.5 80.5t146.5 29.5t146.5 -29.5t119.5 -80.5t80.5 -119.5t29.5 -146.5t-29.5 -146.5t-80.5 -119.5t-119.5 -80.5t-146.5 -29.5zM416 31q67 0 126.5 25.5t104 70t70 103.5t25.5 127q0 67 -25.5 126.5t-70 104t-104 70t-126.5 25.5q-68 0 -127 -25.5
t-103.5 -70t-70 -104t-25.5 -126.5q0 -68 25.5 -127t70 -103.5t103.5 -70t127 -25.5z" />
    <glyph glyph-name="periodcentered.lin" horiz-adv-x="255" 
d="M190 333q0 -26 -18.5 -44t-43.5 -18q-26 0 -44.5 18t-18.5 44t18.5 44.5t44.5 18.5q25 0 43.5 -18.5t18.5 -44.5z" />
    <glyph glyph-name="plus.lin" 
d="M325 296v-222h-75v222h-222v74h222v223h75v-223h222v-74h-222z" />
    <glyph glyph-name="minus.lin" 
d="M28 296v74h519v-74h-519z" />
    <glyph glyph-name="divide.lin" 
d="M348 535q0 -26 -17.5 -43.5t-42.5 -17.5q-26 0 -43.5 17.5t-17.5 43.5q0 25 17.5 43t43.5 18q25 0 42.5 -18t17.5 -43zM348 131q0 -24 -17.5 -42t-42.5 -18q-26 0 -43.5 18t-17.5 42q0 26 17.5 44.5t43.5 18.5q25 0 42.5 -18.5t17.5 -44.5zM28 296v74h519v-74h-519z" />
    <glyph glyph-name="equal.lin" 
d="M30 394v74h515v-74h-515zM30 199v73h515v-73h-515z" />
    <glyph glyph-name="multiply.lin" 
d="M496 71l-208 210l-209 -210l-53 54l210 208l-210 209l53 53l209 -210l208 210l53 -53l-209 -209l209 -208z" />
    <glyph glyph-name="less.lin" 
d="M398 62l-272 272l272 273l52 -51l-221 -222l221 -221z" />
    <glyph glyph-name="greater.lin" 
d="M176 62l-50 51l221 221l-221 222l50 51l274 -273z" />
    <glyph glyph-name="zero.num" horiz-adv-x="452" 
d="M394 500q0 -42 -8.5 -82t-28 -71t-51.5 -50t-79 -19q-48 0 -80 19t-51.5 50t-28 71t-8.5 82t8.5 82t28 71t51.5 50t80 19q47 0 79 -19t51.5 -50t28 -71t8.5 -82zM321 500q0 34 -4.5 64t-15.5 52t-29 34.5t-45 12.5t-45.5 -12.5t-29.5 -34.5t-16 -52t-5 -64q0 -35 5 -64.5
t16 -51.5t29.5 -34.5t45.5 -12.5t45 12.5t29 34.5t15.5 51.5t4.5 64.5z" />
    <glyph glyph-name="one.num" horiz-adv-x="367" 
d="M59 630l137 84h59v-428h-70v345l-91 -53z" />
    <glyph glyph-name="two.num" horiz-adv-x="452" 
d="M60 286v9q0 46 40 88.5t103 89.5q23 18 41.5 32.5t32 28t21 28t7.5 31.5q0 32 -24 49t-59 17q-38 0 -66.5 -18t-45.5 -50l-57 33q26 45 69.5 71.5t103.5 26.5q68 0 111.5 -34t43.5 -94q0 -41 -21 -69.5t-54 -54.5q-21 -17 -44.5 -32t-45.5 -29.5t-39.5 -28.5t-27.5 -29
h241v-65h-330z" />
    <glyph glyph-name="three.num" horiz-adv-x="452" 
d="M166 518l122 132h-214v64h302v-46l-107 -115q56 -5 92.5 -39t36.5 -89q0 -27 -10.5 -53.5t-32 -47.5t-54 -33.5t-76.5 -12.5q-64 0 -105.5 26t-65.5 68l56 34q17 -29 46 -47t68 -18q44 0 72 22t28 61q0 34 -22.5 55t-60.5 21q-27 0 -43 -12z" />
    <glyph glyph-name="four.num" horiz-adv-x="452" 
d="M336 383v-97h-72v97h-214v56l209 275h77v-271h63v-60h-63zM266 443v187l-149 -187h149z" />
    <glyph glyph-name="five.num" horiz-adv-x="452" 
d="M218 278q-59 0 -99 22.5t-63 61.5l59 33q14 -26 41 -40t61 -14q45 0 73.5 21.5t28.5 61.5q0 39 -27 61t-75 22q-64 0 -101 -40l-40 20l16 227h274v-64h-216l-11 -109q20 12 45.5 18t50.5 6q34 0 63 -10t50 -28t33 -44t12 -57q0 -28 -10 -54.5t-31.5 -47.5t-54.5 -33.5
t-79 -12.5z" />
    <glyph glyph-name="six.num" horiz-adv-x="452" 
d="M347 639q-20 12 -42 17t-42 5q-35 0 -60.5 -10.5t-41.5 -29t-23.5 -44t-7.5 -54.5q19 21 49.5 33.5t66.5 12.5q32 0 60 -10t49 -28.5t33 -44.5t12 -58q0 -31 -11.5 -58t-33 -47.5t-52.5 -32.5t-70 -12q-81 0 -127.5 54.5t-46.5 158.5q0 51 11.5 93.5t35.5 72.5
q26 33 65.5 49t88.5 16q71 0 114 -29zM138 430q0 -36 24.5 -63.5t72.5 -27.5q44 0 68.5 24t24.5 62q0 35 -23 60t-72 25q-43 0 -69 -21t-26 -59z" />
    <glyph glyph-name="seven.num" horiz-adv-x="452" 
d="M395 662l-222 -376h-76l219 364h-258v64h337v-52z" />
    <glyph glyph-name="eight.num" horiz-adv-x="452" 
d="M226 337q46 0 70 19.5t24 55.5q0 34 -22.5 53t-71.5 19q-48 0 -71.5 -19.5t-23.5 -53.5q0 -36 25 -55t70 -19zM226 540q31 0 56.5 13.5t25.5 48.5q0 33 -25 47.5t-57 14.5t-57 -14.5t-25 -47.5q0 -35 25.5 -48.5t56.5 -13.5zM226 278q-80 0 -124 37t-44 92q0 35 20 64
t63 45q-32 13 -50.5 36t-18.5 58q0 27 12 47.5t33 35t49 22t60 7.5t60 -7.5t49 -22t33 -35t12 -47.5q0 -35 -19 -58t-50 -36q43 -16 63.5 -45t20.5 -64q0 -55 -44.5 -92t-124.5 -37z" />
    <glyph glyph-name="nine.num" horiz-adv-x="452" 
d="M106 362q20 -13 41 -17.5t43 -4.5q70 0 101.5 40t31.5 101q-19 -23 -50 -36.5t-69 -13.5q-32 0 -60 10t-48.5 28.5t-32 44.5t-11.5 58q0 31 11.5 58t33.5 47.5t52.5 32.5t69.5 12q82 0 128 -54.5t46 -161.5q0 -50 -11 -91.5t-36 -71.5q-27 -35 -66.5 -50t-87.5 -15
q-35 0 -65 7.5t-51 21.5zM314 572q0 36 -24.5 62.5t-72.5 26.5q-45 0 -69 -24t-24 -62q0 -35 23.5 -60t71.5 -25q44 0 69.5 22t25.5 60z" />
    <glyph glyph-name="zero.den" horiz-adv-x="452" 
d="M394 214q0 -42 -8.5 -82t-28 -71t-51.5 -50t-79 -19q-48 0 -80 19t-51.5 50t-28 71t-8.5 82t8.5 82t28 71t51.5 50t80 19q47 0 79 -19t51.5 -50t28 -71t8.5 -82zM321 214q0 34 -4.5 64t-15.5 52t-29 34.5t-45 12.5t-45.5 -12.5t-29.5 -34.5t-16 -52t-5 -64q0 -35 5 -64.5
t16 -51.5t29.5 -34.5t45.5 -12.5t45 12.5t29 34.5t15.5 51.5t4.5 64.5z" />
    <glyph glyph-name="one.den" horiz-adv-x="367" 
d="M59 344l137 84h59v-428h-70v345l-91 -53z" />
    <glyph glyph-name="two.den" horiz-adv-x="452" 
d="M60 0v9q0 46 40 88.5t103 89.5q23 18 41.5 32.5t32 28t21 28t7.5 31.5q0 32 -24 49t-59 17q-38 0 -66.5 -18t-45.5 -50l-57 33q26 45 69.5 71.5t103.5 26.5q68 0 111.5 -34t43.5 -94q0 -41 -21 -69.5t-54 -54.5q-21 -17 -44.5 -32t-45.5 -29.5t-39.5 -28.5t-27.5 -29h241
v-65h-330z" />
    <glyph glyph-name="three.den" horiz-adv-x="452" 
d="M166 232l122 132h-214v64h302v-46l-107 -115q56 -5 92.5 -39t36.5 -89q0 -27 -10.5 -53.5t-32 -47.5t-54 -33.5t-76.5 -12.5q-64 0 -105.5 26t-65.5 68l56 34q17 -29 46 -47t68 -18q44 0 72 22t28 61q0 34 -22.5 55t-60.5 21q-27 0 -43 -12z" />
    <glyph glyph-name="four.den" horiz-adv-x="452" 
d="M336 97v-97h-72v97h-214v56l209 275h77v-271h63v-60h-63zM266 157v187l-149 -187h149z" />
    <glyph glyph-name="five.den" horiz-adv-x="452" 
d="M218 -8q-59 0 -99 22.5t-63 61.5l59 33q14 -26 41 -40t62 -14q44 0 72.5 21.5t28.5 61.5q0 39 -27 61t-75 22q-64 0 -101 -40l-40 20l16 227h274v-64h-216l-11 -109q20 12 45.5 18t51.5 6q33 0 62 -10t50 -28t33 -44t12 -57q0 -28 -10 -54.5t-31.5 -47.5t-54.5 -33.5
t-79 -12.5z" />
    <glyph glyph-name="six.den" horiz-adv-x="452" 
d="M347 353q-20 12 -42 17t-44 5q-34 0 -59 -10.5t-41 -29t-23.5 -43.5t-7.5 -55q19 21 49.5 33.5t66.5 12.5q32 0 60 -10t49 -28.5t33 -44.5t12 -58q0 -31 -11.5 -58t-33 -47.5t-52.5 -32.5t-70 -12q-81 0 -127.5 54.5t-46.5 159.5q0 51 11.5 93t35.5 72q26 33 65.5 49
t89.5 16q70 0 113 -29zM138 144q0 -36 24.5 -63.5t72.5 -27.5q44 0 68.5 24t24.5 62q0 35 -23 60t-72 25q-43 0 -69 -21t-26 -59z" />
    <glyph glyph-name="seven.den" horiz-adv-x="452" 
d="M395 376l-222 -376h-76l219 364h-258v64h337v-52z" />
    <glyph glyph-name="eight.den" horiz-adv-x="452" 
d="M226 51q46 0 70 19.5t24 55.5q0 34 -22.5 53.5t-71.5 19.5q-48 0 -71.5 -20t-23.5 -54q0 -36 25 -55t70 -19zM226 254q31 0 56.5 13.5t25.5 48.5q0 33 -25 47.5t-57 14.5t-57 -14.5t-25 -47.5q0 -35 25.5 -48.5t56.5 -13.5zM226 -8q-80 0 -124 37t-44 92q0 35 20 64
t63 45q-32 13 -50.5 36t-18.5 58q0 27 12 47.5t33 35t49 22t60 7.5t60 -7.5t49 -22t33 -35t12 -47.5q0 -35 -19 -58t-50 -36q43 -16 63.5 -45t20.5 -64q0 -55 -44.5 -92t-124.5 -37z" />
    <glyph glyph-name="nine.den" horiz-adv-x="452" 
d="M106 76q20 -13 41 -17.5t43 -4.5q70 0 101.5 40t31.5 101q-19 -23 -50 -36.5t-69 -13.5q-32 0 -60 10t-48.5 28.5t-32 44.5t-11.5 58q0 31 11.5 58t33.5 47.5t52.5 32.5t69.5 12q82 0 128 -54.5t46 -161.5q0 -50 -11 -91.5t-36 -71.5q-27 -35 -66.5 -50t-87.5 -15
q-35 0 -65 7.5t-51 21.5zM314 286q0 36 -24.5 62.5t-72.5 26.5q-45 0 -69 -24t-24 -62q0 -35 23.5 -60t71.5 -25q44 0 69.5 22t25.5 60z" />
    <glyph glyph-name="S_S" horiz-adv-x="1220" 
d="M906 645q-31 0 -58 -7t-47.5 -21t-32.5 -34.5t-12 -47.5q0 -36 23 -58t61 -36q28 -11 63.5 -20t73 -20t73 -26t63.5 -38t45 -55.5t17 -78.5q0 -47 -18 -86.5t-51.5 -68t-82 -45t-108.5 -16.5q-90 0 -160 36t-111 100l73 51q18 -30 42 -50t51 -32t55 -17.5t55 -5.5
q75 0 119.5 34.5t44.5 92.5q0 30 -12.5 50.5t-35.5 34.5t-55 23.5t-70 19.5q-44 10 -88 23.5t-79 36.5t-57 57.5t-22 87.5q0 49 20 86t53.5 62t78 37.5t93.5 12.5q77 0 141 -30t108 -88l-69 -51q-32 41 -79 64t-105 23zM296 645q-31 0 -58 -7t-47.5 -21t-32.5 -34.5
t-12 -47.5q0 -36 23 -58t61 -36q28 -11 63.5 -20t73 -20t73 -26t63.5 -38t45 -55.5t17 -78.5q0 -47 -18 -86.5t-51.5 -68t-82 -45t-108.5 -16.5q-90 0 -160 36t-111 100l73 51q18 -30 42 -50t51 -32t55 -17.5t55 -5.5q75 0 119.5 34.5t44.5 92.5q0 30 -12.5 50.5t-35.5 34.5
t-55 23.5t-70 19.5q-44 10 -88 23.5t-79 36.5t-57 57.5t-22 87.5q0 49 20 86t53.5 62t78 37.5t93.5 12.5q77 0 141 -30t108 -88l-69 -51q-32 41 -79 64t-105 23z" />
    <glyph glyph-name="f_f_t" horiz-adv-x="956" 
d="M406 608q0 37 13 59.5t33 35.5t44 17.5t46 4.5q21 0 40.5 -3t33.5 -8l-12 -70q-6 3 -19 6.5t-33 3.5q-24 0 -43 -10t-19 -42v-83h216v195h84v-195h136v-73h-136v-297q0 -46 17.5 -65t50.5 -19q18 0 34 4.5t25 11.5l21 -70q-17 -11 -41.5 -16.5t-51.5 -5.5
q-66 0 -102.5 34.5t-36.5 113.5v309h-216v-446h-84v446h-213v-446h-84v446h-85v73h85v89q0 37 13 59.5t32.5 35.5t43.5 17.5t47 4.5q21 0 40 -3t34 -8l-12 -70q-6 3 -19.5 6.5t-33.5 3.5q-24 0 -42.5 -10t-18.5 -42v-83h213v89z" />
    <glyph glyph-name="f_t" horiz-adv-x="660" 
d="M642 11q-16 -11 -40.5 -16.5t-51.5 -5.5q-66 0 -102.5 34.5t-36.5 113.5v309h-216v-446h-84v446h-87v73h87v89q0 37 13 59.5t32.5 35.5t43.5 17.5t46 4.5q23 0 42 -3t33 -8l-12 -70q-6 3 -19.5 6.5t-33.5 3.5q-23 0 -42 -10t-19 -42v-83h216v195h84v-195h136v-73h-136
v-297q0 -46 17.5 -65t50.5 -19q18 0 34 4.5t25 11.5z" />
    <glyph glyph-name="r_f_f" horiz-adv-x="1002" 
d="M340 446q-32 0 -63.5 -6t-57.5 -25t-42 -54t-16 -93v-268h-84v519h84v-76q9 16 24 31t34 26.5t41.5 18.5t46.5 7q25 0 33 -5v-75zM774 608q0 37 13 59.5t32.5 35.5t43.5 17.5t47 4.5q21 0 40.5 -3t33.5 -8l-12 -70q-6 3 -19.5 6.5t-33.5 3.5q-23 0 -42 -10t-19 -42v-83
h119v-73h-119v-446h-84v446h-213v-446h-84v446h-85v73h85v89q0 37 13 59.5t32.5 35.5t43.5 17.5t47 4.5q21 0 40 -3t34 -8l-12 -70q-6 3 -19.5 6.5t-33.5 3.5q-24 0 -42.5 -10t-18.5 -42v-83h213v89z" />
    <glyph glyph-name="caron.alt" horiz-adv-x="242" 
d="M134 447h-45v267h92z" />
    <glyph glyph-name="i.trk" horiz-adv-x="238" 
d="M77 0v519h84v-519h-84zM80 618v79h77v-79h-77z" />
    <glyph glyph-name="apple.alt" horiz-adv-x="3250" 
d="M675 714q25 0 46.5 -9.5t37.5 -25.5t25.5 -37.5t9.5 -46.5v-476q0 -25 -9.5 -46.5t-25.5 -37.5t-37.5 -25.5t-46.5 -9.5h-476q-25 0 -46.5 9.5t-37.5 25.5t-25.5 37.5t-9.5 46.5v476q0 25 9.5 46.5t25.5 37.5t37.5 25.5t46.5 9.5h476zM664 547q0 15 -11 26t-27 11h-379
q-15 0 -26 -11t-11 -26v-380q0 -15 11 -26t26 -11h379q16 0 27 11t11 26v380zM1634 177q-21 -26 -52.5 -40.5t-68.5 -14.5t-68.5 13t-55 36.5t-37 54.5t-13.5 67t13.5 67t37 54t55 36t68.5 13q38 0 69 -15t52 -41v42q0 6 5 6h38q6 0 6 -6v-443q0 -6 -6 -6h-38q-5 0 -5 6v171
zM2433 455q5 0 5 -6v-314q0 -5 -5 -5h-38q-6 0 -6 5v42q-21 -26 -52 -40.5t-68 -14.5t-69 13t-55.5 36.5t-37 54.5t-13.5 67t13.5 67t37 54t55.5 36t69 13q38 0 69 -14.5t51 -41.5v42q0 6 6 6h38zM2744 273q4 -20 13 -39t25 -34t38 -24t52 -9q28 0 52.5 13t38.5 30q6 8 10 8
h39q9 0 6 -8q-21 -39 -60 -63.5t-88 -24.5q-36 0 -68 13t-55.5 36t-37.5 54t-14 67q0 35 13.5 66t36.5 54.5t53.5 37t65.5 13.5t66.5 -13.5t55 -36.5t37 -55t13.5 -69v-3q0 -2 -0.5 -3t-0.5 -3q0 -7 -7 -7h-284zM1135 394q29 -7 57.5 -16.5t50.5 -25t36 -38.5t14 -56
q0 -58 -46 -98q-44 -39 -106 -39h-1q-46 1 -75.5 18t-46 38.5t-23 42.5t-6.5 32q0 8 7 8h36q7 0 7 -8q1 -11 7.5 -25t18.5 -26t30.5 -20.5t44.5 -8.5q20 0 38.5 6.5t32.5 18.5t22.5 27.5t8.5 33.5q0 13 -5 25.5t-18 23t-36 20t-60 18.5q-61 15 -89 41q-31 30 -31 81
q0 25 10.5 48t28.5 40t42.5 27t52.5 10q27 0 52 -9.5t44 -26.5q20 -17 31 -40t11 -46q0 -7 -7 -7h-37q-7 0 -7 7q-2 28 -24 49.5t-63 21.5q-35 0 -59 -22t-24 -52q0 -14 3 -25t11.5 -19.5t24.5 -15.5t42 -13zM2269 167q26 0 48.5 9.5t39 26.5t26 40t9.5 49t-9.5 49t-26.5 40
t-39.5 27t-47.5 10q-55 0 -90 -36t-35 -91q0 -27 9.5 -50t26 -39.5t39.5 -25.5t50 -9zM1513 167q26 0 48.5 9.5t39 26.5t26 40t9.5 49t-9.5 49t-26.5 40t-39.5 27t-47.5 10q-27 0 -50 -9.5t-39.5 -26.5t-26 -40.5t-9.5 -50.5t9.5 -50t26 -39.5t39.5 -25.5t50 -9zM1991 166
q-15 -21 -40 -33t-56 -12q-35 0 -65 13t-48 37q-29 35 -29 105v173q0 6 5 6h39q5 0 5 -6v-173q0 -110 93 -110q38 0 64 25q20 19 26 41.5t6 50.5v166q0 6 6 6h38q5 0 5 -6v-314q0 -5 -5 -5h-38q-6 0 -6 5v31zM361 260q-9 0 -15 6t-6 15v152q0 9 6 15t15 6h152q9 0 15 -6
t6 -15v-152q0 -9 -6 -15t-15 -6h-152zM2568 407q44 56 121 56q7 -1 7 -8v-30q0 -7 -7 -7q-26 0 -48 -10t-38 -27t-25.5 -39.5t-9.5 -48.5v-158q0 -5 -5 -5h-38q-6 0 -6 5v314q0 6 6 6h38q5 0 5 -6v-42zM2984 318q-10 43 -42.5 71.5t-77.5 28.5t-78 -28.5t-42 -71.5h240z" />
    </font>
</defs>
</svg>
